M48
; FORMAT={-:-/ absolute / metric / decimal}
; #@! TF.GenerationSoftware,Kicad,Pcbnew,6.0.10+dfsg-1~bpo11+1
; #@! TF.FileFunction,Plated,1,2,PTH
FMAT,2
METRIC
; #@! TA.AperFunction,Plated,PTH,ComponentDrill
T1C1.050
; #@! TA.AperFunction,Plated,PTH,ComponentDrill
T2C1.500
%
G90
G05
T1
X128.5Y-109.6
X128.5Y-111.6
X128.5Y-113.6
X128.5Y-115.6
X128.5Y-117.6
X128.5Y-119.6
X128.5Y-121.6
X128.5Y-123.6
X131.5Y-110.0
X131.5Y-112.0
X131.5Y-114.0
X131.5Y-116.0
X131.5Y-118.0
X131.5Y-120.0
X131.5Y-122.0
X133.5Y-110.0
X133.5Y-112.0
X133.5Y-114.0
X133.5Y-116.0
X133.5Y-118.0
X133.5Y-120.0
X133.5Y-122.0
X135.5Y-110.0
X135.5Y-112.0
X135.5Y-114.0
X135.5Y-116.0
X135.5Y-118.0
X135.5Y-120.0
X135.5Y-122.0
X137.5Y-110.0
X137.5Y-112.0
X137.5Y-114.0
X137.5Y-116.0
X137.5Y-118.0
X137.5Y-120.0
X137.5Y-122.0
X139.5Y-110.0
X139.5Y-112.0
X139.5Y-114.0
X139.5Y-116.0
X139.5Y-118.0
X139.5Y-120.0
X139.5Y-122.0
X142.5Y-109.6
X142.5Y-111.6
X142.5Y-113.6
X142.5Y-115.6
X142.5Y-117.6
X142.5Y-119.6
X142.5Y-121.6
X142.5Y-123.6
T2
X128.0Y-100.0
X128.0Y-126.0
X143.0Y-100.0
X143.0Y-126.0
T0
M30
