%TF.GenerationSoftware,KiCad,Pcbnew,6.0.10+dfsg-1~bpo11+1*%
%TF.ProjectId,mag,6d61672e-6b69-4636-9164-5f7063625858,rev?*%
%TF.SameCoordinates,Original*%
%TF.FileFunction,Drillmap*%
%TF.FilePolarity,Positive*%
%FSLAX45Y45*%
G04 Gerber Fmt 4.5, Leading zero omitted, Abs format (unit mm)*
%MOMM*%
%LPD*%
G01*
G04 APERTURE LIST*
%ADD10C,0.200000*%
%ADD11C,0.105000*%
%ADD12C,0.150000*%
G04 APERTURE END LIST*
D10*
D11*
X12797500Y-10907500D02*
X12902500Y-11012500D01*
X12902500Y-10907500D02*
X12797500Y-11012500D01*
X12797500Y-11107500D02*
X12902500Y-11212500D01*
X12902500Y-11107500D02*
X12797500Y-11212500D01*
X12797500Y-11307500D02*
X12902500Y-11412500D01*
X12902500Y-11307500D02*
X12797500Y-11412500D01*
X12797500Y-11507500D02*
X12902500Y-11612500D01*
X12902500Y-11507500D02*
X12797500Y-11612500D01*
X12797500Y-11707500D02*
X12902500Y-11812500D01*
X12902500Y-11707500D02*
X12797500Y-11812500D01*
X12797500Y-11907500D02*
X12902500Y-12012500D01*
X12902500Y-11907500D02*
X12797500Y-12012500D01*
X12797500Y-12107500D02*
X12902500Y-12212500D01*
X12902500Y-12107500D02*
X12797500Y-12212500D01*
X12797500Y-12307500D02*
X12902500Y-12412500D01*
X12902500Y-12307500D02*
X12797500Y-12412500D01*
X13097500Y-10947500D02*
X13202500Y-11052500D01*
X13202500Y-10947500D02*
X13097500Y-11052500D01*
X13097500Y-11147500D02*
X13202500Y-11252500D01*
X13202500Y-11147500D02*
X13097500Y-11252500D01*
X13097500Y-11347500D02*
X13202500Y-11452500D01*
X13202500Y-11347500D02*
X13097500Y-11452500D01*
X13097500Y-11547500D02*
X13202500Y-11652500D01*
X13202500Y-11547500D02*
X13097500Y-11652500D01*
X13097500Y-11747500D02*
X13202500Y-11852500D01*
X13202500Y-11747500D02*
X13097500Y-11852500D01*
X13097500Y-11947500D02*
X13202500Y-12052500D01*
X13202500Y-11947500D02*
X13097500Y-12052500D01*
X13097500Y-12147500D02*
X13202500Y-12252500D01*
X13202500Y-12147500D02*
X13097500Y-12252500D01*
X13297500Y-10947500D02*
X13402500Y-11052500D01*
X13402500Y-10947500D02*
X13297500Y-11052500D01*
X13297500Y-11147500D02*
X13402500Y-11252500D01*
X13402500Y-11147500D02*
X13297500Y-11252500D01*
X13297500Y-11347500D02*
X13402500Y-11452500D01*
X13402500Y-11347500D02*
X13297500Y-11452500D01*
X13297500Y-11547500D02*
X13402500Y-11652500D01*
X13402500Y-11547500D02*
X13297500Y-11652500D01*
X13297500Y-11747500D02*
X13402500Y-11852500D01*
X13402500Y-11747500D02*
X13297500Y-11852500D01*
X13297500Y-11947500D02*
X13402500Y-12052500D01*
X13402500Y-11947500D02*
X13297500Y-12052500D01*
X13297500Y-12147500D02*
X13402500Y-12252500D01*
X13402500Y-12147500D02*
X13297500Y-12252500D01*
X13497500Y-10947500D02*
X13602500Y-11052500D01*
X13602500Y-10947500D02*
X13497500Y-11052500D01*
X13497500Y-11147500D02*
X13602500Y-11252500D01*
X13602500Y-11147500D02*
X13497500Y-11252500D01*
X13497500Y-11347500D02*
X13602500Y-11452500D01*
X13602500Y-11347500D02*
X13497500Y-11452500D01*
X13497500Y-11547500D02*
X13602500Y-11652500D01*
X13602500Y-11547500D02*
X13497500Y-11652500D01*
X13497500Y-11747500D02*
X13602500Y-11852500D01*
X13602500Y-11747500D02*
X13497500Y-11852500D01*
X13497500Y-11947500D02*
X13602500Y-12052500D01*
X13602500Y-11947500D02*
X13497500Y-12052500D01*
X13497500Y-12147500D02*
X13602500Y-12252500D01*
X13602500Y-12147500D02*
X13497500Y-12252500D01*
X13697500Y-10947500D02*
X13802500Y-11052500D01*
X13802500Y-10947500D02*
X13697500Y-11052500D01*
X13697500Y-11147500D02*
X13802500Y-11252500D01*
X13802500Y-11147500D02*
X13697500Y-11252500D01*
X13697500Y-11347500D02*
X13802500Y-11452500D01*
X13802500Y-11347500D02*
X13697500Y-11452500D01*
X13697500Y-11547500D02*
X13802500Y-11652500D01*
X13802500Y-11547500D02*
X13697500Y-11652500D01*
X13697500Y-11747500D02*
X13802500Y-11852500D01*
X13802500Y-11747500D02*
X13697500Y-11852500D01*
X13697500Y-11947500D02*
X13802500Y-12052500D01*
X13802500Y-11947500D02*
X13697500Y-12052500D01*
X13697500Y-12147500D02*
X13802500Y-12252500D01*
X13802500Y-12147500D02*
X13697500Y-12252500D01*
X13897500Y-10947500D02*
X14002500Y-11052500D01*
X14002500Y-10947500D02*
X13897500Y-11052500D01*
X13897500Y-11147500D02*
X14002500Y-11252500D01*
X14002500Y-11147500D02*
X13897500Y-11252500D01*
X13897500Y-11347500D02*
X14002500Y-11452500D01*
X14002500Y-11347500D02*
X13897500Y-11452500D01*
X13897500Y-11547500D02*
X14002500Y-11652500D01*
X14002500Y-11547500D02*
X13897500Y-11652500D01*
X13897500Y-11747500D02*
X14002500Y-11852500D01*
X14002500Y-11747500D02*
X13897500Y-11852500D01*
X13897500Y-11947500D02*
X14002500Y-12052500D01*
X14002500Y-11947500D02*
X13897500Y-12052500D01*
X13897500Y-12147500D02*
X14002500Y-12252500D01*
X14002500Y-12147500D02*
X13897500Y-12252500D01*
X14197500Y-10907500D02*
X14302500Y-11012500D01*
X14302500Y-10907500D02*
X14197500Y-11012500D01*
X14197500Y-11107500D02*
X14302500Y-11212500D01*
X14302500Y-11107500D02*
X14197500Y-11212500D01*
X14197500Y-11307500D02*
X14302500Y-11412500D01*
X14302500Y-11307500D02*
X14197500Y-11412500D01*
X14197500Y-11507500D02*
X14302500Y-11612500D01*
X14302500Y-11507500D02*
X14197500Y-11612500D01*
X14197500Y-11707500D02*
X14302500Y-11812500D01*
X14302500Y-11707500D02*
X14197500Y-11812500D01*
X14197500Y-11907500D02*
X14302500Y-12012500D01*
X14302500Y-11907500D02*
X14197500Y-12012500D01*
X14197500Y-12107500D02*
X14302500Y-12212500D01*
X14302500Y-12107500D02*
X14197500Y-12212500D01*
X14197500Y-12307500D02*
X14302500Y-12412500D01*
X14302500Y-12307500D02*
X14197500Y-12412500D01*
D12*
X12875000Y-10000000D02*
G75*
G03*
X12875000Y-10000000I-75000J0D01*
G01*
X12875000Y-12600000D02*
G75*
G03*
X12875000Y-12600000I-75000J0D01*
G01*
X14375000Y-10000000D02*
G75*
G03*
X14375000Y-10000000I-75000J0D01*
G01*
X14375000Y-12600000D02*
G75*
G03*
X14375000Y-12600000I-75000J0D01*
G01*
D10*
X12901619Y-12916476D02*
X12901619Y-12716476D01*
X12949238Y-12716476D01*
X12977809Y-12726000D01*
X12996857Y-12745048D01*
X13006381Y-12764095D01*
X13015905Y-12802190D01*
X13015905Y-12830762D01*
X13006381Y-12868857D01*
X12996857Y-12887905D01*
X12977809Y-12906952D01*
X12949238Y-12916476D01*
X12901619Y-12916476D01*
X13101619Y-12916476D02*
X13101619Y-12783143D01*
X13101619Y-12821238D02*
X13111143Y-12802190D01*
X13120667Y-12792667D01*
X13139714Y-12783143D01*
X13158762Y-12783143D01*
X13225428Y-12916476D02*
X13225428Y-12783143D01*
X13225428Y-12716476D02*
X13215905Y-12726000D01*
X13225428Y-12735524D01*
X13234952Y-12726000D01*
X13225428Y-12716476D01*
X13225428Y-12735524D01*
X13349238Y-12916476D02*
X13330190Y-12906952D01*
X13320667Y-12887905D01*
X13320667Y-12716476D01*
X13454000Y-12916476D02*
X13434952Y-12906952D01*
X13425428Y-12887905D01*
X13425428Y-12716476D01*
X13682571Y-12916476D02*
X13682571Y-12716476D01*
X13749238Y-12859333D01*
X13815905Y-12716476D01*
X13815905Y-12916476D01*
X13996857Y-12916476D02*
X13996857Y-12811714D01*
X13987333Y-12792667D01*
X13968286Y-12783143D01*
X13930190Y-12783143D01*
X13911143Y-12792667D01*
X13996857Y-12906952D02*
X13977809Y-12916476D01*
X13930190Y-12916476D01*
X13911143Y-12906952D01*
X13901619Y-12887905D01*
X13901619Y-12868857D01*
X13911143Y-12849809D01*
X13930190Y-12840286D01*
X13977809Y-12840286D01*
X13996857Y-12830762D01*
X14092095Y-12783143D02*
X14092095Y-12983143D01*
X14092095Y-12792667D02*
X14111143Y-12783143D01*
X14149238Y-12783143D01*
X14168286Y-12792667D01*
X14177809Y-12802190D01*
X14187333Y-12821238D01*
X14187333Y-12878381D01*
X14177809Y-12897428D01*
X14168286Y-12906952D01*
X14149238Y-12916476D01*
X14111143Y-12916476D01*
X14092095Y-12906952D01*
X14273048Y-12897428D02*
X14282571Y-12906952D01*
X14273048Y-12916476D01*
X14263524Y-12906952D01*
X14273048Y-12897428D01*
X14273048Y-12916476D01*
X14273048Y-12792667D02*
X14282571Y-12802190D01*
X14273048Y-12811714D01*
X14263524Y-12802190D01*
X14273048Y-12792667D01*
X14273048Y-12811714D01*
D11*
X12539000Y-13193500D02*
X12644000Y-13298500D01*
X12644000Y-13193500D02*
X12539000Y-13298500D01*
D10*
X13006381Y-13336476D02*
X12892095Y-13336476D01*
X12949238Y-13336476D02*
X12949238Y-13136476D01*
X12930190Y-13165048D01*
X12911143Y-13184095D01*
X12892095Y-13193619D01*
X13092095Y-13317428D02*
X13101619Y-13326952D01*
X13092095Y-13336476D01*
X13082571Y-13326952D01*
X13092095Y-13317428D01*
X13092095Y-13336476D01*
X13225428Y-13136476D02*
X13244476Y-13136476D01*
X13263524Y-13146000D01*
X13273048Y-13155524D01*
X13282571Y-13174571D01*
X13292095Y-13212667D01*
X13292095Y-13260286D01*
X13282571Y-13298381D01*
X13273048Y-13317428D01*
X13263524Y-13326952D01*
X13244476Y-13336476D01*
X13225428Y-13336476D01*
X13206381Y-13326952D01*
X13196857Y-13317428D01*
X13187333Y-13298381D01*
X13177809Y-13260286D01*
X13177809Y-13212667D01*
X13187333Y-13174571D01*
X13196857Y-13155524D01*
X13206381Y-13146000D01*
X13225428Y-13136476D01*
X13473048Y-13136476D02*
X13377809Y-13136476D01*
X13368286Y-13231714D01*
X13377809Y-13222190D01*
X13396857Y-13212667D01*
X13444476Y-13212667D01*
X13463524Y-13222190D01*
X13473048Y-13231714D01*
X13482571Y-13250762D01*
X13482571Y-13298381D01*
X13473048Y-13317428D01*
X13463524Y-13326952D01*
X13444476Y-13336476D01*
X13396857Y-13336476D01*
X13377809Y-13326952D01*
X13368286Y-13317428D01*
X13606381Y-13136476D02*
X13625428Y-13136476D01*
X13644476Y-13146000D01*
X13654000Y-13155524D01*
X13663524Y-13174571D01*
X13673048Y-13212667D01*
X13673048Y-13260286D01*
X13663524Y-13298381D01*
X13654000Y-13317428D01*
X13644476Y-13326952D01*
X13625428Y-13336476D01*
X13606381Y-13336476D01*
X13587333Y-13326952D01*
X13577809Y-13317428D01*
X13568286Y-13298381D01*
X13558762Y-13260286D01*
X13558762Y-13212667D01*
X13568286Y-13174571D01*
X13577809Y-13155524D01*
X13587333Y-13146000D01*
X13606381Y-13136476D01*
X13758762Y-13336476D02*
X13758762Y-13203143D01*
X13758762Y-13222190D02*
X13768286Y-13212667D01*
X13787333Y-13203143D01*
X13815905Y-13203143D01*
X13834952Y-13212667D01*
X13844476Y-13231714D01*
X13844476Y-13336476D01*
X13844476Y-13231714D02*
X13854000Y-13212667D01*
X13873048Y-13203143D01*
X13901619Y-13203143D01*
X13920667Y-13212667D01*
X13930190Y-13231714D01*
X13930190Y-13336476D01*
X14025428Y-13336476D02*
X14025428Y-13203143D01*
X14025428Y-13222190D02*
X14034952Y-13212667D01*
X14054000Y-13203143D01*
X14082571Y-13203143D01*
X14101619Y-13212667D01*
X14111143Y-13231714D01*
X14111143Y-13336476D01*
X14111143Y-13231714D02*
X14120667Y-13212667D01*
X14139714Y-13203143D01*
X14168286Y-13203143D01*
X14187333Y-13212667D01*
X14196857Y-13231714D01*
X14196857Y-13336476D01*
X14587333Y-13126952D02*
X14415905Y-13384095D01*
X14844476Y-13136476D02*
X14863524Y-13136476D01*
X14882571Y-13146000D01*
X14892095Y-13155524D01*
X14901619Y-13174571D01*
X14911143Y-13212667D01*
X14911143Y-13260286D01*
X14901619Y-13298381D01*
X14892095Y-13317428D01*
X14882571Y-13326952D01*
X14863524Y-13336476D01*
X14844476Y-13336476D01*
X14825428Y-13326952D01*
X14815905Y-13317428D01*
X14806381Y-13298381D01*
X14796857Y-13260286D01*
X14796857Y-13212667D01*
X14806381Y-13174571D01*
X14815905Y-13155524D01*
X14825428Y-13146000D01*
X14844476Y-13136476D01*
X14996857Y-13317428D02*
X15006381Y-13326952D01*
X14996857Y-13336476D01*
X14987333Y-13326952D01*
X14996857Y-13317428D01*
X14996857Y-13336476D01*
X15130190Y-13136476D02*
X15149238Y-13136476D01*
X15168286Y-13146000D01*
X15177809Y-13155524D01*
X15187333Y-13174571D01*
X15196857Y-13212667D01*
X15196857Y-13260286D01*
X15187333Y-13298381D01*
X15177809Y-13317428D01*
X15168286Y-13326952D01*
X15149238Y-13336476D01*
X15130190Y-13336476D01*
X15111143Y-13326952D01*
X15101619Y-13317428D01*
X15092095Y-13298381D01*
X15082571Y-13260286D01*
X15082571Y-13212667D01*
X15092095Y-13174571D01*
X15101619Y-13155524D01*
X15111143Y-13146000D01*
X15130190Y-13136476D01*
X15368286Y-13203143D02*
X15368286Y-13336476D01*
X15320667Y-13126952D02*
X15273048Y-13269809D01*
X15396857Y-13269809D01*
X15577809Y-13336476D02*
X15463524Y-13336476D01*
X15520667Y-13336476D02*
X15520667Y-13136476D01*
X15501619Y-13165048D01*
X15482571Y-13184095D01*
X15463524Y-13193619D01*
X15644476Y-13136476D02*
X15768286Y-13136476D01*
X15701619Y-13212667D01*
X15730190Y-13212667D01*
X15749238Y-13222190D01*
X15758762Y-13231714D01*
X15768286Y-13250762D01*
X15768286Y-13298381D01*
X15758762Y-13317428D01*
X15749238Y-13326952D01*
X15730190Y-13336476D01*
X15673048Y-13336476D01*
X15654000Y-13326952D01*
X15644476Y-13317428D01*
X15844476Y-13136476D02*
X15844476Y-13174571D01*
X15920667Y-13136476D02*
X15920667Y-13174571D01*
X16215905Y-13412667D02*
X16206381Y-13403143D01*
X16187333Y-13374571D01*
X16177809Y-13355524D01*
X16168286Y-13326952D01*
X16158762Y-13279333D01*
X16158762Y-13241238D01*
X16168286Y-13193619D01*
X16177809Y-13165048D01*
X16187333Y-13146000D01*
X16206381Y-13117428D01*
X16215905Y-13107905D01*
X16387333Y-13136476D02*
X16292095Y-13136476D01*
X16282571Y-13231714D01*
X16292095Y-13222190D01*
X16311143Y-13212667D01*
X16358762Y-13212667D01*
X16377809Y-13222190D01*
X16387333Y-13231714D01*
X16396857Y-13250762D01*
X16396857Y-13298381D01*
X16387333Y-13317428D01*
X16377809Y-13326952D01*
X16358762Y-13336476D01*
X16311143Y-13336476D01*
X16292095Y-13326952D01*
X16282571Y-13317428D01*
X16587333Y-13336476D02*
X16473048Y-13336476D01*
X16530190Y-13336476D02*
X16530190Y-13136476D01*
X16511143Y-13165048D01*
X16492095Y-13184095D01*
X16473048Y-13193619D01*
X16825429Y-13336476D02*
X16825429Y-13136476D01*
X16911143Y-13336476D02*
X16911143Y-13231714D01*
X16901619Y-13212667D01*
X16882571Y-13203143D01*
X16854000Y-13203143D01*
X16834952Y-13212667D01*
X16825429Y-13222190D01*
X17034952Y-13336476D02*
X17015905Y-13326952D01*
X17006381Y-13317428D01*
X16996857Y-13298381D01*
X16996857Y-13241238D01*
X17006381Y-13222190D01*
X17015905Y-13212667D01*
X17034952Y-13203143D01*
X17063524Y-13203143D01*
X17082571Y-13212667D01*
X17092095Y-13222190D01*
X17101619Y-13241238D01*
X17101619Y-13298381D01*
X17092095Y-13317428D01*
X17082571Y-13326952D01*
X17063524Y-13336476D01*
X17034952Y-13336476D01*
X17215905Y-13336476D02*
X17196857Y-13326952D01*
X17187333Y-13307905D01*
X17187333Y-13136476D01*
X17368286Y-13326952D02*
X17349238Y-13336476D01*
X17311143Y-13336476D01*
X17292095Y-13326952D01*
X17282571Y-13307905D01*
X17282571Y-13231714D01*
X17292095Y-13212667D01*
X17311143Y-13203143D01*
X17349238Y-13203143D01*
X17368286Y-13212667D01*
X17377810Y-13231714D01*
X17377810Y-13250762D01*
X17282571Y-13269809D01*
X17454000Y-13326952D02*
X17473048Y-13336476D01*
X17511143Y-13336476D01*
X17530190Y-13326952D01*
X17539714Y-13307905D01*
X17539714Y-13298381D01*
X17530190Y-13279333D01*
X17511143Y-13269809D01*
X17482571Y-13269809D01*
X17463524Y-13260286D01*
X17454000Y-13241238D01*
X17454000Y-13231714D01*
X17463524Y-13212667D01*
X17482571Y-13203143D01*
X17511143Y-13203143D01*
X17530190Y-13212667D01*
X17606381Y-13412667D02*
X17615905Y-13403143D01*
X17634952Y-13374571D01*
X17644476Y-13355524D01*
X17654000Y-13326952D01*
X17663524Y-13279333D01*
X17663524Y-13241238D01*
X17654000Y-13193619D01*
X17644476Y-13165048D01*
X17634952Y-13146000D01*
X17615905Y-13117428D01*
X17606381Y-13107905D01*
D12*
X12644000Y-13510000D02*
G75*
G03*
X12644000Y-13510000I-75000J0D01*
G01*
D10*
X13006381Y-13600476D02*
X12892095Y-13600476D01*
X12949238Y-13600476D02*
X12949238Y-13400476D01*
X12930190Y-13429048D01*
X12911143Y-13448095D01*
X12892095Y-13457619D01*
X13092095Y-13581428D02*
X13101619Y-13590952D01*
X13092095Y-13600476D01*
X13082571Y-13590952D01*
X13092095Y-13581428D01*
X13092095Y-13600476D01*
X13282571Y-13400476D02*
X13187333Y-13400476D01*
X13177809Y-13495714D01*
X13187333Y-13486190D01*
X13206381Y-13476667D01*
X13254000Y-13476667D01*
X13273048Y-13486190D01*
X13282571Y-13495714D01*
X13292095Y-13514762D01*
X13292095Y-13562381D01*
X13282571Y-13581428D01*
X13273048Y-13590952D01*
X13254000Y-13600476D01*
X13206381Y-13600476D01*
X13187333Y-13590952D01*
X13177809Y-13581428D01*
X13415905Y-13400476D02*
X13434952Y-13400476D01*
X13454000Y-13410000D01*
X13463524Y-13419524D01*
X13473048Y-13438571D01*
X13482571Y-13476667D01*
X13482571Y-13524286D01*
X13473048Y-13562381D01*
X13463524Y-13581428D01*
X13454000Y-13590952D01*
X13434952Y-13600476D01*
X13415905Y-13600476D01*
X13396857Y-13590952D01*
X13387333Y-13581428D01*
X13377809Y-13562381D01*
X13368286Y-13524286D01*
X13368286Y-13476667D01*
X13377809Y-13438571D01*
X13387333Y-13419524D01*
X13396857Y-13410000D01*
X13415905Y-13400476D01*
X13606381Y-13400476D02*
X13625428Y-13400476D01*
X13644476Y-13410000D01*
X13654000Y-13419524D01*
X13663524Y-13438571D01*
X13673048Y-13476667D01*
X13673048Y-13524286D01*
X13663524Y-13562381D01*
X13654000Y-13581428D01*
X13644476Y-13590952D01*
X13625428Y-13600476D01*
X13606381Y-13600476D01*
X13587333Y-13590952D01*
X13577809Y-13581428D01*
X13568286Y-13562381D01*
X13558762Y-13524286D01*
X13558762Y-13476667D01*
X13568286Y-13438571D01*
X13577809Y-13419524D01*
X13587333Y-13410000D01*
X13606381Y-13400476D01*
X13758762Y-13600476D02*
X13758762Y-13467143D01*
X13758762Y-13486190D02*
X13768286Y-13476667D01*
X13787333Y-13467143D01*
X13815905Y-13467143D01*
X13834952Y-13476667D01*
X13844476Y-13495714D01*
X13844476Y-13600476D01*
X13844476Y-13495714D02*
X13854000Y-13476667D01*
X13873048Y-13467143D01*
X13901619Y-13467143D01*
X13920667Y-13476667D01*
X13930190Y-13495714D01*
X13930190Y-13600476D01*
X14025428Y-13600476D02*
X14025428Y-13467143D01*
X14025428Y-13486190D02*
X14034952Y-13476667D01*
X14054000Y-13467143D01*
X14082571Y-13467143D01*
X14101619Y-13476667D01*
X14111143Y-13495714D01*
X14111143Y-13600476D01*
X14111143Y-13495714D02*
X14120667Y-13476667D01*
X14139714Y-13467143D01*
X14168286Y-13467143D01*
X14187333Y-13476667D01*
X14196857Y-13495714D01*
X14196857Y-13600476D01*
X14587333Y-13390952D02*
X14415905Y-13648095D01*
X14844476Y-13400476D02*
X14863524Y-13400476D01*
X14882571Y-13410000D01*
X14892095Y-13419524D01*
X14901619Y-13438571D01*
X14911143Y-13476667D01*
X14911143Y-13524286D01*
X14901619Y-13562381D01*
X14892095Y-13581428D01*
X14882571Y-13590952D01*
X14863524Y-13600476D01*
X14844476Y-13600476D01*
X14825428Y-13590952D01*
X14815905Y-13581428D01*
X14806381Y-13562381D01*
X14796857Y-13524286D01*
X14796857Y-13476667D01*
X14806381Y-13438571D01*
X14815905Y-13419524D01*
X14825428Y-13410000D01*
X14844476Y-13400476D01*
X14996857Y-13581428D02*
X15006381Y-13590952D01*
X14996857Y-13600476D01*
X14987333Y-13590952D01*
X14996857Y-13581428D01*
X14996857Y-13600476D01*
X15130190Y-13400476D02*
X15149238Y-13400476D01*
X15168286Y-13410000D01*
X15177809Y-13419524D01*
X15187333Y-13438571D01*
X15196857Y-13476667D01*
X15196857Y-13524286D01*
X15187333Y-13562381D01*
X15177809Y-13581428D01*
X15168286Y-13590952D01*
X15149238Y-13600476D01*
X15130190Y-13600476D01*
X15111143Y-13590952D01*
X15101619Y-13581428D01*
X15092095Y-13562381D01*
X15082571Y-13524286D01*
X15082571Y-13476667D01*
X15092095Y-13438571D01*
X15101619Y-13419524D01*
X15111143Y-13410000D01*
X15130190Y-13400476D01*
X15377809Y-13400476D02*
X15282571Y-13400476D01*
X15273048Y-13495714D01*
X15282571Y-13486190D01*
X15301619Y-13476667D01*
X15349238Y-13476667D01*
X15368286Y-13486190D01*
X15377809Y-13495714D01*
X15387333Y-13514762D01*
X15387333Y-13562381D01*
X15377809Y-13581428D01*
X15368286Y-13590952D01*
X15349238Y-13600476D01*
X15301619Y-13600476D01*
X15282571Y-13590952D01*
X15273048Y-13581428D01*
X15482571Y-13600476D02*
X15520667Y-13600476D01*
X15539714Y-13590952D01*
X15549238Y-13581428D01*
X15568286Y-13552857D01*
X15577809Y-13514762D01*
X15577809Y-13438571D01*
X15568286Y-13419524D01*
X15558762Y-13410000D01*
X15539714Y-13400476D01*
X15501619Y-13400476D01*
X15482571Y-13410000D01*
X15473048Y-13419524D01*
X15463524Y-13438571D01*
X15463524Y-13486190D01*
X15473048Y-13505238D01*
X15482571Y-13514762D01*
X15501619Y-13524286D01*
X15539714Y-13524286D01*
X15558762Y-13514762D01*
X15568286Y-13505238D01*
X15577809Y-13486190D01*
X15768286Y-13600476D02*
X15654000Y-13600476D01*
X15711143Y-13600476D02*
X15711143Y-13400476D01*
X15692095Y-13429048D01*
X15673048Y-13448095D01*
X15654000Y-13457619D01*
X15844476Y-13400476D02*
X15844476Y-13438571D01*
X15920667Y-13400476D02*
X15920667Y-13438571D01*
X16215905Y-13676667D02*
X16206381Y-13667143D01*
X16187333Y-13638571D01*
X16177809Y-13619524D01*
X16168286Y-13590952D01*
X16158762Y-13543333D01*
X16158762Y-13505238D01*
X16168286Y-13457619D01*
X16177809Y-13429048D01*
X16187333Y-13410000D01*
X16206381Y-13381428D01*
X16215905Y-13371905D01*
X16377809Y-13467143D02*
X16377809Y-13600476D01*
X16330190Y-13390952D02*
X16282571Y-13533809D01*
X16406381Y-13533809D01*
X16634952Y-13600476D02*
X16634952Y-13400476D01*
X16720667Y-13600476D02*
X16720667Y-13495714D01*
X16711143Y-13476667D01*
X16692095Y-13467143D01*
X16663524Y-13467143D01*
X16644476Y-13476667D01*
X16634952Y-13486190D01*
X16844476Y-13600476D02*
X16825429Y-13590952D01*
X16815905Y-13581428D01*
X16806381Y-13562381D01*
X16806381Y-13505238D01*
X16815905Y-13486190D01*
X16825429Y-13476667D01*
X16844476Y-13467143D01*
X16873048Y-13467143D01*
X16892095Y-13476667D01*
X16901619Y-13486190D01*
X16911143Y-13505238D01*
X16911143Y-13562381D01*
X16901619Y-13581428D01*
X16892095Y-13590952D01*
X16873048Y-13600476D01*
X16844476Y-13600476D01*
X17025429Y-13600476D02*
X17006381Y-13590952D01*
X16996857Y-13571905D01*
X16996857Y-13400476D01*
X17177810Y-13590952D02*
X17158762Y-13600476D01*
X17120667Y-13600476D01*
X17101619Y-13590952D01*
X17092095Y-13571905D01*
X17092095Y-13495714D01*
X17101619Y-13476667D01*
X17120667Y-13467143D01*
X17158762Y-13467143D01*
X17177810Y-13476667D01*
X17187333Y-13495714D01*
X17187333Y-13514762D01*
X17092095Y-13533809D01*
X17263524Y-13590952D02*
X17282571Y-13600476D01*
X17320667Y-13600476D01*
X17339714Y-13590952D01*
X17349238Y-13571905D01*
X17349238Y-13562381D01*
X17339714Y-13543333D01*
X17320667Y-13533809D01*
X17292095Y-13533809D01*
X17273048Y-13524286D01*
X17263524Y-13505238D01*
X17263524Y-13495714D01*
X17273048Y-13476667D01*
X17292095Y-13467143D01*
X17320667Y-13467143D01*
X17339714Y-13476667D01*
X17415905Y-13676667D02*
X17425429Y-13667143D01*
X17444476Y-13638571D01*
X17454000Y-13619524D01*
X17463524Y-13590952D01*
X17473048Y-13543333D01*
X17473048Y-13505238D01*
X17463524Y-13457619D01*
X17454000Y-13429048D01*
X17444476Y-13410000D01*
X17425429Y-13381428D01*
X17415905Y-13371905D01*
M02*
