G04 #@! TF.GenerationSoftware,KiCad,Pcbnew,6.0.10+dfsg-1~bpo11+1*
G04 #@! TF.ProjectId,mag,6d61672e-6b69-4636-9164-5f7063625858,rev?*
G04 #@! TF.SameCoordinates,Original*
G04 #@! TF.FileFunction,Legend,Top*
G04 #@! TF.FilePolarity,Positive*
%FSLAX46Y46*%
G04 Gerber Fmt 4.6, Leading zero omitted, Abs format (unit mm)*
%MOMM*%
%LPD*%
G01*
G04 APERTURE LIST*
G04 #@! TA.AperFunction,Profile*
%ADD10C,0.120000*%
G04 #@! TD*
%ADD11C,0.500000*%
%ADD12C,0.900000*%
%ADD13C,2.500000*%
%ADD14C,1.500000*%
G04 APERTURE END LIST*
G36*
X132788126Y-125948989D02*
G01*
X132606615Y-125893929D01*
X132439333Y-125804514D01*
X132292709Y-125684183D01*
X132172378Y-125537559D01*
X132082964Y-125370277D01*
X132027903Y-125188766D01*
X132009311Y-125000000D01*
X132027903Y-124811234D01*
X132082964Y-124629723D01*
X132088696Y-124619000D01*
X132977091Y-124619000D01*
X133027767Y-124784720D01*
X133079782Y-124943743D01*
X133133137Y-125096069D01*
X133187831Y-125241697D01*
X133261253Y-125423333D01*
X133333881Y-125588830D01*
X133405716Y-125738188D01*
X133650984Y-125738188D01*
X133724009Y-125588830D01*
X133800209Y-125423333D01*
X133879584Y-125241697D01*
X133938967Y-125096069D01*
X133995670Y-124943743D01*
X134049695Y-124784720D01*
X134101041Y-124619000D01*
X133803384Y-124619000D01*
X133778679Y-124712464D01*
X133747425Y-124811881D01*
X133712302Y-124914573D01*
X133675987Y-125017859D01*
X133638780Y-125119955D01*
X133600978Y-125219075D01*
X133531922Y-125397669D01*
X133466437Y-125219075D01*
X133432207Y-125119955D01*
X133398572Y-125017859D01*
X133366127Y-124914573D01*
X133335469Y-124811881D01*
X133307787Y-124712464D01*
X133284272Y-124619000D01*
X132977091Y-124619000D01*
X132088696Y-124619000D01*
X132172378Y-124462441D01*
X132202187Y-124426119D01*
X134236772Y-124426119D01*
X134382028Y-124630906D01*
X134532047Y-124518988D01*
X134677303Y-124485650D01*
X134815416Y-124534466D01*
X134870184Y-124673769D01*
X134826131Y-124799975D01*
X134714213Y-124928563D01*
X134643966Y-124996726D01*
X134568956Y-125067866D01*
X134493947Y-125143470D01*
X134423700Y-125225028D01*
X134361787Y-125313432D01*
X134311781Y-125409575D01*
X134278741Y-125514350D01*
X134267728Y-125628650D01*
X134266537Y-125678656D01*
X134272491Y-125738188D01*
X135234516Y-125738188D01*
X135234516Y-125550069D01*
X135708384Y-125550069D01*
X135726244Y-125641747D01*
X135773869Y-125708422D01*
X135841734Y-125750094D01*
X135922697Y-125764381D01*
X136070334Y-125709613D01*
X136134628Y-125550069D01*
X136070334Y-125395288D01*
X135922697Y-125340519D01*
X135841734Y-125354806D01*
X135773869Y-125395288D01*
X135726244Y-125460772D01*
X135708384Y-125550069D01*
X135234516Y-125550069D01*
X135234516Y-125495300D01*
X134601103Y-125495300D01*
X134626106Y-125416719D01*
X134686828Y-125332184D01*
X134763028Y-125251222D01*
X134834466Y-125183356D01*
X134955909Y-125064294D01*
X135011472Y-124997619D01*
X136598972Y-124997619D01*
X136607157Y-125180380D01*
X136631714Y-125338138D01*
X136672642Y-125470892D01*
X136729941Y-125578644D01*
X136830482Y-125684477D01*
X136957482Y-125747977D01*
X137110941Y-125769144D01*
X137264399Y-125747977D01*
X137391399Y-125684477D01*
X137491941Y-125578644D01*
X137549239Y-125470892D01*
X137590167Y-125338138D01*
X137614724Y-125180380D01*
X137622909Y-124997619D01*
X137614724Y-124815974D01*
X137590167Y-124659184D01*
X137549239Y-124527247D01*
X137491941Y-124420166D01*
X137391399Y-124314994D01*
X137264399Y-124251891D01*
X137110941Y-124230856D01*
X136959864Y-124252023D01*
X136833657Y-124315523D01*
X136732322Y-124421356D01*
X136673981Y-124528810D01*
X136632309Y-124660672D01*
X136607306Y-124816941D01*
X136598972Y-124997619D01*
X135011472Y-124997619D01*
X135063066Y-124935706D01*
X135139266Y-124798784D01*
X135167841Y-124652338D01*
X135129741Y-124467791D01*
X135027347Y-124335631D01*
X134879709Y-124257050D01*
X134705878Y-124230856D01*
X134581755Y-124242763D01*
X134457037Y-124278481D01*
X134339463Y-124339203D01*
X134236772Y-124426119D01*
X132202187Y-124426119D01*
X132292709Y-124315817D01*
X132439333Y-124195486D01*
X132606615Y-124106071D01*
X132788126Y-124051011D01*
X132976892Y-124032419D01*
X137623108Y-124032419D01*
X137811874Y-124051011D01*
X137993385Y-124106071D01*
X138160667Y-124195486D01*
X138307291Y-124315817D01*
X138427622Y-124462441D01*
X138517036Y-124629723D01*
X138572097Y-124811234D01*
X138590689Y-125000000D01*
X138572097Y-125188766D01*
X138517036Y-125370277D01*
X138427622Y-125537559D01*
X138307291Y-125684183D01*
X138160667Y-125804514D01*
X137993385Y-125893929D01*
X137811874Y-125948989D01*
X137623108Y-125967581D01*
X132976892Y-125967581D01*
X132788126Y-125948989D01*
G37*
G36*
X137110941Y-125516731D02*
G01*
X137005570Y-125483691D01*
X136927584Y-125384572D01*
X136891866Y-125282840D01*
X136870434Y-125153855D01*
X136863291Y-124997619D01*
X136864389Y-124973806D01*
X136979972Y-124973806D01*
X137015691Y-125084534D01*
X137113322Y-125130969D01*
X137207381Y-125084534D01*
X137244291Y-124973806D01*
X137207381Y-124861888D01*
X137113322Y-124814263D01*
X137015691Y-124861888D01*
X136979972Y-124973806D01*
X136864389Y-124973806D01*
X136870434Y-124842705D01*
X136891866Y-124714515D01*
X136927584Y-124613047D01*
X137005570Y-124513927D01*
X137110941Y-124480888D01*
X137217799Y-124513927D01*
X137295487Y-124613047D01*
X137330545Y-124714515D01*
X137351579Y-124842705D01*
X137358591Y-124997619D01*
X137351579Y-125153855D01*
X137330545Y-125282840D01*
X137295487Y-125384572D01*
X137217799Y-125483691D01*
X137113322Y-125515995D01*
X137110941Y-125516731D01*
G37*
D10*
X126500000Y-100000000D02*
X144500000Y-100000000D01*
X144500000Y-100000000D02*
X144500000Y-126000000D01*
X144500000Y-126000000D02*
X126500000Y-126000000D01*
X126500000Y-126000000D02*
X126500000Y-100000000D01*
D11*
X133500000Y-102000000D02*
X133500000Y-104000000D01*
X137500000Y-102000000D02*
X135500000Y-102000000D01*
X141500000Y-102000000D02*
X139500000Y-102000000D01*
X139500000Y-104000000D02*
X139500000Y-102000000D01*
X141500000Y-102000000D02*
X141500000Y-105000000D01*
X135500000Y-104000000D02*
X133500000Y-104000000D01*
X129500000Y-105000000D02*
X129500000Y-102000000D01*
X135500000Y-104000000D02*
X135500000Y-102000000D01*
X139500000Y-104000000D02*
X137500000Y-104000000D01*
X137500000Y-102000000D02*
X137500000Y-104000000D01*
X133500000Y-102000000D02*
X129500000Y-102000000D01*
X131500000Y-105000000D02*
X131500000Y-102000000D01*
G36*
X131287914Y-107948989D02*
G01*
X131106402Y-107893929D01*
X130939120Y-107804514D01*
X130858301Y-107738188D01*
X131476878Y-107738188D01*
X132422234Y-107738188D01*
X132422234Y-107657225D01*
X132612734Y-107657225D01*
X132777041Y-107729853D01*
X132905033Y-107759321D01*
X133069934Y-107769144D01*
X133237019Y-107756576D01*
X133303410Y-107738188D01*
X133836697Y-107738188D01*
X134129591Y-107738188D01*
X134129591Y-107271463D01*
X135167816Y-107271463D01*
X135820278Y-107271463D01*
X135820278Y-106983331D01*
X135167816Y-106983331D01*
X135167816Y-107271463D01*
X134129591Y-107271463D01*
X134129591Y-107240506D01*
X134234366Y-107240506D01*
X134410446Y-107227409D01*
X134557686Y-107188119D01*
X134676088Y-107122634D01*
X134762739Y-107027781D01*
X134814729Y-106900384D01*
X134832059Y-106740444D01*
X134814861Y-106582091D01*
X134810467Y-106571375D01*
X136203659Y-106571375D01*
X136298909Y-106814263D01*
X136444166Y-106755922D01*
X136596566Y-106671388D01*
X136596566Y-107495300D01*
X136287003Y-107495300D01*
X136287003Y-107738188D01*
X137182353Y-107738188D01*
X137182353Y-107495300D01*
X136889459Y-107495300D01*
X136889459Y-106426119D01*
X137382378Y-106426119D01*
X137527634Y-106630906D01*
X137677653Y-106518988D01*
X137822909Y-106485650D01*
X137961022Y-106534466D01*
X138015791Y-106673769D01*
X137971737Y-106799975D01*
X137859819Y-106928563D01*
X137789572Y-106996726D01*
X137714563Y-107067866D01*
X137639553Y-107143470D01*
X137569306Y-107225028D01*
X137507394Y-107313432D01*
X137457388Y-107409575D01*
X137424348Y-107514350D01*
X137413334Y-107628650D01*
X137412144Y-107678656D01*
X137418097Y-107738188D01*
X138380122Y-107738188D01*
X138620628Y-107738188D01*
X138913522Y-107738188D01*
X138913522Y-107107156D01*
X139446922Y-107107156D01*
X139446922Y-106864269D01*
X138913522Y-106864269D01*
X138913522Y-106507081D01*
X139523122Y-106507081D01*
X139523122Y-106264194D01*
X138620628Y-106264194D01*
X138620628Y-107738188D01*
X138380122Y-107738188D01*
X138380122Y-107495300D01*
X137746709Y-107495300D01*
X137771713Y-107416719D01*
X137832434Y-107332184D01*
X137908634Y-107251222D01*
X137980072Y-107183356D01*
X138101516Y-107064294D01*
X138208672Y-106935706D01*
X138284872Y-106798784D01*
X138313447Y-106652338D01*
X138275347Y-106467791D01*
X138172953Y-106335631D01*
X138025316Y-106257050D01*
X137851484Y-106230856D01*
X137727362Y-106242763D01*
X137602644Y-106278481D01*
X137485070Y-106339203D01*
X137382378Y-106426119D01*
X136889459Y-106426119D01*
X136889459Y-106264194D01*
X136689434Y-106264194D01*
X136587041Y-106357063D01*
X136460834Y-106442788D01*
X136327484Y-106516606D01*
X136203659Y-106571375D01*
X134810467Y-106571375D01*
X134763268Y-106456281D01*
X134677278Y-106363016D01*
X134560068Y-106298854D01*
X134414811Y-106260357D01*
X134241509Y-106247525D01*
X134148641Y-106249906D01*
X134041484Y-106255859D01*
X133933138Y-106266575D01*
X133836697Y-106283244D01*
X133836697Y-107738188D01*
X133303410Y-107738188D01*
X133373147Y-107718873D01*
X133478319Y-107656034D01*
X133579224Y-107519410D01*
X133612859Y-107335756D01*
X133602739Y-107224730D01*
X133572378Y-107134541D01*
X133468794Y-107001191D01*
X133330681Y-106915466D01*
X133186616Y-106857125D01*
X133094938Y-106821406D01*
X133011594Y-106777353D01*
X132950872Y-106720203D01*
X132927059Y-106645194D01*
X132952989Y-106551267D01*
X133030776Y-106494910D01*
X133160422Y-106476125D01*
X133328300Y-106499938D01*
X133460459Y-106557088D01*
X133546184Y-106330869D01*
X133375925Y-106261813D01*
X133266090Y-106238595D01*
X133138991Y-106230856D01*
X132993073Y-106243821D01*
X132869645Y-106282715D01*
X132768706Y-106347538D01*
X132667801Y-106486841D01*
X132634166Y-106671388D01*
X132672266Y-106846409D01*
X132768706Y-106964281D01*
X132898484Y-107042863D01*
X133036597Y-107097631D01*
X133136609Y-107139303D01*
X133227097Y-107189309D01*
X133293772Y-107252413D01*
X133319966Y-107333375D01*
X133309250Y-107403622D01*
X133269959Y-107465534D01*
X133192569Y-107508397D01*
X133069934Y-107523875D01*
X132951170Y-107515541D01*
X132852050Y-107490538D01*
X132698459Y-107419100D01*
X132612734Y-107657225D01*
X132422234Y-107657225D01*
X132422234Y-107495300D01*
X131769772Y-107495300D01*
X131769772Y-107080962D01*
X132291266Y-107080962D01*
X132291266Y-106838075D01*
X131769772Y-106838075D01*
X131769772Y-106507081D01*
X132369847Y-106507081D01*
X132369847Y-106264194D01*
X131476878Y-106264194D01*
X131476878Y-107738188D01*
X130858301Y-107738188D01*
X130792496Y-107684183D01*
X130672165Y-107537559D01*
X130582751Y-107370277D01*
X130527690Y-107188766D01*
X130509098Y-107000000D01*
X130527690Y-106811234D01*
X130582751Y-106629723D01*
X130672165Y-106462441D01*
X130792496Y-106315817D01*
X130939120Y-106195486D01*
X131106402Y-106106071D01*
X131287914Y-106051011D01*
X131476680Y-106032419D01*
X139523320Y-106032419D01*
X139712086Y-106051011D01*
X139893598Y-106106071D01*
X140060880Y-106195486D01*
X140207504Y-106315817D01*
X140327835Y-106462441D01*
X140417249Y-106629723D01*
X140472310Y-106811234D01*
X140490902Y-107000000D01*
X140472310Y-107188766D01*
X140417249Y-107370277D01*
X140327835Y-107537559D01*
X140207504Y-107684183D01*
X140060880Y-107804514D01*
X139893598Y-107893929D01*
X139712086Y-107948989D01*
X139523320Y-107967581D01*
X131476680Y-107967581D01*
X131287914Y-107948989D01*
G37*
G36*
X134379920Y-106515713D02*
G01*
X134461775Y-106555897D01*
X134514460Y-106628227D01*
X134532022Y-106738063D01*
X134514163Y-106853851D01*
X134460584Y-106929753D01*
X134371883Y-106971723D01*
X134248653Y-106985713D01*
X134129591Y-106985713D01*
X134129591Y-106509463D01*
X134202219Y-106503509D01*
X134274847Y-106502319D01*
X134379920Y-106515713D01*
G37*
%LPC*%
D12*
X131500000Y-125000000D03*
X128500000Y-106000000D03*
X142500000Y-103000000D03*
D13*
X128000000Y-100000000D03*
X143000000Y-100000000D03*
X143000000Y-126000000D03*
X128000000Y-126000000D03*
D14*
X131500000Y-110000000D03*
X139500000Y-122000000D03*
X135500000Y-120000000D03*
X133500000Y-114000000D03*
X131500000Y-116000000D03*
X139500000Y-114000000D03*
X137500000Y-110000000D03*
X135500000Y-122000000D03*
X131500000Y-114000000D03*
X139500000Y-116000000D03*
X133500000Y-120000000D03*
X137500000Y-120000000D03*
X139500000Y-118000000D03*
X139500000Y-110000000D03*
X131500000Y-122000000D03*
X137500000Y-118000000D03*
X139500000Y-120000000D03*
X131500000Y-112000000D03*
X133500000Y-112000000D03*
X133500000Y-110000000D03*
X137500000Y-116000000D03*
X137500000Y-112000000D03*
X137500000Y-122000000D03*
X137500000Y-114000000D03*
X133500000Y-116000000D03*
X133500000Y-118000000D03*
X135500000Y-118000000D03*
X139500000Y-112000000D03*
X133500000Y-122000000D03*
X135500000Y-116000000D03*
X135500000Y-112000000D03*
X135500000Y-110000000D03*
X131500000Y-118000000D03*
X131500000Y-120000000D03*
X135500000Y-114000000D03*
X128500000Y-109600000D03*
X128500000Y-111600000D03*
X128500000Y-113600000D03*
X128500000Y-115600000D03*
X128500000Y-117600000D03*
X128500000Y-119600000D03*
X128500000Y-121600000D03*
X128500000Y-123600000D03*
X142500000Y-123600000D03*
X142500000Y-121600000D03*
X142500000Y-119600000D03*
X142500000Y-117600000D03*
X142500000Y-115600000D03*
X142500000Y-113600000D03*
X142500000Y-111600000D03*
X142500000Y-109600000D03*
M02*
