G04 #@! TF.GenerationSoftware,KiCad,Pcbnew,6.0.10+dfsg-1~bpo11+1*
G04 #@! TF.ProjectId,mag,6d61672e-6b69-4636-9164-5f7063625858,rev?*
G04 #@! TF.SameCoordinates,Original*
G04 #@! TF.FileFunction,Legend,Bot*
G04 #@! TF.FilePolarity,Positive*
%FSLAX46Y46*%
G04 Gerber Fmt 4.6, Leading zero omitted, Abs format (unit mm)*
%MOMM*%
%LPD*%
G01*
G04 APERTURE LIST*
G04 #@! TA.AperFunction,Profile*
%ADD10C,0.120000*%
G04 #@! TD*
%ADD11C,0.900000*%
%ADD12C,2.500000*%
%ADD13C,1.500000*%
%ADD14O,2.000000X1.500000*%
G04 APERTURE END LIST*
D10*
X126500000Y-100000000D02*
X144500000Y-100000000D01*
X144500000Y-100000000D02*
X144500000Y-126000000D01*
X144500000Y-126000000D02*
X126500000Y-126000000D01*
X126500000Y-126000000D02*
X126500000Y-100000000D01*
G36*
X132839323Y-125948989D02*
G01*
X132657812Y-125893929D01*
X132490530Y-125804514D01*
X132343906Y-125684183D01*
X132223575Y-125537559D01*
X132134161Y-125370277D01*
X132112854Y-125300038D01*
X133028288Y-125300038D01*
X133061625Y-125488156D01*
X133164019Y-125636984D01*
X133242600Y-125692944D01*
X133340231Y-125734616D01*
X133457508Y-125760512D01*
X133595025Y-125769144D01*
X133710516Y-125760809D01*
X133827197Y-125740569D01*
X133836613Y-125738188D01*
X134192719Y-125738188D01*
X135154744Y-125738188D01*
X135160697Y-125678656D01*
X135159506Y-125628650D01*
X135148493Y-125514350D01*
X135115453Y-125409575D01*
X135065447Y-125313432D01*
X135003534Y-125225028D01*
X134933288Y-125143470D01*
X134858278Y-125067866D01*
X134784211Y-124997619D01*
X135376200Y-124997619D01*
X135384386Y-125180380D01*
X135408942Y-125338138D01*
X135449870Y-125470892D01*
X135507169Y-125578644D01*
X135607710Y-125684477D01*
X135734710Y-125747977D01*
X135888169Y-125769144D01*
X136041627Y-125747977D01*
X136061205Y-125738188D01*
X136573969Y-125738188D01*
X137535994Y-125738188D01*
X137541947Y-125678656D01*
X137540756Y-125628650D01*
X137529743Y-125514350D01*
X137496703Y-125409575D01*
X137446697Y-125313432D01*
X137384784Y-125225028D01*
X137314538Y-125143470D01*
X137239528Y-125067866D01*
X137164519Y-124996726D01*
X137094272Y-124928563D01*
X136982353Y-124799975D01*
X136938300Y-124673769D01*
X136993069Y-124534466D01*
X137131181Y-124485650D01*
X137276438Y-124518988D01*
X137426456Y-124630906D01*
X137571713Y-124426119D01*
X137469021Y-124339203D01*
X137351447Y-124278481D01*
X137226729Y-124242763D01*
X137102606Y-124230856D01*
X136928775Y-124257050D01*
X136781138Y-124335631D01*
X136678744Y-124467791D01*
X136640644Y-124652338D01*
X136669219Y-124798784D01*
X136745419Y-124935706D01*
X136852575Y-125064294D01*
X136974019Y-125183356D01*
X137045456Y-125251222D01*
X137121656Y-125332184D01*
X137182378Y-125416719D01*
X137207381Y-125495300D01*
X136573969Y-125495300D01*
X136573969Y-125738188D01*
X136061205Y-125738188D01*
X136168627Y-125684477D01*
X136269169Y-125578644D01*
X136326468Y-125470892D01*
X136367395Y-125338138D01*
X136391952Y-125180380D01*
X136400138Y-124997619D01*
X136391803Y-124816941D01*
X136366800Y-124660672D01*
X136325128Y-124528810D01*
X136266788Y-124421356D01*
X136165452Y-124315523D01*
X136039246Y-124252023D01*
X135888169Y-124230856D01*
X135734710Y-124251891D01*
X135607710Y-124314994D01*
X135507169Y-124420166D01*
X135449870Y-124527247D01*
X135408942Y-124659184D01*
X135384386Y-124815974D01*
X135376200Y-124997619D01*
X134784211Y-124997619D01*
X134783269Y-124996726D01*
X134713022Y-124928563D01*
X134601103Y-124799975D01*
X134557050Y-124673769D01*
X134611819Y-124534466D01*
X134749931Y-124485650D01*
X134895188Y-124518988D01*
X135045206Y-124630906D01*
X135190463Y-124426119D01*
X135087771Y-124339203D01*
X134970197Y-124278481D01*
X134845479Y-124242763D01*
X134721356Y-124230856D01*
X134547525Y-124257050D01*
X134399888Y-124335631D01*
X134297494Y-124467791D01*
X134259394Y-124652338D01*
X134287969Y-124798784D01*
X134364169Y-124935706D01*
X134471325Y-125064294D01*
X134592769Y-125183356D01*
X134664206Y-125251222D01*
X134740406Y-125332184D01*
X134801128Y-125416719D01*
X134826131Y-125495300D01*
X134192719Y-125495300D01*
X134192719Y-125738188D01*
X133836613Y-125738188D01*
X133930781Y-125714375D01*
X134004600Y-125688181D01*
X133947450Y-125442913D01*
X133805766Y-125492919D01*
X133710218Y-125512564D01*
X133597406Y-125519113D01*
X133469712Y-125503039D01*
X133386666Y-125454819D01*
X133325944Y-125295275D01*
X133349161Y-125196155D01*
X133418813Y-125132159D01*
X133524183Y-125097334D01*
X133654556Y-125085725D01*
X133745044Y-125085725D01*
X133745044Y-124842838D01*
X133635506Y-124842838D01*
X133545019Y-124833313D01*
X133464056Y-124802356D01*
X133405716Y-124745206D01*
X133383094Y-124654719D01*
X133431909Y-124527322D01*
X133566450Y-124480888D01*
X133731947Y-124508272D01*
X133873631Y-124576138D01*
X133978406Y-124361825D01*
X133808147Y-124274909D01*
X133695335Y-124241870D01*
X133568831Y-124230856D01*
X133453043Y-124238595D01*
X133353328Y-124261813D01*
X133202119Y-124348728D01*
X133114013Y-124480888D01*
X133085438Y-124645194D01*
X133135444Y-124814263D01*
X133268794Y-124938088D01*
X133167293Y-124997023D01*
X133091391Y-125078581D01*
X133044063Y-125180380D01*
X133028288Y-125300038D01*
X132112854Y-125300038D01*
X132079100Y-125188766D01*
X132060508Y-125000000D01*
X132079100Y-124811234D01*
X132134161Y-124629723D01*
X132223575Y-124462441D01*
X132343906Y-124315817D01*
X132490530Y-124195486D01*
X132657812Y-124106071D01*
X132839323Y-124051011D01*
X133028089Y-124032419D01*
X137571911Y-124032419D01*
X137760677Y-124051011D01*
X137942188Y-124106071D01*
X138109470Y-124195486D01*
X138256094Y-124315817D01*
X138376425Y-124462441D01*
X138465839Y-124629723D01*
X138520900Y-124811234D01*
X138539492Y-125000000D01*
X138520900Y-125188766D01*
X138465839Y-125370277D01*
X138376425Y-125537559D01*
X138256094Y-125684183D01*
X138109470Y-125804514D01*
X137942188Y-125893929D01*
X137760677Y-125948989D01*
X137571911Y-125967581D01*
X133028089Y-125967581D01*
X132839323Y-125948989D01*
G37*
G36*
X135703622Y-125384572D02*
G01*
X135668565Y-125282840D01*
X135647530Y-125153855D01*
X135640519Y-124997619D01*
X135641597Y-124973806D01*
X135754819Y-124973806D01*
X135791728Y-125084534D01*
X135885788Y-125130969D01*
X135983419Y-125084534D01*
X136019138Y-124973806D01*
X135983419Y-124861888D01*
X135885788Y-124814263D01*
X135791728Y-124861888D01*
X135754819Y-124973806D01*
X135641597Y-124973806D01*
X135647530Y-124842705D01*
X135668565Y-124714515D01*
X135703622Y-124613047D01*
X135781310Y-124513927D01*
X135888169Y-124480888D01*
X135993539Y-124513927D01*
X136071525Y-124613047D01*
X136107244Y-124714515D01*
X136128675Y-124842705D01*
X136135819Y-124997619D01*
X136128675Y-125153855D01*
X136107244Y-125282840D01*
X136071525Y-125384572D01*
X135993539Y-125483691D01*
X135888169Y-125516731D01*
X135885788Y-125515995D01*
X135781310Y-125483691D01*
X135703622Y-125384572D01*
G37*
%LPC*%
D11*
X142500000Y-103000000D03*
X131500000Y-125000000D03*
X128500000Y-106000000D03*
D12*
X128000000Y-100000000D03*
X143000000Y-100000000D03*
X143000000Y-126000000D03*
X128000000Y-126000000D03*
D13*
X139500000Y-118000000D03*
X135500000Y-122000000D03*
X139500000Y-116000000D03*
X135500000Y-118000000D03*
X139500000Y-112000000D03*
X137500000Y-116000000D03*
X137500000Y-122000000D03*
X133500000Y-122000000D03*
X139500000Y-122000000D03*
X137500000Y-112000000D03*
X135500000Y-110000000D03*
X131500000Y-114000000D03*
X137500000Y-110000000D03*
X135500000Y-112000000D03*
X139500000Y-114000000D03*
X131500000Y-116000000D03*
X139500000Y-110000000D03*
X135500000Y-116000000D03*
X137500000Y-120000000D03*
X133500000Y-118000000D03*
X133500000Y-114000000D03*
X137500000Y-114000000D03*
X131500000Y-118000000D03*
X135500000Y-120000000D03*
X131500000Y-112000000D03*
X133500000Y-110000000D03*
G36*
G01*
X130500000Y-122000000D02*
X130500000Y-110000000D01*
G75*
G02*
X131500000Y-109000000I1000000J0D01*
G01*
X139500000Y-109000000D01*
G75*
G02*
X140500000Y-110000000I0J-1000000D01*
G01*
X140500000Y-122000000D01*
G75*
G02*
X139500000Y-123000000I-1000000J0D01*
G01*
X131500000Y-123000000D01*
G75*
G02*
X130500000Y-122000000I0J1000000D01*
G01*
G37*
X131500000Y-110000000D03*
X133500000Y-116000000D03*
X137500000Y-118000000D03*
X131500000Y-120000000D03*
X135500000Y-114000000D03*
X133500000Y-112000000D03*
X133500000Y-120000000D03*
X131500000Y-122000000D03*
X139500000Y-120000000D03*
D14*
X128250000Y-109600000D03*
X128250000Y-111600000D03*
X128250000Y-113600000D03*
X128250000Y-115600000D03*
X128250000Y-117600000D03*
X128250000Y-119600000D03*
X128250000Y-121600000D03*
X128250000Y-123600000D03*
X142750000Y-123600000D03*
X142750000Y-121600000D03*
X142750000Y-119600000D03*
X142750000Y-117600000D03*
X142750000Y-115600000D03*
X142750000Y-113600000D03*
X142750000Y-111600000D03*
X142750000Y-109600000D03*
M02*
