G04 #@! TF.GenerationSoftware,KiCad,Pcbnew,6.0.10+dfsg-1~bpo11+1*
G04 #@! TF.ProjectId,mag,6d61672e-6b69-4636-9164-5f7063625858,rev?*
G04 #@! TF.SameCoordinates,Original*
G04 #@! TF.FileFunction,Soldermask,Top*
G04 #@! TF.FilePolarity,Negative*
%FSLAX46Y46*%
G04 Gerber Fmt 4.6, Leading zero omitted, Abs format (unit mm)*
%MOMM*%
%LPD*%
G01*
G04 APERTURE LIST*
G04 #@! TA.AperFunction,Profile*
%ADD10C,0.120000*%
G04 #@! TD*
%ADD11C,0.900000*%
%ADD12C,2.500000*%
%ADD13C,1.500000*%
G04 APERTURE END LIST*
D10*
X126500000Y-100000000D02*
X144500000Y-100000000D01*
X144500000Y-100000000D02*
X144500000Y-126000000D01*
X144500000Y-126000000D02*
X126500000Y-126000000D01*
X126500000Y-126000000D02*
X126500000Y-100000000D01*
D11*
X131500000Y-125000000D03*
X128500000Y-106000000D03*
X142500000Y-103000000D03*
D12*
X128000000Y-100000000D03*
X143000000Y-100000000D03*
X143000000Y-126000000D03*
X128000000Y-126000000D03*
D13*
X131500000Y-110000000D03*
X139500000Y-122000000D03*
X135500000Y-120000000D03*
X133500000Y-114000000D03*
X131500000Y-116000000D03*
X139500000Y-114000000D03*
X137500000Y-110000000D03*
X135500000Y-122000000D03*
X131500000Y-114000000D03*
X139500000Y-116000000D03*
X133500000Y-120000000D03*
X137500000Y-120000000D03*
X139500000Y-118000000D03*
X139500000Y-110000000D03*
X131500000Y-122000000D03*
X137500000Y-118000000D03*
X139500000Y-120000000D03*
X131500000Y-112000000D03*
X133500000Y-112000000D03*
X133500000Y-110000000D03*
X137500000Y-116000000D03*
X137500000Y-112000000D03*
X137500000Y-122000000D03*
X137500000Y-114000000D03*
X133500000Y-116000000D03*
X133500000Y-118000000D03*
X135500000Y-118000000D03*
X139500000Y-112000000D03*
X133500000Y-122000000D03*
X135500000Y-116000000D03*
X135500000Y-112000000D03*
X135500000Y-110000000D03*
X131500000Y-118000000D03*
X131500000Y-120000000D03*
X135500000Y-114000000D03*
X128500000Y-109600000D03*
X128500000Y-111600000D03*
X128500000Y-113600000D03*
X128500000Y-115600000D03*
X128500000Y-117600000D03*
X128500000Y-119600000D03*
X128500000Y-121600000D03*
X128500000Y-123600000D03*
X142500000Y-123600000D03*
X142500000Y-121600000D03*
X142500000Y-119600000D03*
X142500000Y-117600000D03*
X142500000Y-115600000D03*
X142500000Y-113600000D03*
X142500000Y-111600000D03*
X142500000Y-109600000D03*
M02*
