M48
; FORMAT={-:-/ absolute / metric / decimal}
; #@! TF.GenerationSoftware,Kicad,Pcbnew,6.0.10+dfsg-1~bpo11+1
; #@! TF.FileFunction,Plated,1,2,PTH
FMAT,2
METRIC
; #@! TA.AperFunction,Plated,PTH,ComponentDrill
T1C0.850
; #@! TA.AperFunction,Plated,PTH,ComponentDrill
T2C1.000
; #@! TA.AperFunction,Plated,PTH,ComponentDrill
T3C1.500
%
G90
G05
T1
X168.5Y-109.6
X168.5Y-111.6
X168.5Y-113.6
X168.5Y-115.6
X168.5Y-117.6
X168.5Y-119.6
X168.5Y-121.6
X168.5Y-123.6
X182.5Y-109.6
X182.5Y-111.6
X182.5Y-113.6
X182.5Y-115.6
X182.5Y-117.6
X182.5Y-119.6
X182.5Y-121.6
X182.5Y-123.6
T2
X174.252Y-104.11
X174.252Y-106.65
X174.252Y-109.19
X174.252Y-111.73
X174.252Y-114.27
X174.252Y-116.81
X174.252Y-119.35
X174.252Y-121.89
X176.792Y-104.11
X176.792Y-106.65
X176.792Y-109.19
X176.792Y-111.73
X176.792Y-114.27
X176.792Y-116.81
X176.792Y-119.35
X176.792Y-121.89
T3
X168.0Y-100.0
X168.0Y-126.0
X183.0Y-100.0
X183.0Y-126.0
T0
M30
