G04 #@! TF.GenerationSoftware,KiCad,Pcbnew,6.0.10+dfsg-1~bpo11+1*
G04 #@! TF.ProjectId,top,746f702e-6b69-4636-9164-5f7063625858,rev?*
G04 #@! TF.SameCoordinates,Original*
G04 #@! TF.FileFunction,Legend,Bot*
G04 #@! TF.FilePolarity,Positive*
%FSLAX46Y46*%
G04 Gerber Fmt 4.6, Leading zero omitted, Abs format (unit mm)*
%MOMM*%
%LPD*%
G01*
G04 APERTURE LIST*
G04 #@! TA.AperFunction,Profile*
%ADD10C,0.120000*%
G04 #@! TD*
%ADD11O,2.000000X1.500000*%
%ADD12C,0.900000*%
%ADD13C,2.500000*%
%ADD14C,1.700000*%
G04 APERTURE END LIST*
D10*
X166500000Y-100000000D02*
X184500000Y-100000000D01*
X184500000Y-100000000D02*
X184500000Y-126000000D01*
X184500000Y-126000000D02*
X166500000Y-126000000D01*
X166500000Y-126000000D02*
X166500000Y-100000000D01*
G36*
X182608502Y-108503980D02*
G01*
X182361039Y-108638198D01*
X182055769Y-108791419D01*
X181823164Y-108893503D01*
X181700000Y-108927314D01*
X181624817Y-108903285D01*
X181418272Y-108811355D01*
X181127759Y-108667716D01*
X180790667Y-108490334D01*
X180008335Y-108067000D01*
X180007501Y-107622500D01*
X180002202Y-107450556D01*
X179978786Y-107254803D01*
X179943166Y-107179020D01*
X179903338Y-107190367D01*
X179744429Y-107264108D01*
X179523722Y-107383569D01*
X179167778Y-107587098D01*
X178741268Y-107361382D01*
X178314758Y-107135667D01*
X178314297Y-106500667D01*
X180684000Y-106500667D01*
X181213841Y-106500667D01*
X181161980Y-105717500D01*
X181145471Y-105443861D01*
X181139880Y-105193618D01*
X181160917Y-105099457D01*
X181215412Y-105162484D01*
X181310194Y-105383806D01*
X181452093Y-105764532D01*
X181466101Y-105802484D01*
X181594825Y-106089025D01*
X181713063Y-106216032D01*
X181829647Y-106181514D01*
X181953409Y-105983479D01*
X182093179Y-105619934D01*
X182103589Y-105589211D01*
X182206157Y-105301329D01*
X182291922Y-105084970D01*
X182343244Y-104984934D01*
X182354674Y-104997700D01*
X182362989Y-105133428D01*
X182356467Y-105384666D01*
X182335467Y-105717500D01*
X182274690Y-106500667D01*
X182800666Y-106500667D01*
X182800666Y-104214667D01*
X182518987Y-104214667D01*
X182387997Y-104220379D01*
X182287853Y-104259046D01*
X182206330Y-104362523D01*
X182119082Y-104562658D01*
X182001766Y-104891298D01*
X181957282Y-105015550D01*
X181848137Y-105290977D01*
X181759519Y-105474492D01*
X181707325Y-105531527D01*
X181698674Y-105522357D01*
X181637988Y-105396519D01*
X181548978Y-105160140D01*
X181447640Y-104854896D01*
X181364186Y-104593795D01*
X181282219Y-104378071D01*
X181205126Y-104265133D01*
X181107873Y-104221744D01*
X180965427Y-104214667D01*
X180684000Y-104214667D01*
X180684000Y-106500667D01*
X178314297Y-106500667D01*
X178314045Y-106153692D01*
X178313333Y-105171718D01*
X178656090Y-105017156D01*
X178748441Y-104973728D01*
X178943796Y-104868030D01*
X179041456Y-104793651D01*
X179029816Y-104754901D01*
X178909474Y-104655767D01*
X178698699Y-104537483D01*
X178313333Y-104350258D01*
X178315154Y-103837962D01*
X178316975Y-103325667D01*
X179583123Y-102635276D01*
X180849272Y-101944885D01*
X181273924Y-102169609D01*
X181698575Y-102394334D01*
X181700508Y-102860000D01*
X181702440Y-103325667D01*
X182556296Y-103796661D01*
X183394762Y-103340311D01*
X184197666Y-103781503D01*
X184221462Y-104753370D01*
X184245257Y-105725237D01*
X183819295Y-105957074D01*
X183393333Y-106188912D01*
X183392780Y-106500667D01*
X183390003Y-108067000D01*
X182608502Y-108503980D01*
G37*
G36*
X172988126Y-125148989D02*
G01*
X172806615Y-125093929D01*
X172639333Y-125004514D01*
X172492709Y-124884183D01*
X172372378Y-124737559D01*
X172282964Y-124570277D01*
X172227903Y-124388766D01*
X172209311Y-124200000D01*
X172209546Y-124197619D01*
X173177091Y-124197619D01*
X173185276Y-124380380D01*
X173209833Y-124538138D01*
X173250761Y-124670892D01*
X173308059Y-124778644D01*
X173408601Y-124884477D01*
X173535601Y-124947977D01*
X173689059Y-124969144D01*
X173842518Y-124947977D01*
X173969518Y-124884477D01*
X174070059Y-124778644D01*
X174085254Y-124750069D01*
X174665372Y-124750069D01*
X174729666Y-124909613D01*
X174877303Y-124964381D01*
X174958266Y-124950094D01*
X174977656Y-124938188D01*
X175565484Y-124938188D01*
X176527509Y-124938188D01*
X176533463Y-124878656D01*
X176532272Y-124828650D01*
X176521259Y-124714350D01*
X176488219Y-124609575D01*
X176438213Y-124513432D01*
X176376300Y-124425028D01*
X176306053Y-124343470D01*
X176231044Y-124267866D01*
X176156034Y-124196726D01*
X176085787Y-124128563D01*
X175973869Y-123999975D01*
X175929816Y-123873769D01*
X175984584Y-123734466D01*
X176122697Y-123685650D01*
X176267953Y-123718988D01*
X176417972Y-123830906D01*
X176426417Y-123819000D01*
X176698959Y-123819000D01*
X176750305Y-123984720D01*
X176804330Y-124143743D01*
X176861033Y-124296069D01*
X176920416Y-124441697D01*
X176999791Y-124623333D01*
X177075991Y-124788830D01*
X177149016Y-124938188D01*
X177394284Y-124938188D01*
X177466119Y-124788830D01*
X177538747Y-124623333D01*
X177612169Y-124441697D01*
X177666863Y-124296069D01*
X177720218Y-124143743D01*
X177772233Y-123984720D01*
X177822909Y-123819000D01*
X177515728Y-123819000D01*
X177492213Y-123912464D01*
X177464531Y-124011881D01*
X177433873Y-124114573D01*
X177401428Y-124217859D01*
X177367793Y-124319955D01*
X177333563Y-124419075D01*
X177268078Y-124597669D01*
X177199022Y-124419075D01*
X177161220Y-124319955D01*
X177124013Y-124217859D01*
X177087698Y-124114573D01*
X177052575Y-124011881D01*
X177021321Y-123912464D01*
X176996616Y-123819000D01*
X176698959Y-123819000D01*
X176426417Y-123819000D01*
X176563228Y-123626119D01*
X176460537Y-123539203D01*
X176342963Y-123478481D01*
X176218245Y-123442763D01*
X176094122Y-123430856D01*
X175920291Y-123457050D01*
X175772653Y-123535631D01*
X175670259Y-123667791D01*
X175632159Y-123852338D01*
X175660734Y-123998784D01*
X175736934Y-124135706D01*
X175844091Y-124264294D01*
X175965534Y-124383356D01*
X176036972Y-124451222D01*
X176113172Y-124532184D01*
X176173894Y-124616719D01*
X176198897Y-124695300D01*
X175565484Y-124695300D01*
X175565484Y-124938188D01*
X174977656Y-124938188D01*
X175026131Y-124908422D01*
X175073756Y-124841747D01*
X175091616Y-124750069D01*
X175073756Y-124660772D01*
X175026131Y-124595288D01*
X174958266Y-124554806D01*
X174877303Y-124540519D01*
X174729666Y-124595288D01*
X174665372Y-124750069D01*
X174085254Y-124750069D01*
X174127358Y-124670892D01*
X174168286Y-124538138D01*
X174192843Y-124380380D01*
X174201028Y-124197619D01*
X174192694Y-124016941D01*
X174167691Y-123860672D01*
X174126019Y-123728810D01*
X174067678Y-123621356D01*
X173966343Y-123515523D01*
X173840136Y-123452023D01*
X173689059Y-123430856D01*
X173535601Y-123451891D01*
X173408601Y-123514994D01*
X173308059Y-123620166D01*
X173250761Y-123727247D01*
X173209833Y-123859184D01*
X173185276Y-124015974D01*
X173177091Y-124197619D01*
X172209546Y-124197619D01*
X172227903Y-124011234D01*
X172282964Y-123829723D01*
X172372378Y-123662441D01*
X172492709Y-123515817D01*
X172639333Y-123395486D01*
X172806615Y-123306071D01*
X172988126Y-123251011D01*
X173176892Y-123232419D01*
X177823108Y-123232419D01*
X178011874Y-123251011D01*
X178193385Y-123306071D01*
X178360667Y-123395486D01*
X178507291Y-123515817D01*
X178627622Y-123662441D01*
X178717036Y-123829723D01*
X178772097Y-124011234D01*
X178790689Y-124200000D01*
X178772097Y-124388766D01*
X178717036Y-124570277D01*
X178627622Y-124737559D01*
X178507291Y-124884183D01*
X178360667Y-125004514D01*
X178193385Y-125093929D01*
X178011874Y-125148989D01*
X177823108Y-125167581D01*
X173176892Y-125167581D01*
X172988126Y-125148989D01*
G37*
G36*
X173504513Y-124584572D02*
G01*
X173469455Y-124482840D01*
X173448421Y-124353855D01*
X173441409Y-124197619D01*
X173442487Y-124173806D01*
X173555709Y-124173806D01*
X173592619Y-124284534D01*
X173686678Y-124330969D01*
X173784309Y-124284534D01*
X173820028Y-124173806D01*
X173784309Y-124061888D01*
X173686678Y-124014263D01*
X173592619Y-124061888D01*
X173555709Y-124173806D01*
X173442487Y-124173806D01*
X173448421Y-124042705D01*
X173469455Y-123914515D01*
X173504513Y-123813047D01*
X173582201Y-123713927D01*
X173689059Y-123680888D01*
X173794430Y-123713927D01*
X173872416Y-123813047D01*
X173908134Y-123914515D01*
X173929566Y-124042705D01*
X173936709Y-124197619D01*
X173929566Y-124353855D01*
X173908134Y-124482840D01*
X173872416Y-124584572D01*
X173794430Y-124683691D01*
X173689059Y-124716731D01*
X173686678Y-124715995D01*
X173582201Y-124683691D01*
X173504513Y-124584572D01*
G37*
G36*
X171432624Y-100214916D02*
G01*
X171432624Y-124425510D01*
X169567375Y-124985084D01*
X169567375Y-124274697D01*
X170016797Y-124274697D01*
X171137032Y-124274697D01*
X171137032Y-123596041D01*
X170952437Y-123596041D01*
X170952437Y-124052098D01*
X170700882Y-124052098D01*
X170700882Y-123655763D01*
X170516288Y-123655763D01*
X170516288Y-124052098D01*
X170201391Y-124052098D01*
X170201391Y-123556227D01*
X170016797Y-123556227D01*
X170016797Y-124274697D01*
X169567375Y-124274697D01*
X169567375Y-123063974D01*
X169993270Y-123063974D01*
X170000735Y-123189300D01*
X170023131Y-123286574D01*
X170078328Y-123411446D01*
X170259303Y-123346295D01*
X170205011Y-123229567D01*
X170186008Y-123154236D01*
X170179674Y-123063974D01*
X170191438Y-122970772D01*
X170224013Y-122911956D01*
X170271067Y-122882095D01*
X170324454Y-122873951D01*
X170385986Y-122893858D01*
X170433944Y-122944531D01*
X170471949Y-123013302D01*
X170503619Y-123089311D01*
X170545244Y-123194277D01*
X170604965Y-123292908D01*
X170694548Y-123366203D01*
X170827565Y-123395159D01*
X170967820Y-123369596D01*
X171073691Y-123292908D01*
X171122956Y-123216195D01*
X171152515Y-123122389D01*
X171162368Y-123011492D01*
X171156487Y-122914896D01*
X171138842Y-122831422D01*
X171086359Y-122702025D01*
X170914433Y-122767176D01*
X170957867Y-122867617D01*
X170975964Y-122995204D01*
X170961687Y-123093735D01*
X170918857Y-123152853D01*
X170847472Y-123172560D01*
X170790465Y-123154462D01*
X170747031Y-123108313D01*
X170713550Y-123044972D01*
X170686404Y-122975297D01*
X170642065Y-122865807D01*
X170576914Y-122760841D01*
X170475568Y-122682117D01*
X170407024Y-122659043D01*
X170322644Y-122651352D01*
X170183068Y-122676914D01*
X170079233Y-122753602D01*
X170031476Y-122833533D01*
X170002821Y-122936990D01*
X169993270Y-123063974D01*
X169567375Y-123063974D01*
X169567375Y-122481235D01*
X170016797Y-122481235D01*
X171122554Y-122481235D01*
X171135222Y-122407940D01*
X171143366Y-122325597D01*
X171147890Y-122244158D01*
X171149700Y-122173578D01*
X171139948Y-122041868D01*
X171110690Y-121931473D01*
X171061927Y-121842393D01*
X170991045Y-121777041D01*
X170895430Y-121737830D01*
X170775082Y-121724760D01*
X170653527Y-121737930D01*
X170556705Y-121777443D01*
X170484617Y-121843298D01*
X170434849Y-121933283D01*
X170404988Y-122045186D01*
X170395034Y-122179007D01*
X170395034Y-122258636D01*
X170016797Y-122258636D01*
X170016797Y-122481235D01*
X169567375Y-122481235D01*
X169567375Y-121469585D01*
X170371508Y-121469585D01*
X170590487Y-121469585D01*
X170590487Y-120973713D01*
X170371508Y-120973713D01*
X170371508Y-121469585D01*
X169567375Y-121469585D01*
X169567375Y-120619002D01*
X170016797Y-120619002D01*
X170201391Y-120619002D01*
X170201391Y-120383735D01*
X170827565Y-120383735D01*
X170763319Y-120499559D01*
X170718980Y-120609954D01*
X170903574Y-120682344D01*
X170945198Y-120588237D01*
X171001301Y-120486891D01*
X171066452Y-120390974D01*
X171137032Y-120313155D01*
X171137032Y-120161136D01*
X170201391Y-120161136D01*
X170201391Y-119938536D01*
X170016797Y-119938536D01*
X170016797Y-120619002D01*
X169567375Y-120619002D01*
X169567375Y-119759371D01*
X170016797Y-119759371D01*
X170062041Y-119763895D01*
X170100045Y-119762991D01*
X170186913Y-119754620D01*
X170266542Y-119729510D01*
X170339611Y-119691505D01*
X170406798Y-119644452D01*
X170468782Y-119591064D01*
X170526241Y-119534057D01*
X170580308Y-119477050D01*
X170632112Y-119423662D01*
X170729838Y-119338604D01*
X170825755Y-119305124D01*
X170931625Y-119346748D01*
X170968725Y-119451714D01*
X170943389Y-119562108D01*
X170858330Y-119676122D01*
X171013969Y-119786517D01*
X171080025Y-119708472D01*
X171126173Y-119619115D01*
X171153320Y-119524330D01*
X171162368Y-119429997D01*
X171142461Y-119297885D01*
X171082740Y-119185680D01*
X170982298Y-119107861D01*
X170842043Y-119078905D01*
X170730743Y-119100622D01*
X170626682Y-119158534D01*
X170528956Y-119239973D01*
X170438468Y-119332270D01*
X170386891Y-119386563D01*
X170325359Y-119444475D01*
X170261113Y-119490623D01*
X170201391Y-119509626D01*
X170201391Y-119028232D01*
X170016797Y-119028232D01*
X170016797Y-119759371D01*
X169567375Y-119759371D01*
X169567375Y-118845447D01*
X170016797Y-118845447D01*
X171137032Y-118845447D01*
X171137032Y-118159552D01*
X170952437Y-118159552D01*
X170952437Y-118622848D01*
X170680975Y-118622848D01*
X170680975Y-118217464D01*
X170496380Y-118217464D01*
X170496380Y-118622848D01*
X170016797Y-118622848D01*
X170016797Y-118845447D01*
X169567375Y-118845447D01*
X169567375Y-117600339D01*
X169996889Y-117600339D01*
X170007748Y-117661871D01*
X170039419Y-117713449D01*
X170090092Y-117749644D01*
X170159767Y-117763217D01*
X170227633Y-117749644D01*
X170277401Y-117713449D01*
X170308166Y-117661871D01*
X170319025Y-117600339D01*
X170277401Y-117488135D01*
X170159767Y-117439272D01*
X170038514Y-117488135D01*
X169996889Y-117600339D01*
X169567375Y-117600339D01*
X169567375Y-116490963D01*
X170016797Y-116490963D01*
X170887286Y-116480104D01*
X170413132Y-116617645D01*
X170413132Y-116780523D01*
X170887286Y-116912634D01*
X170016797Y-116903586D01*
X170016797Y-117108087D01*
X170157052Y-117102432D01*
X170302737Y-117096324D01*
X170450684Y-117089764D01*
X170597726Y-117082751D01*
X170742054Y-117074833D01*
X170881857Y-117065558D01*
X171014421Y-117054926D01*
X171137032Y-117042936D01*
X171137032Y-116858342D01*
X171039305Y-116826671D01*
X170910813Y-116785952D01*
X170771462Y-116742518D01*
X170641160Y-116700894D01*
X170779606Y-116655650D01*
X170917147Y-116610406D01*
X171041115Y-116570592D01*
X171137032Y-116538016D01*
X171137032Y-116353422D01*
X170992252Y-116340979D01*
X170851091Y-116328990D01*
X170712419Y-116318131D01*
X170575105Y-116309083D01*
X170438016Y-116301617D01*
X170300023Y-116295510D01*
X170159993Y-116290533D01*
X170016797Y-116286461D01*
X170016797Y-116490963D01*
X169567375Y-116490963D01*
X169567375Y-115595136D01*
X170016797Y-115595136D01*
X170275591Y-115647619D01*
X170275591Y-115946228D01*
X170016797Y-115996901D01*
X170016797Y-116228549D01*
X170146918Y-116196625D01*
X170272333Y-116164556D01*
X170393044Y-116132342D01*
X170509049Y-116099984D01*
X170620348Y-116067481D01*
X170754779Y-116027101D01*
X170885703Y-115987400D01*
X171013121Y-115948377D01*
X171137032Y-115910033D01*
X171137032Y-115667526D01*
X171012103Y-115627768D01*
X170883441Y-115588123D01*
X170751046Y-115548592D01*
X170614919Y-115509173D01*
X170502678Y-115477864D01*
X170386746Y-115446918D01*
X170267121Y-115416333D01*
X170143805Y-115386110D01*
X170016797Y-115356249D01*
X170016797Y-115595136D01*
X169567375Y-115595136D01*
X169567375Y-114706549D01*
X170016797Y-114706549D01*
X170153433Y-114763556D01*
X170225823Y-114802692D01*
X170296403Y-114845900D01*
X170363816Y-114892275D01*
X170426705Y-114940912D01*
X170528956Y-115035924D01*
X170016797Y-115035924D01*
X170016797Y-115258523D01*
X171137032Y-115258523D01*
X171137032Y-115035924D01*
X170671926Y-115035924D01*
X170784131Y-114952675D01*
X170907194Y-114870331D01*
X171028447Y-114798846D01*
X171137032Y-114744554D01*
X171137032Y-114492999D01*
X171025732Y-114553625D01*
X170961939Y-114591404D01*
X170895430Y-114634159D01*
X170826886Y-114680986D01*
X170756984Y-114730981D01*
X170687762Y-114783690D01*
X170621253Y-114838661D01*
X170562889Y-114782106D01*
X170496380Y-114724647D01*
X170423312Y-114668318D01*
X170345266Y-114615157D01*
X170263828Y-114566067D01*
X170180579Y-114521954D01*
X170097557Y-114484402D01*
X170016797Y-114454994D01*
X170016797Y-114706549D01*
X169567375Y-114706549D01*
X169567375Y-114321072D01*
X170016797Y-114321072D01*
X171137032Y-114321072D01*
X171137032Y-113642416D01*
X170952437Y-113642416D01*
X170952437Y-114098473D01*
X170700882Y-114098473D01*
X170700882Y-113702138D01*
X170516288Y-113702138D01*
X170516288Y-114098473D01*
X170201391Y-114098473D01*
X170201391Y-113602602D01*
X170016797Y-113602602D01*
X170016797Y-114321072D01*
X169567375Y-114321072D01*
X169567375Y-112878702D01*
X170016797Y-112878702D01*
X170123346Y-112923719D01*
X170225823Y-112975523D01*
X170326943Y-113032756D01*
X170429420Y-113094062D01*
X170429420Y-113209886D01*
X170016797Y-113209886D01*
X170016797Y-113432485D01*
X171120744Y-113432485D01*
X171134317Y-113361000D01*
X171143366Y-113282276D01*
X171147890Y-113206266D01*
X171149700Y-113142925D01*
X171144271Y-113051533D01*
X171127983Y-112969189D01*
X171100385Y-112896799D01*
X171061022Y-112835268D01*
X170946103Y-112749304D01*
X170870320Y-112726909D01*
X170782321Y-112719444D01*
X170689119Y-112729397D01*
X170604965Y-112759258D01*
X170534838Y-112812193D01*
X170483712Y-112891370D01*
X170379652Y-112826219D01*
X170260208Y-112759258D01*
X170135335Y-112696822D01*
X170016797Y-112645244D01*
X170016797Y-112878702D01*
X169567375Y-112878702D01*
X169567375Y-112205475D01*
X169993270Y-112205475D01*
X170000735Y-112330800D01*
X170023131Y-112428074D01*
X170078328Y-112552947D01*
X170259303Y-112487796D01*
X170205011Y-112371067D01*
X170186008Y-112295736D01*
X170179674Y-112205475D01*
X170191438Y-112112272D01*
X170224013Y-112053456D01*
X170271067Y-112023595D01*
X170324454Y-112015451D01*
X170385986Y-112035358D01*
X170433944Y-112086031D01*
X170471949Y-112154802D01*
X170503619Y-112230811D01*
X170545244Y-112335777D01*
X170604965Y-112434408D01*
X170694548Y-112507703D01*
X170827565Y-112536659D01*
X170967820Y-112511096D01*
X171073691Y-112434408D01*
X171122956Y-112357695D01*
X171152515Y-112263889D01*
X171162368Y-112152992D01*
X171156487Y-112056396D01*
X171138842Y-111972922D01*
X171086359Y-111843525D01*
X170914433Y-111908676D01*
X170957867Y-112009117D01*
X170975964Y-112136704D01*
X170961687Y-112235235D01*
X170918857Y-112294353D01*
X170847472Y-112314060D01*
X170790465Y-112295962D01*
X170747031Y-112249813D01*
X170713550Y-112186472D01*
X170686404Y-112116797D01*
X170642065Y-112007307D01*
X170576914Y-111902341D01*
X170475568Y-111823617D01*
X170407024Y-111800543D01*
X170322644Y-111792852D01*
X170183068Y-111818414D01*
X170079233Y-111895102D01*
X170031476Y-111975033D01*
X170002821Y-112078490D01*
X169993270Y-112205475D01*
X169567375Y-112205475D01*
X169567375Y-111622735D01*
X170016797Y-111622735D01*
X171122554Y-111622735D01*
X171135222Y-111549440D01*
X171143366Y-111467096D01*
X171147890Y-111385658D01*
X171149700Y-111315078D01*
X171139948Y-111183368D01*
X171110690Y-111072973D01*
X171061927Y-110983893D01*
X170991045Y-110918541D01*
X170895430Y-110879330D01*
X170775082Y-110866260D01*
X170653527Y-110879430D01*
X170556705Y-110918943D01*
X170484617Y-110984798D01*
X170434849Y-111074783D01*
X170404988Y-111186686D01*
X170395034Y-111320507D01*
X170395034Y-111400136D01*
X170016797Y-111400136D01*
X170016797Y-111622735D01*
X169567375Y-111622735D01*
X169567375Y-110165886D01*
X170016797Y-110165886D01*
X170275591Y-110218369D01*
X170275591Y-110516978D01*
X170016797Y-110567651D01*
X170016797Y-110799299D01*
X170146918Y-110767375D01*
X170272333Y-110735306D01*
X170393044Y-110703092D01*
X170509049Y-110670734D01*
X170620348Y-110638231D01*
X170754779Y-110597851D01*
X170885703Y-110558150D01*
X171013121Y-110519127D01*
X171137032Y-110480783D01*
X171137032Y-110238276D01*
X171012103Y-110198518D01*
X170883441Y-110158873D01*
X170751046Y-110119342D01*
X170614919Y-110079923D01*
X170502678Y-110048614D01*
X170386746Y-110017668D01*
X170267121Y-109987083D01*
X170143805Y-109956860D01*
X170016797Y-109926999D01*
X170016797Y-110165886D01*
X169567375Y-110165886D01*
X169567375Y-109375026D01*
X169993270Y-109375026D01*
X170010161Y-109520610D01*
X170060834Y-109641260D01*
X170145289Y-109736976D01*
X170229329Y-109791607D01*
X170329431Y-109830630D01*
X170445594Y-109854044D01*
X170577819Y-109861848D01*
X170709479Y-109852347D01*
X170825755Y-109823844D01*
X170925970Y-109778374D01*
X171009445Y-109717973D01*
X171075500Y-109643773D01*
X171123459Y-109556905D01*
X171152641Y-109459405D01*
X171162368Y-109353309D01*
X171152415Y-109245628D01*
X171129793Y-109161475D01*
X171102647Y-109100848D01*
X171080930Y-109063749D01*
X170903574Y-109121661D01*
X170949723Y-109222102D01*
X170968725Y-109356928D01*
X170949723Y-109459179D01*
X170886382Y-109547857D01*
X170767843Y-109611198D01*
X170684594Y-109629522D01*
X170583248Y-109635630D01*
X170465313Y-109628290D01*
X170367285Y-109606271D01*
X170289164Y-109569574D01*
X170212476Y-109482479D01*
X170186913Y-109353309D01*
X170206820Y-109209433D01*
X170246635Y-109118041D01*
X170071089Y-109061939D01*
X170017702Y-109189526D01*
X169999378Y-109276168D01*
X169993270Y-109375026D01*
X169567375Y-109375026D01*
X169567375Y-108891822D01*
X170016797Y-108891822D01*
X171137032Y-108891822D01*
X171137032Y-108213166D01*
X170952437Y-108213166D01*
X170952437Y-108669223D01*
X170700882Y-108669223D01*
X170700882Y-108272888D01*
X170516288Y-108272888D01*
X170516288Y-108669223D01*
X170201391Y-108669223D01*
X170201391Y-108173352D01*
X170016797Y-108173352D01*
X170016797Y-108891822D01*
X169567375Y-108891822D01*
X169567375Y-107646714D01*
X169996889Y-107646714D01*
X170007748Y-107708246D01*
X170039419Y-107759824D01*
X170090092Y-107796019D01*
X170159767Y-107809592D01*
X170227633Y-107796019D01*
X170277401Y-107759824D01*
X170308166Y-107708246D01*
X170319025Y-107646714D01*
X170277401Y-107534510D01*
X170159767Y-107485647D01*
X170038514Y-107534510D01*
X169996889Y-107646714D01*
X169567375Y-107646714D01*
X169567375Y-107067594D01*
X170016797Y-107067594D01*
X171137032Y-107067594D01*
X171137032Y-106843185D01*
X170201391Y-106843185D01*
X170201391Y-106363602D01*
X170016797Y-106363602D01*
X170016797Y-107067594D01*
X169567375Y-107067594D01*
X169567375Y-105950979D01*
X170016797Y-105950979D01*
X170952437Y-105950979D01*
X170952437Y-106245968D01*
X171137032Y-106245968D01*
X171137032Y-105431580D01*
X170952437Y-105431580D01*
X170952437Y-105726570D01*
X170016797Y-105726570D01*
X170016797Y-105950979D01*
X169567375Y-105950979D01*
X169567375Y-105301278D01*
X169718188Y-105301278D01*
X171281812Y-104794548D01*
X171281812Y-104566520D01*
X169718188Y-105069630D01*
X169718188Y-105301278D01*
X169567375Y-105301278D01*
X169567375Y-104130370D01*
X170016797Y-104130370D01*
X170130308Y-104184964D01*
X170256086Y-104240162D01*
X170394130Y-104295962D01*
X170504807Y-104337530D01*
X170620575Y-104378080D01*
X170741432Y-104417611D01*
X170867379Y-104456125D01*
X170867379Y-104222667D01*
X170796347Y-104204796D01*
X170720789Y-104183758D01*
X170642744Y-104160457D01*
X170564246Y-104135799D01*
X170486653Y-104110237D01*
X170411322Y-104084221D01*
X170275591Y-104034453D01*
X170411322Y-103981970D01*
X170486653Y-103953241D01*
X170564246Y-103924963D01*
X170642744Y-103897365D01*
X170720789Y-103870671D01*
X170796347Y-103846918D01*
X170867379Y-103828142D01*
X170867379Y-103601923D01*
X170741432Y-103640946D01*
X170620575Y-103682004D01*
X170504807Y-103725099D01*
X170394130Y-103770230D01*
X170256086Y-103830555D01*
X170130308Y-103888467D01*
X170016797Y-103943966D01*
X170016797Y-104130370D01*
X169567375Y-104130370D01*
X169567375Y-103471621D01*
X170016797Y-103471621D01*
X170062041Y-103476145D01*
X170100045Y-103475241D01*
X170186913Y-103466870D01*
X170266542Y-103441760D01*
X170339611Y-103403755D01*
X170406798Y-103356702D01*
X170468782Y-103303314D01*
X170526241Y-103246307D01*
X170580308Y-103189300D01*
X170632112Y-103135912D01*
X170729838Y-103050854D01*
X170825755Y-103017374D01*
X170931625Y-103058998D01*
X170968725Y-103163964D01*
X170943389Y-103274358D01*
X170858330Y-103388373D01*
X171013969Y-103498767D01*
X171080025Y-103420722D01*
X171126173Y-103331365D01*
X171153320Y-103236580D01*
X171162368Y-103142247D01*
X171142461Y-103010135D01*
X171082740Y-102897930D01*
X170982298Y-102820111D01*
X170842043Y-102791155D01*
X170730743Y-102812872D01*
X170626682Y-102870784D01*
X170528956Y-102952223D01*
X170438468Y-103044520D01*
X170386891Y-103098813D01*
X170325359Y-103156725D01*
X170261113Y-103202873D01*
X170201391Y-103221876D01*
X170201391Y-102740482D01*
X170016797Y-102740482D01*
X170016797Y-103471621D01*
X169567375Y-103471621D01*
X169567375Y-102217464D01*
X169996889Y-102217464D01*
X170007748Y-102278996D01*
X170039419Y-102330574D01*
X170090092Y-102366769D01*
X170159767Y-102380342D01*
X170227633Y-102366769D01*
X170277401Y-102330574D01*
X170308166Y-102278996D01*
X170319025Y-102217464D01*
X170277401Y-102105260D01*
X170159767Y-102056396D01*
X170038514Y-102105260D01*
X169996889Y-102217464D01*
X169567375Y-102217464D01*
X169567375Y-101314399D01*
X169993270Y-101314399D01*
X170009357Y-101431027D01*
X170057617Y-101527547D01*
X170138050Y-101603959D01*
X170219941Y-101647506D01*
X170320835Y-101678611D01*
X170440731Y-101697274D01*
X170579629Y-101703495D01*
X170716944Y-101697161D01*
X170835709Y-101678159D01*
X170935924Y-101646488D01*
X171017588Y-101602149D01*
X171098022Y-101525134D01*
X171146282Y-101429218D01*
X171162368Y-101314399D01*
X171146382Y-101197771D01*
X171098424Y-101101251D01*
X171018493Y-101024839D01*
X170937111Y-100981292D01*
X170836840Y-100950187D01*
X170717679Y-100931524D01*
X170579629Y-100925303D01*
X170440731Y-100931524D01*
X170320835Y-100950187D01*
X170219941Y-100981292D01*
X170138050Y-101024839D01*
X170057617Y-101101251D01*
X170009357Y-101197771D01*
X169993270Y-101314399D01*
X169567375Y-101314399D01*
X169567375Y-100774490D01*
X171432624Y-100214916D01*
G37*
G36*
X170285545Y-101174143D02*
G01*
X170362861Y-101147500D01*
X170460889Y-101131514D01*
X170579629Y-101126185D01*
X170697363Y-101131514D01*
X170794788Y-101147500D01*
X170871904Y-101174143D01*
X170947234Y-101233186D01*
X170972345Y-101314399D01*
X170947234Y-101394480D01*
X170871904Y-101453750D01*
X170794788Y-101480896D01*
X170697363Y-101497184D01*
X170579629Y-101502613D01*
X170460889Y-101497184D01*
X170362861Y-101480896D01*
X170285545Y-101453750D01*
X170210214Y-101394480D01*
X170185103Y-101314399D01*
X170185663Y-101312589D01*
X170478283Y-101312589D01*
X170513573Y-101386789D01*
X170597726Y-101413935D01*
X170682785Y-101386789D01*
X170718980Y-101312589D01*
X170682785Y-101241104D01*
X170597726Y-101213053D01*
X170513573Y-101241104D01*
X170478283Y-101312589D01*
X170185663Y-101312589D01*
X170210214Y-101233186D01*
X170285545Y-101174143D01*
G37*
G36*
X170576009Y-115707341D02*
G01*
X170687309Y-115731772D01*
X170799514Y-115760728D01*
X170919862Y-115794209D01*
X170799514Y-115827689D01*
X170687309Y-115856645D01*
X170576009Y-115881982D01*
X170460185Y-115904604D01*
X170460185Y-115685624D01*
X170576009Y-115707341D01*
G37*
G36*
X170860366Y-121966135D02*
G01*
X170915338Y-122006176D01*
X170945877Y-122068386D01*
X170956057Y-122148241D01*
X170955152Y-122203438D01*
X170950628Y-122258636D01*
X170588678Y-122258636D01*
X170588678Y-122168148D01*
X170599310Y-122074494D01*
X170631207Y-122007081D01*
X170688893Y-121966361D01*
X170776892Y-121952788D01*
X170860366Y-121966135D01*
G37*
G36*
X170861045Y-112959235D02*
G01*
X170914433Y-112999955D01*
X170945651Y-113062844D01*
X170956057Y-113142925D01*
X170955152Y-113173691D01*
X170950628Y-113209886D01*
X170614014Y-113209886D01*
X170614014Y-113161023D01*
X170625099Y-113062844D01*
X170658353Y-112996335D01*
X170784131Y-112945662D01*
X170861045Y-112959235D01*
G37*
G36*
X170860366Y-111107635D02*
G01*
X170915338Y-111147676D01*
X170945877Y-111209886D01*
X170956057Y-111289741D01*
X170955152Y-111344938D01*
X170950628Y-111400136D01*
X170588678Y-111400136D01*
X170588678Y-111309648D01*
X170599310Y-111215994D01*
X170631207Y-111148581D01*
X170688893Y-111107861D01*
X170776892Y-111094288D01*
X170860366Y-111107635D01*
G37*
G36*
X170576009Y-110278091D02*
G01*
X170687309Y-110302522D01*
X170799514Y-110331478D01*
X170919862Y-110364959D01*
X170799514Y-110398439D01*
X170687309Y-110427395D01*
X170576009Y-110452732D01*
X170460185Y-110475354D01*
X170460185Y-110256374D01*
X170576009Y-110278091D01*
G37*
G36*
X173039323Y-102548989D02*
G01*
X172857812Y-102493929D01*
X172690530Y-102404514D01*
X172543906Y-102284183D01*
X172423575Y-102137559D01*
X172334161Y-101970277D01*
X172312854Y-101900038D01*
X173228288Y-101900038D01*
X173261625Y-102088156D01*
X173364019Y-102236984D01*
X173442600Y-102292944D01*
X173540231Y-102334616D01*
X173657508Y-102360512D01*
X173795025Y-102369144D01*
X173910516Y-102360809D01*
X174027197Y-102340569D01*
X174036613Y-102338188D01*
X174392719Y-102338188D01*
X175354744Y-102338188D01*
X175360697Y-102278656D01*
X175359506Y-102228650D01*
X175348493Y-102114350D01*
X175315453Y-102009575D01*
X175265447Y-101913432D01*
X175203534Y-101825028D01*
X175133288Y-101743470D01*
X175058278Y-101667866D01*
X174984211Y-101597619D01*
X175576200Y-101597619D01*
X175584386Y-101780380D01*
X175608942Y-101938138D01*
X175649870Y-102070892D01*
X175707169Y-102178644D01*
X175807710Y-102284477D01*
X175934710Y-102347977D01*
X176088169Y-102369144D01*
X176241627Y-102347977D01*
X176261205Y-102338188D01*
X176773969Y-102338188D01*
X177735994Y-102338188D01*
X177741947Y-102278656D01*
X177740756Y-102228650D01*
X177729743Y-102114350D01*
X177696703Y-102009575D01*
X177646697Y-101913432D01*
X177584784Y-101825028D01*
X177514538Y-101743470D01*
X177439528Y-101667866D01*
X177364519Y-101596726D01*
X177294272Y-101528563D01*
X177182353Y-101399975D01*
X177138300Y-101273769D01*
X177193069Y-101134466D01*
X177331181Y-101085650D01*
X177476438Y-101118988D01*
X177626456Y-101230906D01*
X177771713Y-101026119D01*
X177669021Y-100939203D01*
X177551447Y-100878481D01*
X177426729Y-100842763D01*
X177302606Y-100830856D01*
X177128775Y-100857050D01*
X176981138Y-100935631D01*
X176878744Y-101067791D01*
X176840644Y-101252338D01*
X176869219Y-101398784D01*
X176945419Y-101535706D01*
X177052575Y-101664294D01*
X177174019Y-101783356D01*
X177245456Y-101851222D01*
X177321656Y-101932184D01*
X177382378Y-102016719D01*
X177407381Y-102095300D01*
X176773969Y-102095300D01*
X176773969Y-102338188D01*
X176261205Y-102338188D01*
X176368627Y-102284477D01*
X176469169Y-102178644D01*
X176526468Y-102070892D01*
X176567395Y-101938138D01*
X176591952Y-101780380D01*
X176600138Y-101597619D01*
X176591803Y-101416941D01*
X176566800Y-101260672D01*
X176525128Y-101128810D01*
X176466788Y-101021356D01*
X176365452Y-100915523D01*
X176239246Y-100852023D01*
X176088169Y-100830856D01*
X175934710Y-100851891D01*
X175807710Y-100914994D01*
X175707169Y-101020166D01*
X175649870Y-101127247D01*
X175608942Y-101259184D01*
X175584386Y-101415974D01*
X175576200Y-101597619D01*
X174984211Y-101597619D01*
X174983269Y-101596726D01*
X174913022Y-101528563D01*
X174801103Y-101399975D01*
X174757050Y-101273769D01*
X174811819Y-101134466D01*
X174949931Y-101085650D01*
X175095188Y-101118988D01*
X175245206Y-101230906D01*
X175390463Y-101026119D01*
X175287771Y-100939203D01*
X175170197Y-100878481D01*
X175045479Y-100842763D01*
X174921356Y-100830856D01*
X174747525Y-100857050D01*
X174599888Y-100935631D01*
X174497494Y-101067791D01*
X174459394Y-101252338D01*
X174487969Y-101398784D01*
X174564169Y-101535706D01*
X174671325Y-101664294D01*
X174792769Y-101783356D01*
X174864206Y-101851222D01*
X174940406Y-101932184D01*
X175001128Y-102016719D01*
X175026131Y-102095300D01*
X174392719Y-102095300D01*
X174392719Y-102338188D01*
X174036613Y-102338188D01*
X174130781Y-102314375D01*
X174204600Y-102288181D01*
X174147450Y-102042913D01*
X174005766Y-102092919D01*
X173910218Y-102112564D01*
X173797406Y-102119113D01*
X173669712Y-102103039D01*
X173586666Y-102054819D01*
X173525944Y-101895275D01*
X173549161Y-101796155D01*
X173618813Y-101732159D01*
X173724183Y-101697334D01*
X173854556Y-101685725D01*
X173945044Y-101685725D01*
X173945044Y-101442838D01*
X173835506Y-101442838D01*
X173745019Y-101433313D01*
X173664056Y-101402356D01*
X173605716Y-101345206D01*
X173583094Y-101254719D01*
X173631909Y-101127322D01*
X173766450Y-101080888D01*
X173931947Y-101108272D01*
X174073631Y-101176138D01*
X174178406Y-100961825D01*
X174008147Y-100874909D01*
X173895335Y-100841870D01*
X173768831Y-100830856D01*
X173653043Y-100838595D01*
X173553328Y-100861813D01*
X173402119Y-100948728D01*
X173314013Y-101080888D01*
X173285438Y-101245194D01*
X173335444Y-101414263D01*
X173468794Y-101538088D01*
X173367293Y-101597023D01*
X173291391Y-101678581D01*
X173244063Y-101780380D01*
X173228288Y-101900038D01*
X172312854Y-101900038D01*
X172279100Y-101788766D01*
X172260508Y-101600000D01*
X172279100Y-101411234D01*
X172334161Y-101229723D01*
X172423575Y-101062441D01*
X172543906Y-100915817D01*
X172690530Y-100795486D01*
X172857812Y-100706071D01*
X173039323Y-100651011D01*
X173228089Y-100632419D01*
X177771911Y-100632419D01*
X177960677Y-100651011D01*
X178142188Y-100706071D01*
X178309470Y-100795486D01*
X178456094Y-100915817D01*
X178576425Y-101062441D01*
X178665839Y-101229723D01*
X178720900Y-101411234D01*
X178739492Y-101600000D01*
X178720900Y-101788766D01*
X178665839Y-101970277D01*
X178576425Y-102137559D01*
X178456094Y-102284183D01*
X178309470Y-102404514D01*
X178142188Y-102493929D01*
X177960677Y-102548989D01*
X177771911Y-102567581D01*
X173228089Y-102567581D01*
X173039323Y-102548989D01*
G37*
G36*
X175903622Y-101984572D02*
G01*
X175868565Y-101882840D01*
X175847530Y-101753855D01*
X175840519Y-101597619D01*
X175841597Y-101573806D01*
X175954819Y-101573806D01*
X175991728Y-101684534D01*
X176085788Y-101730969D01*
X176183419Y-101684534D01*
X176219138Y-101573806D01*
X176183419Y-101461888D01*
X176085788Y-101414263D01*
X175991728Y-101461888D01*
X175954819Y-101573806D01*
X175841597Y-101573806D01*
X175847530Y-101442705D01*
X175868565Y-101314515D01*
X175903622Y-101213047D01*
X175981310Y-101113927D01*
X176088169Y-101080888D01*
X176193539Y-101113927D01*
X176271525Y-101213047D01*
X176307244Y-101314515D01*
X176328675Y-101442705D01*
X176335819Y-101597619D01*
X176328675Y-101753855D01*
X176307244Y-101882840D01*
X176271525Y-101984572D01*
X176193539Y-102083691D01*
X176088169Y-102116731D01*
X176085788Y-102115995D01*
X175981310Y-102083691D01*
X175903622Y-101984572D01*
G37*
G36*
X181048989Y-120212086D02*
G01*
X180993929Y-120393598D01*
X180904514Y-120560880D01*
X180784183Y-120707504D01*
X180637559Y-120827835D01*
X180470277Y-120917249D01*
X180288766Y-120972310D01*
X180100000Y-120990902D01*
X179911234Y-120972310D01*
X179729723Y-120917249D01*
X179562441Y-120827835D01*
X179415817Y-120707504D01*
X179295486Y-120560880D01*
X179206071Y-120393598D01*
X179151011Y-120212086D01*
X179132419Y-120023320D01*
X179132419Y-119120628D01*
X179364194Y-119120628D01*
X179364194Y-120023122D01*
X179607081Y-120023122D01*
X179607081Y-119413522D01*
X179964269Y-119413522D01*
X179964269Y-119946922D01*
X180207156Y-119946922D01*
X180207156Y-119413522D01*
X180838188Y-119413522D01*
X180838188Y-119120628D01*
X179364194Y-119120628D01*
X179132419Y-119120628D01*
X179132419Y-118351484D01*
X179330856Y-118351484D01*
X179357050Y-118525316D01*
X179435631Y-118672953D01*
X179567791Y-118775347D01*
X179752338Y-118813447D01*
X179898784Y-118784872D01*
X180035706Y-118708672D01*
X180164294Y-118601516D01*
X180283356Y-118480072D01*
X180351222Y-118408634D01*
X180432184Y-118332434D01*
X180516719Y-118271713D01*
X180595300Y-118246709D01*
X180595300Y-118880122D01*
X180838188Y-118880122D01*
X180838188Y-117918097D01*
X180778656Y-117912144D01*
X180728650Y-117913334D01*
X180614350Y-117924348D01*
X180509575Y-117957388D01*
X180413432Y-118007394D01*
X180325028Y-118069306D01*
X180243470Y-118139553D01*
X180167866Y-118214563D01*
X180096726Y-118289572D01*
X180028563Y-118359819D01*
X179899975Y-118471737D01*
X179773769Y-118515791D01*
X179634466Y-118461022D01*
X179585650Y-118322909D01*
X179618988Y-118177653D01*
X179730906Y-118027634D01*
X179526119Y-117882378D01*
X179439203Y-117985070D01*
X179378481Y-118102644D01*
X179342763Y-118227362D01*
X179330856Y-118351484D01*
X179132419Y-118351484D01*
X179132419Y-117389459D01*
X179364194Y-117389459D01*
X180595300Y-117389459D01*
X180595300Y-117682353D01*
X180838188Y-117682353D01*
X180838188Y-116787003D01*
X180595300Y-116787003D01*
X180595300Y-117096566D01*
X179771388Y-117096566D01*
X179855922Y-116944166D01*
X179914263Y-116798909D01*
X179671375Y-116703659D01*
X179616606Y-116827484D01*
X179542788Y-116960834D01*
X179457063Y-117087041D01*
X179364194Y-117189434D01*
X179364194Y-117389459D01*
X179132419Y-117389459D01*
X179132419Y-116320278D01*
X180083331Y-116320278D01*
X180371463Y-116320278D01*
X180371463Y-115667816D01*
X180083331Y-115667816D01*
X180083331Y-116320278D01*
X179132419Y-116320278D01*
X179132419Y-114741509D01*
X179347525Y-114741509D01*
X179360357Y-114914811D01*
X179398854Y-115060068D01*
X179463016Y-115177278D01*
X179556281Y-115263268D01*
X179682091Y-115314861D01*
X179840444Y-115332059D01*
X180000384Y-115314729D01*
X180127781Y-115262739D01*
X180222634Y-115176088D01*
X180288119Y-115057686D01*
X180327409Y-114910446D01*
X180340506Y-114734366D01*
X180340506Y-114629591D01*
X180838188Y-114629591D01*
X180838188Y-114336697D01*
X179383244Y-114336697D01*
X179366575Y-114433138D01*
X179355859Y-114541484D01*
X179349906Y-114648641D01*
X179347525Y-114741509D01*
X179132419Y-114741509D01*
X179132419Y-113638991D01*
X179330856Y-113638991D01*
X179338595Y-113766090D01*
X179361813Y-113875925D01*
X179430869Y-114046184D01*
X179657088Y-113960459D01*
X179599938Y-113828300D01*
X179576125Y-113660422D01*
X179594910Y-113530776D01*
X179651267Y-113452989D01*
X179745194Y-113427059D01*
X179820203Y-113450872D01*
X179877353Y-113511594D01*
X179921406Y-113594938D01*
X179957125Y-113686616D01*
X180015466Y-113830681D01*
X180101191Y-113968794D01*
X180234541Y-114072378D01*
X180324730Y-114102739D01*
X180435756Y-114112859D01*
X180619410Y-114079224D01*
X180756034Y-113978319D01*
X180818873Y-113873147D01*
X180856576Y-113737019D01*
X180869144Y-113569934D01*
X180859321Y-113405033D01*
X180829853Y-113277041D01*
X180757225Y-113112734D01*
X180519100Y-113198459D01*
X180590538Y-113352050D01*
X180615541Y-113451170D01*
X180623875Y-113569934D01*
X180608397Y-113692569D01*
X180565534Y-113769959D01*
X180503622Y-113809250D01*
X180433375Y-113819966D01*
X180352413Y-113793772D01*
X180289309Y-113727097D01*
X180239303Y-113636609D01*
X180197631Y-113536597D01*
X180142863Y-113398484D01*
X180064281Y-113268706D01*
X179946409Y-113172266D01*
X179771388Y-113134166D01*
X179586841Y-113167801D01*
X179447538Y-113268706D01*
X179382715Y-113369645D01*
X179343821Y-113493073D01*
X179330856Y-113638991D01*
X179132419Y-113638991D01*
X179132419Y-111976878D01*
X179364194Y-111976878D01*
X179364194Y-112869847D01*
X179607081Y-112869847D01*
X179607081Y-112269772D01*
X179938075Y-112269772D01*
X179938075Y-112791266D01*
X180180962Y-112791266D01*
X180180962Y-112269772D01*
X180595300Y-112269772D01*
X180595300Y-112922234D01*
X180838188Y-112922234D01*
X180838188Y-111976878D01*
X179364194Y-111976878D01*
X179132419Y-111976878D01*
X179132419Y-111976680D01*
X179151011Y-111787914D01*
X179206071Y-111606402D01*
X179295486Y-111439120D01*
X179415817Y-111292496D01*
X179562441Y-111172165D01*
X179729723Y-111082751D01*
X179911234Y-111027690D01*
X180100000Y-111009098D01*
X180288766Y-111027690D01*
X180470277Y-111082751D01*
X180637559Y-111172165D01*
X180784183Y-111292496D01*
X180904514Y-111439120D01*
X180993929Y-111606402D01*
X181048989Y-111787914D01*
X181067581Y-111976680D01*
X181067581Y-120023320D01*
X181048989Y-120212086D01*
G37*
G36*
X180085713Y-114748653D02*
G01*
X180071723Y-114871883D01*
X180029753Y-114960584D01*
X179953851Y-115014163D01*
X179838063Y-115032022D01*
X179728227Y-115014460D01*
X179655897Y-114961775D01*
X179615713Y-114879920D01*
X179602319Y-114774847D01*
X179603509Y-114702219D01*
X179609463Y-114629591D01*
X180085713Y-114629591D01*
X180085713Y-114748653D01*
G37*
%LPC*%
D11*
X168250000Y-109600000D03*
X168250000Y-111600000D03*
X168250000Y-113600000D03*
X168250000Y-115600000D03*
X168250000Y-117600000D03*
X168250000Y-119600000D03*
X168250000Y-121600000D03*
X168250000Y-123600000D03*
X182750000Y-123600000D03*
X182750000Y-121600000D03*
X182750000Y-119600000D03*
X182750000Y-117600000D03*
X182750000Y-115600000D03*
X182750000Y-113600000D03*
X182750000Y-111600000D03*
X182750000Y-109600000D03*
D12*
X182500000Y-103000000D03*
X171500000Y-125000000D03*
X168500000Y-106000000D03*
D13*
X168000000Y-100000000D03*
X183000000Y-100000000D03*
X183000000Y-126000000D03*
X168000000Y-126000000D03*
G36*
G01*
X173402500Y-104710000D02*
X173402500Y-103510000D01*
G75*
G02*
X173652500Y-103260000I250000J0D01*
G01*
X174852500Y-103260000D01*
G75*
G02*
X175102500Y-103510000I0J-250000D01*
G01*
X175102500Y-104710000D01*
G75*
G02*
X174852500Y-104960000I-250000J0D01*
G01*
X173652500Y-104960000D01*
G75*
G02*
X173402500Y-104710000I0J250000D01*
G01*
G37*
D14*
X176792500Y-104110000D03*
X174252500Y-106650000D03*
X176792500Y-106650000D03*
X174252500Y-109190000D03*
X176792500Y-109190000D03*
X174252500Y-111730000D03*
X176792500Y-111730000D03*
X174252500Y-114270000D03*
X176792500Y-114270000D03*
X174252500Y-116810000D03*
X176792500Y-116810000D03*
X174252500Y-119350000D03*
X176792500Y-119350000D03*
X174252500Y-121890000D03*
X176792500Y-121890000D03*
M02*
