%TF.GenerationSoftware,KiCad,Pcbnew,6.0.10+dfsg-1~bpo11+1*%
%TF.ProjectId,top,746f702e-6b69-4636-9164-5f7063625858,rev?*%
%TF.SameCoordinates,Original*%
%TF.FileFunction,Drillmap*%
%TF.FilePolarity,Positive*%
%FSLAX45Y45*%
G04 Gerber Fmt 4.5, Leading zero omitted, Abs format (unit mm)*
%MOMM*%
%LPD*%
G01*
G04 APERTURE LIST*
%ADD10C,0.200000*%
%ADD11C,0.085000*%
%ADD12C,0.100000*%
%ADD13C,0.150000*%
G04 APERTURE END LIST*
D10*
D11*
X16807500Y-10917500D02*
X16892500Y-11002500D01*
X16892500Y-10917500D02*
X16807500Y-11002500D01*
X16807500Y-11117500D02*
X16892500Y-11202500D01*
X16892500Y-11117500D02*
X16807500Y-11202500D01*
X16807500Y-11317500D02*
X16892500Y-11402500D01*
X16892500Y-11317500D02*
X16807500Y-11402500D01*
X16807500Y-11517500D02*
X16892500Y-11602500D01*
X16892500Y-11517500D02*
X16807500Y-11602500D01*
X16807500Y-11717500D02*
X16892500Y-11802500D01*
X16892500Y-11717500D02*
X16807500Y-11802500D01*
X16807500Y-11917500D02*
X16892500Y-12002500D01*
X16892500Y-11917500D02*
X16807500Y-12002500D01*
X16807500Y-12117500D02*
X16892500Y-12202500D01*
X16892500Y-12117500D02*
X16807500Y-12202500D01*
X16807500Y-12317500D02*
X16892500Y-12402500D01*
X16892500Y-12317500D02*
X16807500Y-12402500D01*
X18207500Y-10917500D02*
X18292500Y-11002500D01*
X18292500Y-10917500D02*
X18207500Y-11002500D01*
X18207500Y-11117500D02*
X18292500Y-11202500D01*
X18292500Y-11117500D02*
X18207500Y-11202500D01*
X18207500Y-11317500D02*
X18292500Y-11402500D01*
X18292500Y-11317500D02*
X18207500Y-11402500D01*
X18207500Y-11517500D02*
X18292500Y-11602500D01*
X18292500Y-11517500D02*
X18207500Y-11602500D01*
X18207500Y-11717500D02*
X18292500Y-11802500D01*
X18292500Y-11717500D02*
X18207500Y-11802500D01*
X18207500Y-11917500D02*
X18292500Y-12002500D01*
X18292500Y-11917500D02*
X18207500Y-12002500D01*
X18207500Y-12117500D02*
X18292500Y-12202500D01*
X18292500Y-12117500D02*
X18207500Y-12202500D01*
X18207500Y-12317500D02*
X18292500Y-12402500D01*
X18292500Y-12317500D02*
X18207500Y-12402500D01*
D12*
X17475250Y-10411000D02*
G75*
G03*
X17475250Y-10411000I-50000J0D01*
G01*
X17475250Y-10665000D02*
G75*
G03*
X17475250Y-10665000I-50000J0D01*
G01*
X17475250Y-10919000D02*
G75*
G03*
X17475250Y-10919000I-50000J0D01*
G01*
X17475250Y-11173000D02*
G75*
G03*
X17475250Y-11173000I-50000J0D01*
G01*
X17475250Y-11427000D02*
G75*
G03*
X17475250Y-11427000I-50000J0D01*
G01*
X17475250Y-11681000D02*
G75*
G03*
X17475250Y-11681000I-50000J0D01*
G01*
X17475250Y-11935000D02*
G75*
G03*
X17475250Y-11935000I-50000J0D01*
G01*
X17475250Y-12189000D02*
G75*
G03*
X17475250Y-12189000I-50000J0D01*
G01*
X17729250Y-10411000D02*
G75*
G03*
X17729250Y-10411000I-50000J0D01*
G01*
X17729250Y-10665000D02*
G75*
G03*
X17729250Y-10665000I-50000J0D01*
G01*
X17729250Y-10919000D02*
G75*
G03*
X17729250Y-10919000I-50000J0D01*
G01*
X17729250Y-11173000D02*
G75*
G03*
X17729250Y-11173000I-50000J0D01*
G01*
X17729250Y-11427000D02*
G75*
G03*
X17729250Y-11427000I-50000J0D01*
G01*
X17729250Y-11681000D02*
G75*
G03*
X17729250Y-11681000I-50000J0D01*
G01*
X17729250Y-11935000D02*
G75*
G03*
X17729250Y-11935000I-50000J0D01*
G01*
X17729250Y-12189000D02*
G75*
G03*
X17729250Y-12189000I-50000J0D01*
G01*
D13*
X16800000Y-9925000D02*
X16800000Y-10075000D01*
X16725000Y-10000000D02*
X16875000Y-10000000D01*
X16800000Y-12525000D02*
X16800000Y-12675000D01*
X16725000Y-12600000D02*
X16875000Y-12600000D01*
X18300000Y-9925000D02*
X18300000Y-10075000D01*
X18225000Y-10000000D02*
X18375000Y-10000000D01*
X18300000Y-12525000D02*
X18300000Y-12675000D01*
X18225000Y-12600000D02*
X18375000Y-12600000D01*
D10*
X16901619Y-12916476D02*
X16901619Y-12716476D01*
X16949238Y-12716476D01*
X16977810Y-12726000D01*
X16996857Y-12745048D01*
X17006381Y-12764095D01*
X17015905Y-12802190D01*
X17015905Y-12830762D01*
X17006381Y-12868857D01*
X16996857Y-12887905D01*
X16977810Y-12906952D01*
X16949238Y-12916476D01*
X16901619Y-12916476D01*
X17101619Y-12916476D02*
X17101619Y-12783143D01*
X17101619Y-12821238D02*
X17111143Y-12802190D01*
X17120667Y-12792667D01*
X17139714Y-12783143D01*
X17158762Y-12783143D01*
X17225429Y-12916476D02*
X17225429Y-12783143D01*
X17225429Y-12716476D02*
X17215905Y-12726000D01*
X17225429Y-12735524D01*
X17234952Y-12726000D01*
X17225429Y-12716476D01*
X17225429Y-12735524D01*
X17349238Y-12916476D02*
X17330190Y-12906952D01*
X17320667Y-12887905D01*
X17320667Y-12716476D01*
X17454000Y-12916476D02*
X17434952Y-12906952D01*
X17425429Y-12887905D01*
X17425429Y-12716476D01*
X17682571Y-12916476D02*
X17682571Y-12716476D01*
X17749238Y-12859333D01*
X17815905Y-12716476D01*
X17815905Y-12916476D01*
X17996857Y-12916476D02*
X17996857Y-12811714D01*
X17987333Y-12792667D01*
X17968286Y-12783143D01*
X17930190Y-12783143D01*
X17911143Y-12792667D01*
X17996857Y-12906952D02*
X17977810Y-12916476D01*
X17930190Y-12916476D01*
X17911143Y-12906952D01*
X17901619Y-12887905D01*
X17901619Y-12868857D01*
X17911143Y-12849809D01*
X17930190Y-12840286D01*
X17977810Y-12840286D01*
X17996857Y-12830762D01*
X18092095Y-12783143D02*
X18092095Y-12983143D01*
X18092095Y-12792667D02*
X18111143Y-12783143D01*
X18149238Y-12783143D01*
X18168286Y-12792667D01*
X18177810Y-12802190D01*
X18187333Y-12821238D01*
X18187333Y-12878381D01*
X18177810Y-12897428D01*
X18168286Y-12906952D01*
X18149238Y-12916476D01*
X18111143Y-12916476D01*
X18092095Y-12906952D01*
X18273048Y-12897428D02*
X18282571Y-12906952D01*
X18273048Y-12916476D01*
X18263524Y-12906952D01*
X18273048Y-12897428D01*
X18273048Y-12916476D01*
X18273048Y-12792667D02*
X18282571Y-12802190D01*
X18273048Y-12811714D01*
X18263524Y-12802190D01*
X18273048Y-12792667D01*
X18273048Y-12811714D01*
D11*
X16559000Y-13203500D02*
X16644000Y-13288500D01*
X16644000Y-13203500D02*
X16559000Y-13288500D01*
D10*
X16939714Y-13136476D02*
X16958762Y-13136476D01*
X16977810Y-13146000D01*
X16987333Y-13155524D01*
X16996857Y-13174571D01*
X17006381Y-13212667D01*
X17006381Y-13260286D01*
X16996857Y-13298381D01*
X16987333Y-13317428D01*
X16977810Y-13326952D01*
X16958762Y-13336476D01*
X16939714Y-13336476D01*
X16920667Y-13326952D01*
X16911143Y-13317428D01*
X16901619Y-13298381D01*
X16892095Y-13260286D01*
X16892095Y-13212667D01*
X16901619Y-13174571D01*
X16911143Y-13155524D01*
X16920667Y-13146000D01*
X16939714Y-13136476D01*
X17092095Y-13317428D02*
X17101619Y-13326952D01*
X17092095Y-13336476D01*
X17082571Y-13326952D01*
X17092095Y-13317428D01*
X17092095Y-13336476D01*
X17215905Y-13222190D02*
X17196857Y-13212667D01*
X17187333Y-13203143D01*
X17177810Y-13184095D01*
X17177810Y-13174571D01*
X17187333Y-13155524D01*
X17196857Y-13146000D01*
X17215905Y-13136476D01*
X17254000Y-13136476D01*
X17273048Y-13146000D01*
X17282571Y-13155524D01*
X17292095Y-13174571D01*
X17292095Y-13184095D01*
X17282571Y-13203143D01*
X17273048Y-13212667D01*
X17254000Y-13222190D01*
X17215905Y-13222190D01*
X17196857Y-13231714D01*
X17187333Y-13241238D01*
X17177810Y-13260286D01*
X17177810Y-13298381D01*
X17187333Y-13317428D01*
X17196857Y-13326952D01*
X17215905Y-13336476D01*
X17254000Y-13336476D01*
X17273048Y-13326952D01*
X17282571Y-13317428D01*
X17292095Y-13298381D01*
X17292095Y-13260286D01*
X17282571Y-13241238D01*
X17273048Y-13231714D01*
X17254000Y-13222190D01*
X17473048Y-13136476D02*
X17377810Y-13136476D01*
X17368286Y-13231714D01*
X17377810Y-13222190D01*
X17396857Y-13212667D01*
X17444476Y-13212667D01*
X17463524Y-13222190D01*
X17473048Y-13231714D01*
X17482571Y-13250762D01*
X17482571Y-13298381D01*
X17473048Y-13317428D01*
X17463524Y-13326952D01*
X17444476Y-13336476D01*
X17396857Y-13336476D01*
X17377810Y-13326952D01*
X17368286Y-13317428D01*
X17606381Y-13136476D02*
X17625429Y-13136476D01*
X17644476Y-13146000D01*
X17654000Y-13155524D01*
X17663524Y-13174571D01*
X17673048Y-13212667D01*
X17673048Y-13260286D01*
X17663524Y-13298381D01*
X17654000Y-13317428D01*
X17644476Y-13326952D01*
X17625429Y-13336476D01*
X17606381Y-13336476D01*
X17587333Y-13326952D01*
X17577810Y-13317428D01*
X17568286Y-13298381D01*
X17558762Y-13260286D01*
X17558762Y-13212667D01*
X17568286Y-13174571D01*
X17577810Y-13155524D01*
X17587333Y-13146000D01*
X17606381Y-13136476D01*
X17758762Y-13336476D02*
X17758762Y-13203143D01*
X17758762Y-13222190D02*
X17768286Y-13212667D01*
X17787333Y-13203143D01*
X17815905Y-13203143D01*
X17834952Y-13212667D01*
X17844476Y-13231714D01*
X17844476Y-13336476D01*
X17844476Y-13231714D02*
X17854000Y-13212667D01*
X17873048Y-13203143D01*
X17901619Y-13203143D01*
X17920667Y-13212667D01*
X17930190Y-13231714D01*
X17930190Y-13336476D01*
X18025429Y-13336476D02*
X18025429Y-13203143D01*
X18025429Y-13222190D02*
X18034952Y-13212667D01*
X18054000Y-13203143D01*
X18082571Y-13203143D01*
X18101619Y-13212667D01*
X18111143Y-13231714D01*
X18111143Y-13336476D01*
X18111143Y-13231714D02*
X18120667Y-13212667D01*
X18139714Y-13203143D01*
X18168286Y-13203143D01*
X18187333Y-13212667D01*
X18196857Y-13231714D01*
X18196857Y-13336476D01*
X18587333Y-13126952D02*
X18415905Y-13384095D01*
X18844476Y-13136476D02*
X18863524Y-13136476D01*
X18882571Y-13146000D01*
X18892095Y-13155524D01*
X18901619Y-13174571D01*
X18911143Y-13212667D01*
X18911143Y-13260286D01*
X18901619Y-13298381D01*
X18892095Y-13317428D01*
X18882571Y-13326952D01*
X18863524Y-13336476D01*
X18844476Y-13336476D01*
X18825429Y-13326952D01*
X18815905Y-13317428D01*
X18806381Y-13298381D01*
X18796857Y-13260286D01*
X18796857Y-13212667D01*
X18806381Y-13174571D01*
X18815905Y-13155524D01*
X18825429Y-13146000D01*
X18844476Y-13136476D01*
X18996857Y-13317428D02*
X19006381Y-13326952D01*
X18996857Y-13336476D01*
X18987333Y-13326952D01*
X18996857Y-13317428D01*
X18996857Y-13336476D01*
X19130190Y-13136476D02*
X19149238Y-13136476D01*
X19168286Y-13146000D01*
X19177810Y-13155524D01*
X19187333Y-13174571D01*
X19196857Y-13212667D01*
X19196857Y-13260286D01*
X19187333Y-13298381D01*
X19177810Y-13317428D01*
X19168286Y-13326952D01*
X19149238Y-13336476D01*
X19130190Y-13336476D01*
X19111143Y-13326952D01*
X19101619Y-13317428D01*
X19092095Y-13298381D01*
X19082571Y-13260286D01*
X19082571Y-13212667D01*
X19092095Y-13174571D01*
X19101619Y-13155524D01*
X19111143Y-13146000D01*
X19130190Y-13136476D01*
X19263524Y-13136476D02*
X19387333Y-13136476D01*
X19320667Y-13212667D01*
X19349238Y-13212667D01*
X19368286Y-13222190D01*
X19377810Y-13231714D01*
X19387333Y-13250762D01*
X19387333Y-13298381D01*
X19377810Y-13317428D01*
X19368286Y-13326952D01*
X19349238Y-13336476D01*
X19292095Y-13336476D01*
X19273048Y-13326952D01*
X19263524Y-13317428D01*
X19454000Y-13136476D02*
X19577810Y-13136476D01*
X19511143Y-13212667D01*
X19539714Y-13212667D01*
X19558762Y-13222190D01*
X19568286Y-13231714D01*
X19577810Y-13250762D01*
X19577810Y-13298381D01*
X19568286Y-13317428D01*
X19558762Y-13326952D01*
X19539714Y-13336476D01*
X19482571Y-13336476D01*
X19463524Y-13326952D01*
X19454000Y-13317428D01*
X19758762Y-13136476D02*
X19663524Y-13136476D01*
X19654000Y-13231714D01*
X19663524Y-13222190D01*
X19682571Y-13212667D01*
X19730190Y-13212667D01*
X19749238Y-13222190D01*
X19758762Y-13231714D01*
X19768286Y-13250762D01*
X19768286Y-13298381D01*
X19758762Y-13317428D01*
X19749238Y-13326952D01*
X19730190Y-13336476D01*
X19682571Y-13336476D01*
X19663524Y-13326952D01*
X19654000Y-13317428D01*
X19844476Y-13136476D02*
X19844476Y-13174571D01*
X19920667Y-13136476D02*
X19920667Y-13174571D01*
X20215905Y-13412667D02*
X20206381Y-13403143D01*
X20187333Y-13374571D01*
X20177810Y-13355524D01*
X20168286Y-13326952D01*
X20158762Y-13279333D01*
X20158762Y-13241238D01*
X20168286Y-13193619D01*
X20177810Y-13165048D01*
X20187333Y-13146000D01*
X20206381Y-13117428D01*
X20215905Y-13107905D01*
X20396857Y-13336476D02*
X20282571Y-13336476D01*
X20339714Y-13336476D02*
X20339714Y-13136476D01*
X20320667Y-13165048D01*
X20301619Y-13184095D01*
X20282571Y-13193619D01*
X20568286Y-13136476D02*
X20530190Y-13136476D01*
X20511143Y-13146000D01*
X20501619Y-13155524D01*
X20482571Y-13184095D01*
X20473048Y-13222190D01*
X20473048Y-13298381D01*
X20482571Y-13317428D01*
X20492095Y-13326952D01*
X20511143Y-13336476D01*
X20549238Y-13336476D01*
X20568286Y-13326952D01*
X20577810Y-13317428D01*
X20587333Y-13298381D01*
X20587333Y-13250762D01*
X20577810Y-13231714D01*
X20568286Y-13222190D01*
X20549238Y-13212667D01*
X20511143Y-13212667D01*
X20492095Y-13222190D01*
X20482571Y-13231714D01*
X20473048Y-13250762D01*
X20825429Y-13336476D02*
X20825429Y-13136476D01*
X20911143Y-13336476D02*
X20911143Y-13231714D01*
X20901619Y-13212667D01*
X20882571Y-13203143D01*
X20854000Y-13203143D01*
X20834952Y-13212667D01*
X20825429Y-13222190D01*
X21034952Y-13336476D02*
X21015905Y-13326952D01*
X21006381Y-13317428D01*
X20996857Y-13298381D01*
X20996857Y-13241238D01*
X21006381Y-13222190D01*
X21015905Y-13212667D01*
X21034952Y-13203143D01*
X21063524Y-13203143D01*
X21082571Y-13212667D01*
X21092095Y-13222190D01*
X21101619Y-13241238D01*
X21101619Y-13298381D01*
X21092095Y-13317428D01*
X21082571Y-13326952D01*
X21063524Y-13336476D01*
X21034952Y-13336476D01*
X21215905Y-13336476D02*
X21196857Y-13326952D01*
X21187333Y-13307905D01*
X21187333Y-13136476D01*
X21368286Y-13326952D02*
X21349238Y-13336476D01*
X21311143Y-13336476D01*
X21292095Y-13326952D01*
X21282571Y-13307905D01*
X21282571Y-13231714D01*
X21292095Y-13212667D01*
X21311143Y-13203143D01*
X21349238Y-13203143D01*
X21368286Y-13212667D01*
X21377810Y-13231714D01*
X21377810Y-13250762D01*
X21282571Y-13269809D01*
X21454000Y-13326952D02*
X21473048Y-13336476D01*
X21511143Y-13336476D01*
X21530190Y-13326952D01*
X21539714Y-13307905D01*
X21539714Y-13298381D01*
X21530190Y-13279333D01*
X21511143Y-13269809D01*
X21482571Y-13269809D01*
X21463524Y-13260286D01*
X21454000Y-13241238D01*
X21454000Y-13231714D01*
X21463524Y-13212667D01*
X21482571Y-13203143D01*
X21511143Y-13203143D01*
X21530190Y-13212667D01*
X21606381Y-13412667D02*
X21615905Y-13403143D01*
X21634952Y-13374571D01*
X21644476Y-13355524D01*
X21654000Y-13326952D01*
X21663524Y-13279333D01*
X21663524Y-13241238D01*
X21654000Y-13193619D01*
X21644476Y-13165048D01*
X21634952Y-13146000D01*
X21615905Y-13117428D01*
X21606381Y-13107905D01*
D12*
X16644000Y-13510000D02*
G75*
G03*
X16644000Y-13510000I-50000J0D01*
G01*
D10*
X17006381Y-13600476D02*
X16892095Y-13600476D01*
X16949238Y-13600476D02*
X16949238Y-13400476D01*
X16930190Y-13429048D01*
X16911143Y-13448095D01*
X16892095Y-13457619D01*
X17092095Y-13581428D02*
X17101619Y-13590952D01*
X17092095Y-13600476D01*
X17082571Y-13590952D01*
X17092095Y-13581428D01*
X17092095Y-13600476D01*
X17225429Y-13400476D02*
X17244476Y-13400476D01*
X17263524Y-13410000D01*
X17273048Y-13419524D01*
X17282571Y-13438571D01*
X17292095Y-13476667D01*
X17292095Y-13524286D01*
X17282571Y-13562381D01*
X17273048Y-13581428D01*
X17263524Y-13590952D01*
X17244476Y-13600476D01*
X17225429Y-13600476D01*
X17206381Y-13590952D01*
X17196857Y-13581428D01*
X17187333Y-13562381D01*
X17177810Y-13524286D01*
X17177810Y-13476667D01*
X17187333Y-13438571D01*
X17196857Y-13419524D01*
X17206381Y-13410000D01*
X17225429Y-13400476D01*
X17415905Y-13400476D02*
X17434952Y-13400476D01*
X17454000Y-13410000D01*
X17463524Y-13419524D01*
X17473048Y-13438571D01*
X17482571Y-13476667D01*
X17482571Y-13524286D01*
X17473048Y-13562381D01*
X17463524Y-13581428D01*
X17454000Y-13590952D01*
X17434952Y-13600476D01*
X17415905Y-13600476D01*
X17396857Y-13590952D01*
X17387333Y-13581428D01*
X17377810Y-13562381D01*
X17368286Y-13524286D01*
X17368286Y-13476667D01*
X17377810Y-13438571D01*
X17387333Y-13419524D01*
X17396857Y-13410000D01*
X17415905Y-13400476D01*
X17606381Y-13400476D02*
X17625429Y-13400476D01*
X17644476Y-13410000D01*
X17654000Y-13419524D01*
X17663524Y-13438571D01*
X17673048Y-13476667D01*
X17673048Y-13524286D01*
X17663524Y-13562381D01*
X17654000Y-13581428D01*
X17644476Y-13590952D01*
X17625429Y-13600476D01*
X17606381Y-13600476D01*
X17587333Y-13590952D01*
X17577810Y-13581428D01*
X17568286Y-13562381D01*
X17558762Y-13524286D01*
X17558762Y-13476667D01*
X17568286Y-13438571D01*
X17577810Y-13419524D01*
X17587333Y-13410000D01*
X17606381Y-13400476D01*
X17758762Y-13600476D02*
X17758762Y-13467143D01*
X17758762Y-13486190D02*
X17768286Y-13476667D01*
X17787333Y-13467143D01*
X17815905Y-13467143D01*
X17834952Y-13476667D01*
X17844476Y-13495714D01*
X17844476Y-13600476D01*
X17844476Y-13495714D02*
X17854000Y-13476667D01*
X17873048Y-13467143D01*
X17901619Y-13467143D01*
X17920667Y-13476667D01*
X17930190Y-13495714D01*
X17930190Y-13600476D01*
X18025429Y-13600476D02*
X18025429Y-13467143D01*
X18025429Y-13486190D02*
X18034952Y-13476667D01*
X18054000Y-13467143D01*
X18082571Y-13467143D01*
X18101619Y-13476667D01*
X18111143Y-13495714D01*
X18111143Y-13600476D01*
X18111143Y-13495714D02*
X18120667Y-13476667D01*
X18139714Y-13467143D01*
X18168286Y-13467143D01*
X18187333Y-13476667D01*
X18196857Y-13495714D01*
X18196857Y-13600476D01*
X18587333Y-13390952D02*
X18415905Y-13648095D01*
X18844476Y-13400476D02*
X18863524Y-13400476D01*
X18882571Y-13410000D01*
X18892095Y-13419524D01*
X18901619Y-13438571D01*
X18911143Y-13476667D01*
X18911143Y-13524286D01*
X18901619Y-13562381D01*
X18892095Y-13581428D01*
X18882571Y-13590952D01*
X18863524Y-13600476D01*
X18844476Y-13600476D01*
X18825429Y-13590952D01*
X18815905Y-13581428D01*
X18806381Y-13562381D01*
X18796857Y-13524286D01*
X18796857Y-13476667D01*
X18806381Y-13438571D01*
X18815905Y-13419524D01*
X18825429Y-13410000D01*
X18844476Y-13400476D01*
X18996857Y-13581428D02*
X19006381Y-13590952D01*
X18996857Y-13600476D01*
X18987333Y-13590952D01*
X18996857Y-13581428D01*
X18996857Y-13600476D01*
X19130190Y-13400476D02*
X19149238Y-13400476D01*
X19168286Y-13410000D01*
X19177810Y-13419524D01*
X19187333Y-13438571D01*
X19196857Y-13476667D01*
X19196857Y-13524286D01*
X19187333Y-13562381D01*
X19177810Y-13581428D01*
X19168286Y-13590952D01*
X19149238Y-13600476D01*
X19130190Y-13600476D01*
X19111143Y-13590952D01*
X19101619Y-13581428D01*
X19092095Y-13562381D01*
X19082571Y-13524286D01*
X19082571Y-13476667D01*
X19092095Y-13438571D01*
X19101619Y-13419524D01*
X19111143Y-13410000D01*
X19130190Y-13400476D01*
X19263524Y-13400476D02*
X19387333Y-13400476D01*
X19320667Y-13476667D01*
X19349238Y-13476667D01*
X19368286Y-13486190D01*
X19377810Y-13495714D01*
X19387333Y-13514762D01*
X19387333Y-13562381D01*
X19377810Y-13581428D01*
X19368286Y-13590952D01*
X19349238Y-13600476D01*
X19292095Y-13600476D01*
X19273048Y-13590952D01*
X19263524Y-13581428D01*
X19482571Y-13600476D02*
X19520667Y-13600476D01*
X19539714Y-13590952D01*
X19549238Y-13581428D01*
X19568286Y-13552857D01*
X19577810Y-13514762D01*
X19577810Y-13438571D01*
X19568286Y-13419524D01*
X19558762Y-13410000D01*
X19539714Y-13400476D01*
X19501619Y-13400476D01*
X19482571Y-13410000D01*
X19473048Y-13419524D01*
X19463524Y-13438571D01*
X19463524Y-13486190D01*
X19473048Y-13505238D01*
X19482571Y-13514762D01*
X19501619Y-13524286D01*
X19539714Y-13524286D01*
X19558762Y-13514762D01*
X19568286Y-13505238D01*
X19577810Y-13486190D01*
X19749238Y-13467143D02*
X19749238Y-13600476D01*
X19701619Y-13390952D02*
X19654000Y-13533809D01*
X19777810Y-13533809D01*
X19844476Y-13400476D02*
X19844476Y-13438571D01*
X19920667Y-13400476D02*
X19920667Y-13438571D01*
X20215905Y-13676667D02*
X20206381Y-13667143D01*
X20187333Y-13638571D01*
X20177810Y-13619524D01*
X20168286Y-13590952D01*
X20158762Y-13543333D01*
X20158762Y-13505238D01*
X20168286Y-13457619D01*
X20177810Y-13429048D01*
X20187333Y-13410000D01*
X20206381Y-13381428D01*
X20215905Y-13371905D01*
X20396857Y-13600476D02*
X20282571Y-13600476D01*
X20339714Y-13600476D02*
X20339714Y-13400476D01*
X20320667Y-13429048D01*
X20301619Y-13448095D01*
X20282571Y-13457619D01*
X20568286Y-13400476D02*
X20530190Y-13400476D01*
X20511143Y-13410000D01*
X20501619Y-13419524D01*
X20482571Y-13448095D01*
X20473048Y-13486190D01*
X20473048Y-13562381D01*
X20482571Y-13581428D01*
X20492095Y-13590952D01*
X20511143Y-13600476D01*
X20549238Y-13600476D01*
X20568286Y-13590952D01*
X20577810Y-13581428D01*
X20587333Y-13562381D01*
X20587333Y-13514762D01*
X20577810Y-13495714D01*
X20568286Y-13486190D01*
X20549238Y-13476667D01*
X20511143Y-13476667D01*
X20492095Y-13486190D01*
X20482571Y-13495714D01*
X20473048Y-13514762D01*
X20825429Y-13600476D02*
X20825429Y-13400476D01*
X20911143Y-13600476D02*
X20911143Y-13495714D01*
X20901619Y-13476667D01*
X20882571Y-13467143D01*
X20854000Y-13467143D01*
X20834952Y-13476667D01*
X20825429Y-13486190D01*
X21034952Y-13600476D02*
X21015905Y-13590952D01*
X21006381Y-13581428D01*
X20996857Y-13562381D01*
X20996857Y-13505238D01*
X21006381Y-13486190D01*
X21015905Y-13476667D01*
X21034952Y-13467143D01*
X21063524Y-13467143D01*
X21082571Y-13476667D01*
X21092095Y-13486190D01*
X21101619Y-13505238D01*
X21101619Y-13562381D01*
X21092095Y-13581428D01*
X21082571Y-13590952D01*
X21063524Y-13600476D01*
X21034952Y-13600476D01*
X21215905Y-13600476D02*
X21196857Y-13590952D01*
X21187333Y-13571905D01*
X21187333Y-13400476D01*
X21368286Y-13590952D02*
X21349238Y-13600476D01*
X21311143Y-13600476D01*
X21292095Y-13590952D01*
X21282571Y-13571905D01*
X21282571Y-13495714D01*
X21292095Y-13476667D01*
X21311143Y-13467143D01*
X21349238Y-13467143D01*
X21368286Y-13476667D01*
X21377810Y-13495714D01*
X21377810Y-13514762D01*
X21282571Y-13533809D01*
X21454000Y-13590952D02*
X21473048Y-13600476D01*
X21511143Y-13600476D01*
X21530190Y-13590952D01*
X21539714Y-13571905D01*
X21539714Y-13562381D01*
X21530190Y-13543333D01*
X21511143Y-13533809D01*
X21482571Y-13533809D01*
X21463524Y-13524286D01*
X21454000Y-13505238D01*
X21454000Y-13495714D01*
X21463524Y-13476667D01*
X21482571Y-13467143D01*
X21511143Y-13467143D01*
X21530190Y-13476667D01*
X21606381Y-13676667D02*
X21615905Y-13667143D01*
X21634952Y-13638571D01*
X21644476Y-13619524D01*
X21654000Y-13590952D01*
X21663524Y-13543333D01*
X21663524Y-13505238D01*
X21654000Y-13457619D01*
X21644476Y-13429048D01*
X21634952Y-13410000D01*
X21615905Y-13381428D01*
X21606381Y-13371905D01*
D13*
X16569000Y-13699000D02*
X16569000Y-13849000D01*
X16494000Y-13774000D02*
X16644000Y-13774000D01*
D10*
X17006381Y-13864476D02*
X16892095Y-13864476D01*
X16949238Y-13864476D02*
X16949238Y-13664476D01*
X16930190Y-13693048D01*
X16911143Y-13712095D01*
X16892095Y-13721619D01*
X17092095Y-13845428D02*
X17101619Y-13854952D01*
X17092095Y-13864476D01*
X17082571Y-13854952D01*
X17092095Y-13845428D01*
X17092095Y-13864476D01*
X17282571Y-13664476D02*
X17187333Y-13664476D01*
X17177810Y-13759714D01*
X17187333Y-13750190D01*
X17206381Y-13740667D01*
X17254000Y-13740667D01*
X17273048Y-13750190D01*
X17282571Y-13759714D01*
X17292095Y-13778762D01*
X17292095Y-13826381D01*
X17282571Y-13845428D01*
X17273048Y-13854952D01*
X17254000Y-13864476D01*
X17206381Y-13864476D01*
X17187333Y-13854952D01*
X17177810Y-13845428D01*
X17415905Y-13664476D02*
X17434952Y-13664476D01*
X17454000Y-13674000D01*
X17463524Y-13683524D01*
X17473048Y-13702571D01*
X17482571Y-13740667D01*
X17482571Y-13788286D01*
X17473048Y-13826381D01*
X17463524Y-13845428D01*
X17454000Y-13854952D01*
X17434952Y-13864476D01*
X17415905Y-13864476D01*
X17396857Y-13854952D01*
X17387333Y-13845428D01*
X17377810Y-13826381D01*
X17368286Y-13788286D01*
X17368286Y-13740667D01*
X17377810Y-13702571D01*
X17387333Y-13683524D01*
X17396857Y-13674000D01*
X17415905Y-13664476D01*
X17606381Y-13664476D02*
X17625429Y-13664476D01*
X17644476Y-13674000D01*
X17654000Y-13683524D01*
X17663524Y-13702571D01*
X17673048Y-13740667D01*
X17673048Y-13788286D01*
X17663524Y-13826381D01*
X17654000Y-13845428D01*
X17644476Y-13854952D01*
X17625429Y-13864476D01*
X17606381Y-13864476D01*
X17587333Y-13854952D01*
X17577810Y-13845428D01*
X17568286Y-13826381D01*
X17558762Y-13788286D01*
X17558762Y-13740667D01*
X17568286Y-13702571D01*
X17577810Y-13683524D01*
X17587333Y-13674000D01*
X17606381Y-13664476D01*
X17758762Y-13864476D02*
X17758762Y-13731143D01*
X17758762Y-13750190D02*
X17768286Y-13740667D01*
X17787333Y-13731143D01*
X17815905Y-13731143D01*
X17834952Y-13740667D01*
X17844476Y-13759714D01*
X17844476Y-13864476D01*
X17844476Y-13759714D02*
X17854000Y-13740667D01*
X17873048Y-13731143D01*
X17901619Y-13731143D01*
X17920667Y-13740667D01*
X17930190Y-13759714D01*
X17930190Y-13864476D01*
X18025429Y-13864476D02*
X18025429Y-13731143D01*
X18025429Y-13750190D02*
X18034952Y-13740667D01*
X18054000Y-13731143D01*
X18082571Y-13731143D01*
X18101619Y-13740667D01*
X18111143Y-13759714D01*
X18111143Y-13864476D01*
X18111143Y-13759714D02*
X18120667Y-13740667D01*
X18139714Y-13731143D01*
X18168286Y-13731143D01*
X18187333Y-13740667D01*
X18196857Y-13759714D01*
X18196857Y-13864476D01*
X18587333Y-13654952D02*
X18415905Y-13912095D01*
X18844476Y-13664476D02*
X18863524Y-13664476D01*
X18882571Y-13674000D01*
X18892095Y-13683524D01*
X18901619Y-13702571D01*
X18911143Y-13740667D01*
X18911143Y-13788286D01*
X18901619Y-13826381D01*
X18892095Y-13845428D01*
X18882571Y-13854952D01*
X18863524Y-13864476D01*
X18844476Y-13864476D01*
X18825429Y-13854952D01*
X18815905Y-13845428D01*
X18806381Y-13826381D01*
X18796857Y-13788286D01*
X18796857Y-13740667D01*
X18806381Y-13702571D01*
X18815905Y-13683524D01*
X18825429Y-13674000D01*
X18844476Y-13664476D01*
X18996857Y-13845428D02*
X19006381Y-13854952D01*
X18996857Y-13864476D01*
X18987333Y-13854952D01*
X18996857Y-13845428D01*
X18996857Y-13864476D01*
X19130190Y-13664476D02*
X19149238Y-13664476D01*
X19168286Y-13674000D01*
X19177810Y-13683524D01*
X19187333Y-13702571D01*
X19196857Y-13740667D01*
X19196857Y-13788286D01*
X19187333Y-13826381D01*
X19177810Y-13845428D01*
X19168286Y-13854952D01*
X19149238Y-13864476D01*
X19130190Y-13864476D01*
X19111143Y-13854952D01*
X19101619Y-13845428D01*
X19092095Y-13826381D01*
X19082571Y-13788286D01*
X19082571Y-13740667D01*
X19092095Y-13702571D01*
X19101619Y-13683524D01*
X19111143Y-13674000D01*
X19130190Y-13664476D01*
X19377810Y-13664476D02*
X19282571Y-13664476D01*
X19273048Y-13759714D01*
X19282571Y-13750190D01*
X19301619Y-13740667D01*
X19349238Y-13740667D01*
X19368286Y-13750190D01*
X19377810Y-13759714D01*
X19387333Y-13778762D01*
X19387333Y-13826381D01*
X19377810Y-13845428D01*
X19368286Y-13854952D01*
X19349238Y-13864476D01*
X19301619Y-13864476D01*
X19282571Y-13854952D01*
X19273048Y-13845428D01*
X19482571Y-13864476D02*
X19520667Y-13864476D01*
X19539714Y-13854952D01*
X19549238Y-13845428D01*
X19568286Y-13816857D01*
X19577810Y-13778762D01*
X19577810Y-13702571D01*
X19568286Y-13683524D01*
X19558762Y-13674000D01*
X19539714Y-13664476D01*
X19501619Y-13664476D01*
X19482571Y-13674000D01*
X19473048Y-13683524D01*
X19463524Y-13702571D01*
X19463524Y-13750190D01*
X19473048Y-13769238D01*
X19482571Y-13778762D01*
X19501619Y-13788286D01*
X19539714Y-13788286D01*
X19558762Y-13778762D01*
X19568286Y-13769238D01*
X19577810Y-13750190D01*
X19768286Y-13864476D02*
X19654000Y-13864476D01*
X19711143Y-13864476D02*
X19711143Y-13664476D01*
X19692095Y-13693048D01*
X19673048Y-13712095D01*
X19654000Y-13721619D01*
X19844476Y-13664476D02*
X19844476Y-13702571D01*
X19920667Y-13664476D02*
X19920667Y-13702571D01*
X20215905Y-13940667D02*
X20206381Y-13931143D01*
X20187333Y-13902571D01*
X20177810Y-13883524D01*
X20168286Y-13854952D01*
X20158762Y-13807333D01*
X20158762Y-13769238D01*
X20168286Y-13721619D01*
X20177810Y-13693048D01*
X20187333Y-13674000D01*
X20206381Y-13645428D01*
X20215905Y-13635905D01*
X20377810Y-13731143D02*
X20377810Y-13864476D01*
X20330190Y-13654952D02*
X20282571Y-13797809D01*
X20406381Y-13797809D01*
X20634952Y-13864476D02*
X20634952Y-13664476D01*
X20720667Y-13864476D02*
X20720667Y-13759714D01*
X20711143Y-13740667D01*
X20692095Y-13731143D01*
X20663524Y-13731143D01*
X20644476Y-13740667D01*
X20634952Y-13750190D01*
X20844476Y-13864476D02*
X20825429Y-13854952D01*
X20815905Y-13845428D01*
X20806381Y-13826381D01*
X20806381Y-13769238D01*
X20815905Y-13750190D01*
X20825429Y-13740667D01*
X20844476Y-13731143D01*
X20873048Y-13731143D01*
X20892095Y-13740667D01*
X20901619Y-13750190D01*
X20911143Y-13769238D01*
X20911143Y-13826381D01*
X20901619Y-13845428D01*
X20892095Y-13854952D01*
X20873048Y-13864476D01*
X20844476Y-13864476D01*
X21025429Y-13864476D02*
X21006381Y-13854952D01*
X20996857Y-13835905D01*
X20996857Y-13664476D01*
X21177810Y-13854952D02*
X21158762Y-13864476D01*
X21120667Y-13864476D01*
X21101619Y-13854952D01*
X21092095Y-13835905D01*
X21092095Y-13759714D01*
X21101619Y-13740667D01*
X21120667Y-13731143D01*
X21158762Y-13731143D01*
X21177810Y-13740667D01*
X21187333Y-13759714D01*
X21187333Y-13778762D01*
X21092095Y-13797809D01*
X21263524Y-13854952D02*
X21282571Y-13864476D01*
X21320667Y-13864476D01*
X21339714Y-13854952D01*
X21349238Y-13835905D01*
X21349238Y-13826381D01*
X21339714Y-13807333D01*
X21320667Y-13797809D01*
X21292095Y-13797809D01*
X21273048Y-13788286D01*
X21263524Y-13769238D01*
X21263524Y-13759714D01*
X21273048Y-13740667D01*
X21292095Y-13731143D01*
X21320667Y-13731143D01*
X21339714Y-13740667D01*
X21415905Y-13940667D02*
X21425429Y-13931143D01*
X21444476Y-13902571D01*
X21454000Y-13883524D01*
X21463524Y-13854952D01*
X21473048Y-13807333D01*
X21473048Y-13769238D01*
X21463524Y-13721619D01*
X21454000Y-13693048D01*
X21444476Y-13674000D01*
X21425429Y-13645428D01*
X21415905Y-13635905D01*
M02*
