G04 #@! TF.GenerationSoftware,KiCad,Pcbnew,6.0.10+dfsg-1~bpo11+1*
G04 #@! TF.ProjectId,top,746f702e-6b69-4636-9164-5f7063625858,rev?*
G04 #@! TF.SameCoordinates,Original*
G04 #@! TF.FileFunction,Legend,Top*
G04 #@! TF.FilePolarity,Positive*
%FSLAX46Y46*%
G04 Gerber Fmt 4.6, Leading zero omitted, Abs format (unit mm)*
%MOMM*%
%LPD*%
G01*
G04 APERTURE LIST*
%ADD10C,0.150000*%
G04 #@! TA.AperFunction,Profile*
%ADD11C,0.120000*%
G04 #@! TD*
%ADD12C,0.120000*%
%ADD13O,2.000000X1.500000*%
%ADD14C,0.900000*%
%ADD15C,2.500000*%
%ADD16C,1.700000*%
G04 APERTURE END LIST*
D10*
X167512619Y-104545904D02*
X167245952Y-104164952D01*
X167055476Y-104545904D02*
X167055476Y-103745904D01*
X167360238Y-103745904D01*
X167436428Y-103784000D01*
X167474523Y-103822095D01*
X167512619Y-103898285D01*
X167512619Y-104012571D01*
X167474523Y-104088761D01*
X167436428Y-104126857D01*
X167360238Y-104164952D01*
X167055476Y-104164952D01*
X167817380Y-104507809D02*
X167931666Y-104545904D01*
X168122142Y-104545904D01*
X168198333Y-104507809D01*
X168236428Y-104469714D01*
X168274523Y-104393523D01*
X168274523Y-104317333D01*
X168236428Y-104241142D01*
X168198333Y-104203047D01*
X168122142Y-104164952D01*
X167969761Y-104126857D01*
X167893571Y-104088761D01*
X167855476Y-104050666D01*
X167817380Y-103974476D01*
X167817380Y-103898285D01*
X167855476Y-103822095D01*
X167893571Y-103784000D01*
X167969761Y-103745904D01*
X168160238Y-103745904D01*
X168274523Y-103784000D01*
X168503095Y-103745904D02*
X168960238Y-103745904D01*
X168731666Y-104545904D02*
X168731666Y-103745904D01*
X168731666Y-106893333D02*
X169112619Y-106893333D01*
X168655476Y-107121904D02*
X168922142Y-106321904D01*
X169188809Y-107121904D01*
X169455476Y-107121904D02*
X169455476Y-106321904D01*
X169645952Y-106321904D01*
X169760238Y-106360000D01*
X169836428Y-106436190D01*
X169874523Y-106512380D01*
X169912619Y-106664761D01*
X169912619Y-106779047D01*
X169874523Y-106931428D01*
X169836428Y-107007619D01*
X169760238Y-107083809D01*
X169645952Y-107121904D01*
X169455476Y-107121904D01*
X170712619Y-107045714D02*
X170674523Y-107083809D01*
X170560238Y-107121904D01*
X170484047Y-107121904D01*
X170369761Y-107083809D01*
X170293571Y-107007619D01*
X170255476Y-106931428D01*
X170217380Y-106779047D01*
X170217380Y-106664761D01*
X170255476Y-106512380D01*
X170293571Y-106436190D01*
X170369761Y-106360000D01*
X170484047Y-106321904D01*
X170560238Y-106321904D01*
X170674523Y-106360000D01*
X170712619Y-106398095D01*
X169493571Y-109278857D02*
X169760238Y-109278857D01*
X169874523Y-109697904D02*
X169493571Y-109697904D01*
X169493571Y-108897904D01*
X169874523Y-108897904D01*
X170217380Y-109697904D02*
X170217380Y-108897904D01*
X170674523Y-109697904D01*
X170674523Y-108897904D01*
X169950714Y-112273904D02*
X169493571Y-112273904D01*
X169722142Y-112273904D02*
X169722142Y-111473904D01*
X169645952Y-111588190D01*
X169569761Y-111664380D01*
X169493571Y-111702476D01*
X170636428Y-111473904D02*
X170484047Y-111473904D01*
X170407857Y-111512000D01*
X170369761Y-111550095D01*
X170293571Y-111664380D01*
X170255476Y-111816761D01*
X170255476Y-112121523D01*
X170293571Y-112197714D01*
X170331666Y-112235809D01*
X170407857Y-112273904D01*
X170560238Y-112273904D01*
X170636428Y-112235809D01*
X170674523Y-112197714D01*
X170712619Y-112121523D01*
X170712619Y-111931047D01*
X170674523Y-111854857D01*
X170636428Y-111816761D01*
X170560238Y-111778666D01*
X170407857Y-111778666D01*
X170331666Y-111816761D01*
X170293571Y-111854857D01*
X170255476Y-111931047D01*
X169950714Y-114849904D02*
X169493571Y-114849904D01*
X169722142Y-114849904D02*
X169722142Y-114049904D01*
X169645952Y-114164190D01*
X169569761Y-114240380D01*
X169493571Y-114278476D01*
X170636428Y-114316571D02*
X170636428Y-114849904D01*
X170445952Y-114011809D02*
X170255476Y-114583238D01*
X170750714Y-114583238D01*
X169950714Y-117425904D02*
X169493571Y-117425904D01*
X169722142Y-117425904D02*
X169722142Y-116625904D01*
X169645952Y-116740190D01*
X169569761Y-116816380D01*
X169493571Y-116854476D01*
X170255476Y-116702095D02*
X170293571Y-116664000D01*
X170369761Y-116625904D01*
X170560238Y-116625904D01*
X170636428Y-116664000D01*
X170674523Y-116702095D01*
X170712619Y-116778285D01*
X170712619Y-116854476D01*
X170674523Y-116968761D01*
X170217380Y-117425904D01*
X170712619Y-117425904D01*
X169950714Y-120001904D02*
X169493571Y-120001904D01*
X169722142Y-120001904D02*
X169722142Y-119201904D01*
X169645952Y-119316190D01*
X169569761Y-119392380D01*
X169493571Y-119430476D01*
X170217380Y-119201904D02*
X170712619Y-119201904D01*
X170445952Y-119506666D01*
X170560238Y-119506666D01*
X170636428Y-119544761D01*
X170674523Y-119582857D01*
X170712619Y-119659047D01*
X170712619Y-119849523D01*
X170674523Y-119925714D01*
X170636428Y-119963809D01*
X170560238Y-120001904D01*
X170331666Y-120001904D01*
X170255476Y-119963809D01*
X170217380Y-119925714D01*
X169569761Y-121777904D02*
X169836428Y-122577904D01*
X170103095Y-121777904D01*
X170712619Y-122539809D02*
X170636428Y-122577904D01*
X170484047Y-122577904D01*
X170407857Y-122539809D01*
X170369761Y-122501714D01*
X170331666Y-122425523D01*
X170331666Y-122196952D01*
X170369761Y-122120761D01*
X170407857Y-122082666D01*
X170484047Y-122044571D01*
X170636428Y-122044571D01*
X170712619Y-122082666D01*
X180273690Y-103745904D02*
X180730833Y-103745904D01*
X180502261Y-104545904D02*
X180502261Y-103745904D01*
X180921309Y-103745904D02*
X181454642Y-104545904D01*
X181454642Y-103745904D02*
X180921309Y-104545904D01*
X180845119Y-107121904D02*
X180578452Y-106740952D01*
X180387976Y-107121904D02*
X180387976Y-106321904D01*
X180692738Y-106321904D01*
X180768928Y-106360000D01*
X180807023Y-106398095D01*
X180845119Y-106474285D01*
X180845119Y-106588571D01*
X180807023Y-106664761D01*
X180768928Y-106702857D01*
X180692738Y-106740952D01*
X180387976Y-106740952D01*
X181111785Y-106321904D02*
X181645119Y-107121904D01*
X181645119Y-106321904D02*
X181111785Y-107121904D01*
X180768928Y-108897904D02*
X180387976Y-108897904D01*
X180349880Y-109278857D01*
X180387976Y-109240761D01*
X180464166Y-109202666D01*
X180654642Y-109202666D01*
X180730833Y-109240761D01*
X180768928Y-109278857D01*
X180807023Y-109355047D01*
X180807023Y-109545523D01*
X180768928Y-109621714D01*
X180730833Y-109659809D01*
X180654642Y-109697904D01*
X180464166Y-109697904D01*
X180387976Y-109659809D01*
X180349880Y-109621714D01*
X180730833Y-111740571D02*
X180730833Y-112273904D01*
X180540357Y-111435809D02*
X180349880Y-112007238D01*
X180845119Y-112007238D01*
X180540357Y-114049904D02*
X180616547Y-114049904D01*
X180692738Y-114088000D01*
X180730833Y-114126095D01*
X180768928Y-114202285D01*
X180807023Y-114354666D01*
X180807023Y-114545142D01*
X180768928Y-114697523D01*
X180730833Y-114773714D01*
X180692738Y-114811809D01*
X180616547Y-114849904D01*
X180540357Y-114849904D01*
X180464166Y-114811809D01*
X180426071Y-114773714D01*
X180387976Y-114697523D01*
X180349880Y-114545142D01*
X180349880Y-114354666D01*
X180387976Y-114202285D01*
X180426071Y-114126095D01*
X180464166Y-114088000D01*
X180540357Y-114049904D01*
X180349880Y-116702095D02*
X180387976Y-116664000D01*
X180464166Y-116625904D01*
X180654642Y-116625904D01*
X180730833Y-116664000D01*
X180768928Y-116702095D01*
X180807023Y-116778285D01*
X180807023Y-116854476D01*
X180768928Y-116968761D01*
X180311785Y-117425904D01*
X180807023Y-117425904D01*
X180807023Y-120001904D02*
X180349880Y-120001904D01*
X180578452Y-120001904D02*
X180578452Y-119201904D01*
X180502261Y-119316190D01*
X180426071Y-119392380D01*
X180349880Y-119430476D01*
X181530833Y-119201904D02*
X181149880Y-119201904D01*
X181111785Y-119582857D01*
X181149880Y-119544761D01*
X181226071Y-119506666D01*
X181416547Y-119506666D01*
X181492738Y-119544761D01*
X181530833Y-119582857D01*
X181568928Y-119659047D01*
X181568928Y-119849523D01*
X181530833Y-119925714D01*
X181492738Y-119963809D01*
X181416547Y-120001904D01*
X181226071Y-120001904D01*
X181149880Y-119963809D01*
X181111785Y-119925714D01*
X180807023Y-121816000D02*
X180730833Y-121777904D01*
X180616547Y-121777904D01*
X180502261Y-121816000D01*
X180426071Y-121892190D01*
X180387976Y-121968380D01*
X180349880Y-122120761D01*
X180349880Y-122235047D01*
X180387976Y-122387428D01*
X180426071Y-122463619D01*
X180502261Y-122539809D01*
X180616547Y-122577904D01*
X180692738Y-122577904D01*
X180807023Y-122539809D01*
X180845119Y-122501714D01*
X180845119Y-122235047D01*
X180692738Y-122235047D01*
X181187976Y-122044571D02*
X181187976Y-122577904D01*
X181187976Y-122120761D02*
X181226071Y-122082666D01*
X181302261Y-122044571D01*
X181416547Y-122044571D01*
X181492738Y-122082666D01*
X181530833Y-122158857D01*
X181530833Y-122577904D01*
D11*
X166500000Y-100000000D02*
X184500000Y-100000000D01*
X184500000Y-100000000D02*
X184500000Y-126000000D01*
X184500000Y-126000000D02*
X166500000Y-126000000D01*
X166500000Y-126000000D02*
X166500000Y-100000000D01*
D12*
X170962500Y-110950000D02*
X172272500Y-110950000D01*
X170962500Y-127100000D02*
X170962500Y-98900000D01*
X172272500Y-110950000D02*
X172272500Y-100200000D01*
X172272500Y-125800000D02*
X172272500Y-115050000D01*
X172272500Y-100200000D02*
X178772500Y-100200000D01*
X180082500Y-98900000D02*
X180082500Y-127100000D01*
X180082500Y-127100000D02*
X170962500Y-127100000D01*
X169572500Y-104610000D02*
X170572500Y-104110000D01*
X178772500Y-125800000D02*
X172272500Y-125800000D01*
X169572500Y-103610000D02*
X169572500Y-104610000D01*
X170962500Y-98900000D02*
X180082500Y-98900000D01*
X178772500Y-100200000D02*
X178772500Y-125800000D01*
X172272500Y-115050000D02*
X172272500Y-115050000D01*
X172272500Y-115050000D02*
X170962500Y-115050000D01*
X170572500Y-104110000D02*
X169572500Y-103610000D01*
%LPC*%
D13*
X168250000Y-109600000D03*
X168250000Y-111600000D03*
X168250000Y-113600000D03*
X168250000Y-115600000D03*
X168250000Y-117600000D03*
X168250000Y-119600000D03*
X168250000Y-121600000D03*
X168250000Y-123600000D03*
X182750000Y-123600000D03*
X182750000Y-121600000D03*
X182750000Y-119600000D03*
X182750000Y-117600000D03*
X182750000Y-115600000D03*
X182750000Y-113600000D03*
X182750000Y-111600000D03*
X182750000Y-109600000D03*
D14*
X182500000Y-103000000D03*
X171500000Y-125000000D03*
X168500000Y-106000000D03*
D15*
X168000000Y-100000000D03*
X183000000Y-100000000D03*
X183000000Y-126000000D03*
X168000000Y-126000000D03*
G36*
G01*
X173402500Y-104710000D02*
X173402500Y-103510000D01*
G75*
G02*
X173652500Y-103260000I250000J0D01*
G01*
X174852500Y-103260000D01*
G75*
G02*
X175102500Y-103510000I0J-250000D01*
G01*
X175102500Y-104710000D01*
G75*
G02*
X174852500Y-104960000I-250000J0D01*
G01*
X173652500Y-104960000D01*
G75*
G02*
X173402500Y-104710000I0J250000D01*
G01*
G37*
D16*
X176792500Y-104110000D03*
X174252500Y-106650000D03*
X176792500Y-106650000D03*
X174252500Y-109190000D03*
X176792500Y-109190000D03*
X174252500Y-111730000D03*
X176792500Y-111730000D03*
X174252500Y-114270000D03*
X176792500Y-114270000D03*
X174252500Y-116810000D03*
X176792500Y-116810000D03*
X174252500Y-119350000D03*
X176792500Y-119350000D03*
X174252500Y-121890000D03*
X176792500Y-121890000D03*
M02*
