%TF.GenerationSoftware,KiCad,Pcbnew,6.0.10+dfsg-1~bpo11+1*%
%TF.ProjectId,top,746f702e-6b69-4636-9164-5f7063625858,rev?*%
%TF.SameCoordinates,Original*%
%TF.FileFunction,Drillmap*%
%TF.FilePolarity,Positive*%
%FSLAX45Y45*%
G04 Gerber Fmt 4.5, Leading zero omitted, Abs format (unit mm)*
%MOMM*%
%LPD*%
G01*
G04 APERTURE LIST*
%ADD10C,0.200000*%
%ADD11C,0.090000*%
G04 APERTURE END LIST*
D10*
D11*
X16805000Y-10555000D02*
X16895000Y-10645000D01*
X16895000Y-10555000D02*
X16805000Y-10645000D01*
X17105000Y-12455000D02*
X17195000Y-12545000D01*
X17195000Y-12455000D02*
X17105000Y-12545000D01*
X18205000Y-10255000D02*
X18295000Y-10345000D01*
X18295000Y-10255000D02*
X18205000Y-10345000D01*
D10*
X16901619Y-12916476D02*
X16901619Y-12716476D01*
X16949238Y-12716476D01*
X16977810Y-12726000D01*
X16996857Y-12745048D01*
X17006381Y-12764095D01*
X17015905Y-12802190D01*
X17015905Y-12830762D01*
X17006381Y-12868857D01*
X16996857Y-12887905D01*
X16977810Y-12906952D01*
X16949238Y-12916476D01*
X16901619Y-12916476D01*
X17101619Y-12916476D02*
X17101619Y-12783143D01*
X17101619Y-12821238D02*
X17111143Y-12802190D01*
X17120667Y-12792667D01*
X17139714Y-12783143D01*
X17158762Y-12783143D01*
X17225429Y-12916476D02*
X17225429Y-12783143D01*
X17225429Y-12716476D02*
X17215905Y-12726000D01*
X17225429Y-12735524D01*
X17234952Y-12726000D01*
X17225429Y-12716476D01*
X17225429Y-12735524D01*
X17349238Y-12916476D02*
X17330190Y-12906952D01*
X17320667Y-12887905D01*
X17320667Y-12716476D01*
X17454000Y-12916476D02*
X17434952Y-12906952D01*
X17425429Y-12887905D01*
X17425429Y-12716476D01*
X17682571Y-12916476D02*
X17682571Y-12716476D01*
X17749238Y-12859333D01*
X17815905Y-12716476D01*
X17815905Y-12916476D01*
X17996857Y-12916476D02*
X17996857Y-12811714D01*
X17987333Y-12792667D01*
X17968286Y-12783143D01*
X17930190Y-12783143D01*
X17911143Y-12792667D01*
X17996857Y-12906952D02*
X17977810Y-12916476D01*
X17930190Y-12916476D01*
X17911143Y-12906952D01*
X17901619Y-12887905D01*
X17901619Y-12868857D01*
X17911143Y-12849809D01*
X17930190Y-12840286D01*
X17977810Y-12840286D01*
X17996857Y-12830762D01*
X18092095Y-12783143D02*
X18092095Y-12983143D01*
X18092095Y-12792667D02*
X18111143Y-12783143D01*
X18149238Y-12783143D01*
X18168286Y-12792667D01*
X18177810Y-12802190D01*
X18187333Y-12821238D01*
X18187333Y-12878381D01*
X18177810Y-12897428D01*
X18168286Y-12906952D01*
X18149238Y-12916476D01*
X18111143Y-12916476D01*
X18092095Y-12906952D01*
X18273048Y-12897428D02*
X18282571Y-12906952D01*
X18273048Y-12916476D01*
X18263524Y-12906952D01*
X18273048Y-12897428D01*
X18273048Y-12916476D01*
X18273048Y-12792667D02*
X18282571Y-12802190D01*
X18273048Y-12811714D01*
X18263524Y-12802190D01*
X18273048Y-12792667D01*
X18273048Y-12811714D01*
D11*
X16554000Y-13201000D02*
X16644000Y-13291000D01*
X16644000Y-13201000D02*
X16554000Y-13291000D01*
D10*
X16939714Y-13136476D02*
X16958762Y-13136476D01*
X16977810Y-13146000D01*
X16987333Y-13155524D01*
X16996857Y-13174571D01*
X17006381Y-13212667D01*
X17006381Y-13260286D01*
X16996857Y-13298381D01*
X16987333Y-13317428D01*
X16977810Y-13326952D01*
X16958762Y-13336476D01*
X16939714Y-13336476D01*
X16920667Y-13326952D01*
X16911143Y-13317428D01*
X16901619Y-13298381D01*
X16892095Y-13260286D01*
X16892095Y-13212667D01*
X16901619Y-13174571D01*
X16911143Y-13155524D01*
X16920667Y-13146000D01*
X16939714Y-13136476D01*
X17092095Y-13317428D02*
X17101619Y-13326952D01*
X17092095Y-13336476D01*
X17082571Y-13326952D01*
X17092095Y-13317428D01*
X17092095Y-13336476D01*
X17196857Y-13336476D02*
X17234952Y-13336476D01*
X17254000Y-13326952D01*
X17263524Y-13317428D01*
X17282571Y-13288857D01*
X17292095Y-13250762D01*
X17292095Y-13174571D01*
X17282571Y-13155524D01*
X17273048Y-13146000D01*
X17254000Y-13136476D01*
X17215905Y-13136476D01*
X17196857Y-13146000D01*
X17187333Y-13155524D01*
X17177810Y-13174571D01*
X17177810Y-13222190D01*
X17187333Y-13241238D01*
X17196857Y-13250762D01*
X17215905Y-13260286D01*
X17254000Y-13260286D01*
X17273048Y-13250762D01*
X17282571Y-13241238D01*
X17292095Y-13222190D01*
X17415905Y-13136476D02*
X17434952Y-13136476D01*
X17454000Y-13146000D01*
X17463524Y-13155524D01*
X17473048Y-13174571D01*
X17482571Y-13212667D01*
X17482571Y-13260286D01*
X17473048Y-13298381D01*
X17463524Y-13317428D01*
X17454000Y-13326952D01*
X17434952Y-13336476D01*
X17415905Y-13336476D01*
X17396857Y-13326952D01*
X17387333Y-13317428D01*
X17377810Y-13298381D01*
X17368286Y-13260286D01*
X17368286Y-13212667D01*
X17377810Y-13174571D01*
X17387333Y-13155524D01*
X17396857Y-13146000D01*
X17415905Y-13136476D01*
X17606381Y-13136476D02*
X17625429Y-13136476D01*
X17644476Y-13146000D01*
X17654000Y-13155524D01*
X17663524Y-13174571D01*
X17673048Y-13212667D01*
X17673048Y-13260286D01*
X17663524Y-13298381D01*
X17654000Y-13317428D01*
X17644476Y-13326952D01*
X17625429Y-13336476D01*
X17606381Y-13336476D01*
X17587333Y-13326952D01*
X17577810Y-13317428D01*
X17568286Y-13298381D01*
X17558762Y-13260286D01*
X17558762Y-13212667D01*
X17568286Y-13174571D01*
X17577810Y-13155524D01*
X17587333Y-13146000D01*
X17606381Y-13136476D01*
X17758762Y-13336476D02*
X17758762Y-13203143D01*
X17758762Y-13222190D02*
X17768286Y-13212667D01*
X17787333Y-13203143D01*
X17815905Y-13203143D01*
X17834952Y-13212667D01*
X17844476Y-13231714D01*
X17844476Y-13336476D01*
X17844476Y-13231714D02*
X17854000Y-13212667D01*
X17873048Y-13203143D01*
X17901619Y-13203143D01*
X17920667Y-13212667D01*
X17930190Y-13231714D01*
X17930190Y-13336476D01*
X18025429Y-13336476D02*
X18025429Y-13203143D01*
X18025429Y-13222190D02*
X18034952Y-13212667D01*
X18054000Y-13203143D01*
X18082571Y-13203143D01*
X18101619Y-13212667D01*
X18111143Y-13231714D01*
X18111143Y-13336476D01*
X18111143Y-13231714D02*
X18120667Y-13212667D01*
X18139714Y-13203143D01*
X18168286Y-13203143D01*
X18187333Y-13212667D01*
X18196857Y-13231714D01*
X18196857Y-13336476D01*
X18587333Y-13126952D02*
X18415905Y-13384095D01*
X18844476Y-13136476D02*
X18863524Y-13136476D01*
X18882571Y-13146000D01*
X18892095Y-13155524D01*
X18901619Y-13174571D01*
X18911143Y-13212667D01*
X18911143Y-13260286D01*
X18901619Y-13298381D01*
X18892095Y-13317428D01*
X18882571Y-13326952D01*
X18863524Y-13336476D01*
X18844476Y-13336476D01*
X18825429Y-13326952D01*
X18815905Y-13317428D01*
X18806381Y-13298381D01*
X18796857Y-13260286D01*
X18796857Y-13212667D01*
X18806381Y-13174571D01*
X18815905Y-13155524D01*
X18825429Y-13146000D01*
X18844476Y-13136476D01*
X18996857Y-13317428D02*
X19006381Y-13326952D01*
X18996857Y-13336476D01*
X18987333Y-13326952D01*
X18996857Y-13317428D01*
X18996857Y-13336476D01*
X19130190Y-13136476D02*
X19149238Y-13136476D01*
X19168286Y-13146000D01*
X19177810Y-13155524D01*
X19187333Y-13174571D01*
X19196857Y-13212667D01*
X19196857Y-13260286D01*
X19187333Y-13298381D01*
X19177810Y-13317428D01*
X19168286Y-13326952D01*
X19149238Y-13336476D01*
X19130190Y-13336476D01*
X19111143Y-13326952D01*
X19101619Y-13317428D01*
X19092095Y-13298381D01*
X19082571Y-13260286D01*
X19082571Y-13212667D01*
X19092095Y-13174571D01*
X19101619Y-13155524D01*
X19111143Y-13146000D01*
X19130190Y-13136476D01*
X19263524Y-13136476D02*
X19387333Y-13136476D01*
X19320667Y-13212667D01*
X19349238Y-13212667D01*
X19368286Y-13222190D01*
X19377810Y-13231714D01*
X19387333Y-13250762D01*
X19387333Y-13298381D01*
X19377810Y-13317428D01*
X19368286Y-13326952D01*
X19349238Y-13336476D01*
X19292095Y-13336476D01*
X19273048Y-13326952D01*
X19263524Y-13317428D01*
X19568286Y-13136476D02*
X19473048Y-13136476D01*
X19463524Y-13231714D01*
X19473048Y-13222190D01*
X19492095Y-13212667D01*
X19539714Y-13212667D01*
X19558762Y-13222190D01*
X19568286Y-13231714D01*
X19577810Y-13250762D01*
X19577810Y-13298381D01*
X19568286Y-13317428D01*
X19558762Y-13326952D01*
X19539714Y-13336476D01*
X19492095Y-13336476D01*
X19473048Y-13326952D01*
X19463524Y-13317428D01*
X19749238Y-13203143D02*
X19749238Y-13336476D01*
X19701619Y-13126952D02*
X19654000Y-13269809D01*
X19777810Y-13269809D01*
X19844476Y-13136476D02*
X19844476Y-13174571D01*
X19920667Y-13136476D02*
X19920667Y-13174571D01*
X20215905Y-13412667D02*
X20206381Y-13403143D01*
X20187333Y-13374571D01*
X20177810Y-13355524D01*
X20168286Y-13326952D01*
X20158762Y-13279333D01*
X20158762Y-13241238D01*
X20168286Y-13193619D01*
X20177810Y-13165048D01*
X20187333Y-13146000D01*
X20206381Y-13117428D01*
X20215905Y-13107905D01*
X20273048Y-13136476D02*
X20396857Y-13136476D01*
X20330190Y-13212667D01*
X20358762Y-13212667D01*
X20377810Y-13222190D01*
X20387333Y-13231714D01*
X20396857Y-13250762D01*
X20396857Y-13298381D01*
X20387333Y-13317428D01*
X20377810Y-13326952D01*
X20358762Y-13336476D01*
X20301619Y-13336476D01*
X20282571Y-13326952D01*
X20273048Y-13317428D01*
X20634952Y-13336476D02*
X20634952Y-13136476D01*
X20720667Y-13336476D02*
X20720667Y-13231714D01*
X20711143Y-13212667D01*
X20692095Y-13203143D01*
X20663524Y-13203143D01*
X20644476Y-13212667D01*
X20634952Y-13222190D01*
X20844476Y-13336476D02*
X20825429Y-13326952D01*
X20815905Y-13317428D01*
X20806381Y-13298381D01*
X20806381Y-13241238D01*
X20815905Y-13222190D01*
X20825429Y-13212667D01*
X20844476Y-13203143D01*
X20873048Y-13203143D01*
X20892095Y-13212667D01*
X20901619Y-13222190D01*
X20911143Y-13241238D01*
X20911143Y-13298381D01*
X20901619Y-13317428D01*
X20892095Y-13326952D01*
X20873048Y-13336476D01*
X20844476Y-13336476D01*
X21025429Y-13336476D02*
X21006381Y-13326952D01*
X20996857Y-13307905D01*
X20996857Y-13136476D01*
X21177810Y-13326952D02*
X21158762Y-13336476D01*
X21120667Y-13336476D01*
X21101619Y-13326952D01*
X21092095Y-13307905D01*
X21092095Y-13231714D01*
X21101619Y-13212667D01*
X21120667Y-13203143D01*
X21158762Y-13203143D01*
X21177810Y-13212667D01*
X21187333Y-13231714D01*
X21187333Y-13250762D01*
X21092095Y-13269809D01*
X21263524Y-13326952D02*
X21282571Y-13336476D01*
X21320667Y-13336476D01*
X21339714Y-13326952D01*
X21349238Y-13307905D01*
X21349238Y-13298381D01*
X21339714Y-13279333D01*
X21320667Y-13269809D01*
X21292095Y-13269809D01*
X21273048Y-13260286D01*
X21263524Y-13241238D01*
X21263524Y-13231714D01*
X21273048Y-13212667D01*
X21292095Y-13203143D01*
X21320667Y-13203143D01*
X21339714Y-13212667D01*
X21415905Y-13412667D02*
X21425429Y-13403143D01*
X21444476Y-13374571D01*
X21454000Y-13355524D01*
X21463524Y-13326952D01*
X21473048Y-13279333D01*
X21473048Y-13241238D01*
X21463524Y-13193619D01*
X21454000Y-13165048D01*
X21444476Y-13146000D01*
X21425429Y-13117428D01*
X21415905Y-13107905D01*
X21777810Y-13412667D02*
X21768286Y-13403143D01*
X21749238Y-13374571D01*
X21739714Y-13355524D01*
X21730190Y-13326952D01*
X21720667Y-13279333D01*
X21720667Y-13241238D01*
X21730190Y-13193619D01*
X21739714Y-13165048D01*
X21749238Y-13146000D01*
X21768286Y-13117428D01*
X21777810Y-13107905D01*
X21854000Y-13203143D02*
X21854000Y-13336476D01*
X21854000Y-13222190D02*
X21863524Y-13212667D01*
X21882571Y-13203143D01*
X21911143Y-13203143D01*
X21930190Y-13212667D01*
X21939714Y-13231714D01*
X21939714Y-13336476D01*
X22063524Y-13336476D02*
X22044476Y-13326952D01*
X22034952Y-13317428D01*
X22025429Y-13298381D01*
X22025429Y-13241238D01*
X22034952Y-13222190D01*
X22044476Y-13212667D01*
X22063524Y-13203143D01*
X22092095Y-13203143D01*
X22111143Y-13212667D01*
X22120667Y-13222190D01*
X22130190Y-13241238D01*
X22130190Y-13298381D01*
X22120667Y-13317428D01*
X22111143Y-13326952D01*
X22092095Y-13336476D01*
X22063524Y-13336476D01*
X22187333Y-13203143D02*
X22263524Y-13203143D01*
X22215905Y-13136476D02*
X22215905Y-13307905D01*
X22225429Y-13326952D01*
X22244476Y-13336476D01*
X22263524Y-13336476D01*
X22482571Y-13203143D02*
X22482571Y-13403143D01*
X22482571Y-13212667D02*
X22501619Y-13203143D01*
X22539714Y-13203143D01*
X22558762Y-13212667D01*
X22568286Y-13222190D01*
X22577809Y-13241238D01*
X22577809Y-13298381D01*
X22568286Y-13317428D01*
X22558762Y-13326952D01*
X22539714Y-13336476D01*
X22501619Y-13336476D01*
X22482571Y-13326952D01*
X22692095Y-13336476D02*
X22673048Y-13326952D01*
X22663524Y-13307905D01*
X22663524Y-13136476D01*
X22854000Y-13336476D02*
X22854000Y-13231714D01*
X22844476Y-13212667D01*
X22825428Y-13203143D01*
X22787333Y-13203143D01*
X22768286Y-13212667D01*
X22854000Y-13326952D02*
X22834952Y-13336476D01*
X22787333Y-13336476D01*
X22768286Y-13326952D01*
X22758762Y-13307905D01*
X22758762Y-13288857D01*
X22768286Y-13269809D01*
X22787333Y-13260286D01*
X22834952Y-13260286D01*
X22854000Y-13250762D01*
X22920667Y-13203143D02*
X22996857Y-13203143D01*
X22949238Y-13136476D02*
X22949238Y-13307905D01*
X22958762Y-13326952D01*
X22977809Y-13336476D01*
X22996857Y-13336476D01*
X23139714Y-13326952D02*
X23120667Y-13336476D01*
X23082571Y-13336476D01*
X23063524Y-13326952D01*
X23054000Y-13307905D01*
X23054000Y-13231714D01*
X23063524Y-13212667D01*
X23082571Y-13203143D01*
X23120667Y-13203143D01*
X23139714Y-13212667D01*
X23149238Y-13231714D01*
X23149238Y-13250762D01*
X23054000Y-13269809D01*
X23320667Y-13336476D02*
X23320667Y-13136476D01*
X23320667Y-13326952D02*
X23301619Y-13336476D01*
X23263524Y-13336476D01*
X23244476Y-13326952D01*
X23234952Y-13317428D01*
X23225428Y-13298381D01*
X23225428Y-13241238D01*
X23234952Y-13222190D01*
X23244476Y-13212667D01*
X23263524Y-13203143D01*
X23301619Y-13203143D01*
X23320667Y-13212667D01*
X23396857Y-13412667D02*
X23406381Y-13403143D01*
X23425428Y-13374571D01*
X23434952Y-13355524D01*
X23444476Y-13326952D01*
X23454000Y-13279333D01*
X23454000Y-13241238D01*
X23444476Y-13193619D01*
X23434952Y-13165048D01*
X23425428Y-13146000D01*
X23406381Y-13117428D01*
X23396857Y-13107905D01*
M02*
