G04 #@! TF.GenerationSoftware,KiCad,Pcbnew,6.0.10+dfsg-1~bpo11+1*
G04 #@! TF.ProjectId,top,746f702e-6b69-4636-9164-5f7063625858,rev?*
G04 #@! TF.SameCoordinates,Original*
G04 #@! TF.FileFunction,Soldermask,Bot*
G04 #@! TF.FilePolarity,Negative*
%FSLAX46Y46*%
G04 Gerber Fmt 4.6, Leading zero omitted, Abs format (unit mm)*
%MOMM*%
%LPD*%
G01*
G04 APERTURE LIST*
G04 #@! TA.AperFunction,Profile*
%ADD10C,0.120000*%
G04 #@! TD*
%ADD11C,1.500000*%
%ADD12C,0.900000*%
%ADD13C,2.500000*%
%ADD14C,1.700000*%
G04 APERTURE END LIST*
D10*
X166500000Y-100000000D02*
X184500000Y-100000000D01*
X184500000Y-100000000D02*
X184500000Y-126000000D01*
X184500000Y-126000000D02*
X166500000Y-126000000D01*
X166500000Y-126000000D02*
X166500000Y-100000000D01*
D11*
X168500000Y-109600000D03*
X168500000Y-111600000D03*
X168500000Y-113600000D03*
X168500000Y-115600000D03*
X168500000Y-117600000D03*
X168500000Y-119600000D03*
X168500000Y-121600000D03*
X168500000Y-123600000D03*
X182500000Y-123600000D03*
X182500000Y-121600000D03*
X182500000Y-119600000D03*
X182500000Y-117600000D03*
X182500000Y-115600000D03*
X182500000Y-113600000D03*
X182500000Y-111600000D03*
X182500000Y-109600000D03*
D12*
X171500000Y-125000000D03*
X168500000Y-106000000D03*
X182500000Y-103000000D03*
D13*
X168000000Y-100000000D03*
X183000000Y-100000000D03*
X183000000Y-126000000D03*
X168000000Y-126000000D03*
G36*
G01*
X173402500Y-104710000D02*
X173402500Y-103510000D01*
G75*
G02*
X173652500Y-103260000I250000J0D01*
G01*
X174852500Y-103260000D01*
G75*
G02*
X175102500Y-103510000I0J-250000D01*
G01*
X175102500Y-104710000D01*
G75*
G02*
X174852500Y-104960000I-250000J0D01*
G01*
X173652500Y-104960000D01*
G75*
G02*
X173402500Y-104710000I0J250000D01*
G01*
G37*
D14*
X176792500Y-104110000D03*
X174252500Y-106650000D03*
X176792500Y-106650000D03*
X174252500Y-109190000D03*
X176792500Y-109190000D03*
X174252500Y-111730000D03*
X176792500Y-111730000D03*
X174252500Y-114270000D03*
X176792500Y-114270000D03*
X174252500Y-116810000D03*
X176792500Y-116810000D03*
X174252500Y-119350000D03*
X176792500Y-119350000D03*
X174252500Y-121890000D03*
X176792500Y-121890000D03*
M02*
