%TF.GenerationSoftware,KiCad,Pcbnew,6.0.10+dfsg-1~bpo11+1*%
%TF.ProjectId,bot,626f742e-6b69-4636-9164-5f7063625858,rev?*%
%TF.SameCoordinates,Original*%
%TF.FileFunction,Drillmap*%
%TF.FilePolarity,Positive*%
%FSLAX45Y45*%
G04 Gerber Fmt 4.5, Leading zero omitted, Abs format (unit mm)*
%MOMM*%
%LPD*%
G01*
G04 APERTURE LIST*
%ADD10C,0.200000*%
%ADD11C,0.090000*%
%ADD12C,0.105000*%
G04 APERTURE END LIST*
D10*
D11*
X12805000Y-10555000D02*
X12895000Y-10645000D01*
X12895000Y-10555000D02*
X12805000Y-10645000D01*
X13105000Y-12455000D02*
X13195000Y-12545000D01*
X13195000Y-12455000D02*
X13105000Y-12545000D01*
X14205000Y-10255000D02*
X14295000Y-10345000D01*
X14295000Y-10255000D02*
X14205000Y-10345000D01*
D12*
X12902500Y-10960000D02*
G75*
G03*
X12902500Y-10960000I-52500J0D01*
G01*
X12902500Y-11160000D02*
G75*
G03*
X12902500Y-11160000I-52500J0D01*
G01*
X12902500Y-11360000D02*
G75*
G03*
X12902500Y-11360000I-52500J0D01*
G01*
X12902500Y-11560000D02*
G75*
G03*
X12902500Y-11560000I-52500J0D01*
G01*
X12902500Y-11760000D02*
G75*
G03*
X12902500Y-11760000I-52500J0D01*
G01*
X12902500Y-11960000D02*
G75*
G03*
X12902500Y-11960000I-52500J0D01*
G01*
X12902500Y-12160000D02*
G75*
G03*
X12902500Y-12160000I-52500J0D01*
G01*
X12902500Y-12360000D02*
G75*
G03*
X12902500Y-12360000I-52500J0D01*
G01*
X14302500Y-10960000D02*
G75*
G03*
X14302500Y-10960000I-52500J0D01*
G01*
X14302500Y-11160000D02*
G75*
G03*
X14302500Y-11160000I-52500J0D01*
G01*
X14302500Y-11360000D02*
G75*
G03*
X14302500Y-11360000I-52500J0D01*
G01*
X14302500Y-11560000D02*
G75*
G03*
X14302500Y-11560000I-52500J0D01*
G01*
X14302500Y-11760000D02*
G75*
G03*
X14302500Y-11760000I-52500J0D01*
G01*
X14302500Y-11960000D02*
G75*
G03*
X14302500Y-11960000I-52500J0D01*
G01*
X14302500Y-12160000D02*
G75*
G03*
X14302500Y-12160000I-52500J0D01*
G01*
X14302500Y-12360000D02*
G75*
G03*
X14302500Y-12360000I-52500J0D01*
G01*
D10*
X12901619Y-12916476D02*
X12901619Y-12716476D01*
X12949238Y-12716476D01*
X12977809Y-12726000D01*
X12996857Y-12745048D01*
X13006381Y-12764095D01*
X13015905Y-12802190D01*
X13015905Y-12830762D01*
X13006381Y-12868857D01*
X12996857Y-12887905D01*
X12977809Y-12906952D01*
X12949238Y-12916476D01*
X12901619Y-12916476D01*
X13101619Y-12916476D02*
X13101619Y-12783143D01*
X13101619Y-12821238D02*
X13111143Y-12802190D01*
X13120667Y-12792667D01*
X13139714Y-12783143D01*
X13158762Y-12783143D01*
X13225428Y-12916476D02*
X13225428Y-12783143D01*
X13225428Y-12716476D02*
X13215905Y-12726000D01*
X13225428Y-12735524D01*
X13234952Y-12726000D01*
X13225428Y-12716476D01*
X13225428Y-12735524D01*
X13349238Y-12916476D02*
X13330190Y-12906952D01*
X13320667Y-12887905D01*
X13320667Y-12716476D01*
X13454000Y-12916476D02*
X13434952Y-12906952D01*
X13425428Y-12887905D01*
X13425428Y-12716476D01*
X13682571Y-12916476D02*
X13682571Y-12716476D01*
X13749238Y-12859333D01*
X13815905Y-12716476D01*
X13815905Y-12916476D01*
X13996857Y-12916476D02*
X13996857Y-12811714D01*
X13987333Y-12792667D01*
X13968286Y-12783143D01*
X13930190Y-12783143D01*
X13911143Y-12792667D01*
X13996857Y-12906952D02*
X13977809Y-12916476D01*
X13930190Y-12916476D01*
X13911143Y-12906952D01*
X13901619Y-12887905D01*
X13901619Y-12868857D01*
X13911143Y-12849809D01*
X13930190Y-12840286D01*
X13977809Y-12840286D01*
X13996857Y-12830762D01*
X14092095Y-12783143D02*
X14092095Y-12983143D01*
X14092095Y-12792667D02*
X14111143Y-12783143D01*
X14149238Y-12783143D01*
X14168286Y-12792667D01*
X14177809Y-12802190D01*
X14187333Y-12821238D01*
X14187333Y-12878381D01*
X14177809Y-12897428D01*
X14168286Y-12906952D01*
X14149238Y-12916476D01*
X14111143Y-12916476D01*
X14092095Y-12906952D01*
X14273048Y-12897428D02*
X14282571Y-12906952D01*
X14273048Y-12916476D01*
X14263524Y-12906952D01*
X14273048Y-12897428D01*
X14273048Y-12916476D01*
X14273048Y-12792667D02*
X14282571Y-12802190D01*
X14273048Y-12811714D01*
X14263524Y-12802190D01*
X14273048Y-12792667D01*
X14273048Y-12811714D01*
D11*
X12554000Y-13201000D02*
X12644000Y-13291000D01*
X12644000Y-13201000D02*
X12554000Y-13291000D01*
D10*
X12939714Y-13136476D02*
X12958762Y-13136476D01*
X12977809Y-13146000D01*
X12987333Y-13155524D01*
X12996857Y-13174571D01*
X13006381Y-13212667D01*
X13006381Y-13260286D01*
X12996857Y-13298381D01*
X12987333Y-13317428D01*
X12977809Y-13326952D01*
X12958762Y-13336476D01*
X12939714Y-13336476D01*
X12920667Y-13326952D01*
X12911143Y-13317428D01*
X12901619Y-13298381D01*
X12892095Y-13260286D01*
X12892095Y-13212667D01*
X12901619Y-13174571D01*
X12911143Y-13155524D01*
X12920667Y-13146000D01*
X12939714Y-13136476D01*
X13092095Y-13317428D02*
X13101619Y-13326952D01*
X13092095Y-13336476D01*
X13082571Y-13326952D01*
X13092095Y-13317428D01*
X13092095Y-13336476D01*
X13196857Y-13336476D02*
X13234952Y-13336476D01*
X13254000Y-13326952D01*
X13263524Y-13317428D01*
X13282571Y-13288857D01*
X13292095Y-13250762D01*
X13292095Y-13174571D01*
X13282571Y-13155524D01*
X13273048Y-13146000D01*
X13254000Y-13136476D01*
X13215905Y-13136476D01*
X13196857Y-13146000D01*
X13187333Y-13155524D01*
X13177809Y-13174571D01*
X13177809Y-13222190D01*
X13187333Y-13241238D01*
X13196857Y-13250762D01*
X13215905Y-13260286D01*
X13254000Y-13260286D01*
X13273048Y-13250762D01*
X13282571Y-13241238D01*
X13292095Y-13222190D01*
X13415905Y-13136476D02*
X13434952Y-13136476D01*
X13454000Y-13146000D01*
X13463524Y-13155524D01*
X13473048Y-13174571D01*
X13482571Y-13212667D01*
X13482571Y-13260286D01*
X13473048Y-13298381D01*
X13463524Y-13317428D01*
X13454000Y-13326952D01*
X13434952Y-13336476D01*
X13415905Y-13336476D01*
X13396857Y-13326952D01*
X13387333Y-13317428D01*
X13377809Y-13298381D01*
X13368286Y-13260286D01*
X13368286Y-13212667D01*
X13377809Y-13174571D01*
X13387333Y-13155524D01*
X13396857Y-13146000D01*
X13415905Y-13136476D01*
X13606381Y-13136476D02*
X13625428Y-13136476D01*
X13644476Y-13146000D01*
X13654000Y-13155524D01*
X13663524Y-13174571D01*
X13673048Y-13212667D01*
X13673048Y-13260286D01*
X13663524Y-13298381D01*
X13654000Y-13317428D01*
X13644476Y-13326952D01*
X13625428Y-13336476D01*
X13606381Y-13336476D01*
X13587333Y-13326952D01*
X13577809Y-13317428D01*
X13568286Y-13298381D01*
X13558762Y-13260286D01*
X13558762Y-13212667D01*
X13568286Y-13174571D01*
X13577809Y-13155524D01*
X13587333Y-13146000D01*
X13606381Y-13136476D01*
X13758762Y-13336476D02*
X13758762Y-13203143D01*
X13758762Y-13222190D02*
X13768286Y-13212667D01*
X13787333Y-13203143D01*
X13815905Y-13203143D01*
X13834952Y-13212667D01*
X13844476Y-13231714D01*
X13844476Y-13336476D01*
X13844476Y-13231714D02*
X13854000Y-13212667D01*
X13873048Y-13203143D01*
X13901619Y-13203143D01*
X13920667Y-13212667D01*
X13930190Y-13231714D01*
X13930190Y-13336476D01*
X14025428Y-13336476D02*
X14025428Y-13203143D01*
X14025428Y-13222190D02*
X14034952Y-13212667D01*
X14054000Y-13203143D01*
X14082571Y-13203143D01*
X14101619Y-13212667D01*
X14111143Y-13231714D01*
X14111143Y-13336476D01*
X14111143Y-13231714D02*
X14120667Y-13212667D01*
X14139714Y-13203143D01*
X14168286Y-13203143D01*
X14187333Y-13212667D01*
X14196857Y-13231714D01*
X14196857Y-13336476D01*
X14587333Y-13126952D02*
X14415905Y-13384095D01*
X14844476Y-13136476D02*
X14863524Y-13136476D01*
X14882571Y-13146000D01*
X14892095Y-13155524D01*
X14901619Y-13174571D01*
X14911143Y-13212667D01*
X14911143Y-13260286D01*
X14901619Y-13298381D01*
X14892095Y-13317428D01*
X14882571Y-13326952D01*
X14863524Y-13336476D01*
X14844476Y-13336476D01*
X14825428Y-13326952D01*
X14815905Y-13317428D01*
X14806381Y-13298381D01*
X14796857Y-13260286D01*
X14796857Y-13212667D01*
X14806381Y-13174571D01*
X14815905Y-13155524D01*
X14825428Y-13146000D01*
X14844476Y-13136476D01*
X14996857Y-13317428D02*
X15006381Y-13326952D01*
X14996857Y-13336476D01*
X14987333Y-13326952D01*
X14996857Y-13317428D01*
X14996857Y-13336476D01*
X15130190Y-13136476D02*
X15149238Y-13136476D01*
X15168286Y-13146000D01*
X15177809Y-13155524D01*
X15187333Y-13174571D01*
X15196857Y-13212667D01*
X15196857Y-13260286D01*
X15187333Y-13298381D01*
X15177809Y-13317428D01*
X15168286Y-13326952D01*
X15149238Y-13336476D01*
X15130190Y-13336476D01*
X15111143Y-13326952D01*
X15101619Y-13317428D01*
X15092095Y-13298381D01*
X15082571Y-13260286D01*
X15082571Y-13212667D01*
X15092095Y-13174571D01*
X15101619Y-13155524D01*
X15111143Y-13146000D01*
X15130190Y-13136476D01*
X15263524Y-13136476D02*
X15387333Y-13136476D01*
X15320667Y-13212667D01*
X15349238Y-13212667D01*
X15368286Y-13222190D01*
X15377809Y-13231714D01*
X15387333Y-13250762D01*
X15387333Y-13298381D01*
X15377809Y-13317428D01*
X15368286Y-13326952D01*
X15349238Y-13336476D01*
X15292095Y-13336476D01*
X15273048Y-13326952D01*
X15263524Y-13317428D01*
X15568286Y-13136476D02*
X15473048Y-13136476D01*
X15463524Y-13231714D01*
X15473048Y-13222190D01*
X15492095Y-13212667D01*
X15539714Y-13212667D01*
X15558762Y-13222190D01*
X15568286Y-13231714D01*
X15577809Y-13250762D01*
X15577809Y-13298381D01*
X15568286Y-13317428D01*
X15558762Y-13326952D01*
X15539714Y-13336476D01*
X15492095Y-13336476D01*
X15473048Y-13326952D01*
X15463524Y-13317428D01*
X15749238Y-13203143D02*
X15749238Y-13336476D01*
X15701619Y-13126952D02*
X15654000Y-13269809D01*
X15777809Y-13269809D01*
X15844476Y-13136476D02*
X15844476Y-13174571D01*
X15920667Y-13136476D02*
X15920667Y-13174571D01*
X16215905Y-13412667D02*
X16206381Y-13403143D01*
X16187333Y-13374571D01*
X16177809Y-13355524D01*
X16168286Y-13326952D01*
X16158762Y-13279333D01*
X16158762Y-13241238D01*
X16168286Y-13193619D01*
X16177809Y-13165048D01*
X16187333Y-13146000D01*
X16206381Y-13117428D01*
X16215905Y-13107905D01*
X16273048Y-13136476D02*
X16396857Y-13136476D01*
X16330190Y-13212667D01*
X16358762Y-13212667D01*
X16377809Y-13222190D01*
X16387333Y-13231714D01*
X16396857Y-13250762D01*
X16396857Y-13298381D01*
X16387333Y-13317428D01*
X16377809Y-13326952D01*
X16358762Y-13336476D01*
X16301619Y-13336476D01*
X16282571Y-13326952D01*
X16273048Y-13317428D01*
X16634952Y-13336476D02*
X16634952Y-13136476D01*
X16720667Y-13336476D02*
X16720667Y-13231714D01*
X16711143Y-13212667D01*
X16692095Y-13203143D01*
X16663524Y-13203143D01*
X16644476Y-13212667D01*
X16634952Y-13222190D01*
X16844476Y-13336476D02*
X16825429Y-13326952D01*
X16815905Y-13317428D01*
X16806381Y-13298381D01*
X16806381Y-13241238D01*
X16815905Y-13222190D01*
X16825429Y-13212667D01*
X16844476Y-13203143D01*
X16873048Y-13203143D01*
X16892095Y-13212667D01*
X16901619Y-13222190D01*
X16911143Y-13241238D01*
X16911143Y-13298381D01*
X16901619Y-13317428D01*
X16892095Y-13326952D01*
X16873048Y-13336476D01*
X16844476Y-13336476D01*
X17025429Y-13336476D02*
X17006381Y-13326952D01*
X16996857Y-13307905D01*
X16996857Y-13136476D01*
X17177810Y-13326952D02*
X17158762Y-13336476D01*
X17120667Y-13336476D01*
X17101619Y-13326952D01*
X17092095Y-13307905D01*
X17092095Y-13231714D01*
X17101619Y-13212667D01*
X17120667Y-13203143D01*
X17158762Y-13203143D01*
X17177810Y-13212667D01*
X17187333Y-13231714D01*
X17187333Y-13250762D01*
X17092095Y-13269809D01*
X17263524Y-13326952D02*
X17282571Y-13336476D01*
X17320667Y-13336476D01*
X17339714Y-13326952D01*
X17349238Y-13307905D01*
X17349238Y-13298381D01*
X17339714Y-13279333D01*
X17320667Y-13269809D01*
X17292095Y-13269809D01*
X17273048Y-13260286D01*
X17263524Y-13241238D01*
X17263524Y-13231714D01*
X17273048Y-13212667D01*
X17292095Y-13203143D01*
X17320667Y-13203143D01*
X17339714Y-13212667D01*
X17415905Y-13412667D02*
X17425429Y-13403143D01*
X17444476Y-13374571D01*
X17454000Y-13355524D01*
X17463524Y-13326952D01*
X17473048Y-13279333D01*
X17473048Y-13241238D01*
X17463524Y-13193619D01*
X17454000Y-13165048D01*
X17444476Y-13146000D01*
X17425429Y-13117428D01*
X17415905Y-13107905D01*
X17777810Y-13412667D02*
X17768286Y-13403143D01*
X17749238Y-13374571D01*
X17739714Y-13355524D01*
X17730190Y-13326952D01*
X17720667Y-13279333D01*
X17720667Y-13241238D01*
X17730190Y-13193619D01*
X17739714Y-13165048D01*
X17749238Y-13146000D01*
X17768286Y-13117428D01*
X17777810Y-13107905D01*
X17854000Y-13203143D02*
X17854000Y-13336476D01*
X17854000Y-13222190D02*
X17863524Y-13212667D01*
X17882571Y-13203143D01*
X17911143Y-13203143D01*
X17930190Y-13212667D01*
X17939714Y-13231714D01*
X17939714Y-13336476D01*
X18063524Y-13336476D02*
X18044476Y-13326952D01*
X18034952Y-13317428D01*
X18025429Y-13298381D01*
X18025429Y-13241238D01*
X18034952Y-13222190D01*
X18044476Y-13212667D01*
X18063524Y-13203143D01*
X18092095Y-13203143D01*
X18111143Y-13212667D01*
X18120667Y-13222190D01*
X18130190Y-13241238D01*
X18130190Y-13298381D01*
X18120667Y-13317428D01*
X18111143Y-13326952D01*
X18092095Y-13336476D01*
X18063524Y-13336476D01*
X18187333Y-13203143D02*
X18263524Y-13203143D01*
X18215905Y-13136476D02*
X18215905Y-13307905D01*
X18225429Y-13326952D01*
X18244476Y-13336476D01*
X18263524Y-13336476D01*
X18482571Y-13203143D02*
X18482571Y-13403143D01*
X18482571Y-13212667D02*
X18501619Y-13203143D01*
X18539714Y-13203143D01*
X18558762Y-13212667D01*
X18568286Y-13222190D01*
X18577810Y-13241238D01*
X18577810Y-13298381D01*
X18568286Y-13317428D01*
X18558762Y-13326952D01*
X18539714Y-13336476D01*
X18501619Y-13336476D01*
X18482571Y-13326952D01*
X18692095Y-13336476D02*
X18673048Y-13326952D01*
X18663524Y-13307905D01*
X18663524Y-13136476D01*
X18854000Y-13336476D02*
X18854000Y-13231714D01*
X18844476Y-13212667D01*
X18825429Y-13203143D01*
X18787333Y-13203143D01*
X18768286Y-13212667D01*
X18854000Y-13326952D02*
X18834952Y-13336476D01*
X18787333Y-13336476D01*
X18768286Y-13326952D01*
X18758762Y-13307905D01*
X18758762Y-13288857D01*
X18768286Y-13269809D01*
X18787333Y-13260286D01*
X18834952Y-13260286D01*
X18854000Y-13250762D01*
X18920667Y-13203143D02*
X18996857Y-13203143D01*
X18949238Y-13136476D02*
X18949238Y-13307905D01*
X18958762Y-13326952D01*
X18977810Y-13336476D01*
X18996857Y-13336476D01*
X19139714Y-13326952D02*
X19120667Y-13336476D01*
X19082571Y-13336476D01*
X19063524Y-13326952D01*
X19054000Y-13307905D01*
X19054000Y-13231714D01*
X19063524Y-13212667D01*
X19082571Y-13203143D01*
X19120667Y-13203143D01*
X19139714Y-13212667D01*
X19149238Y-13231714D01*
X19149238Y-13250762D01*
X19054000Y-13269809D01*
X19320667Y-13336476D02*
X19320667Y-13136476D01*
X19320667Y-13326952D02*
X19301619Y-13336476D01*
X19263524Y-13336476D01*
X19244476Y-13326952D01*
X19234952Y-13317428D01*
X19225429Y-13298381D01*
X19225429Y-13241238D01*
X19234952Y-13222190D01*
X19244476Y-13212667D01*
X19263524Y-13203143D01*
X19301619Y-13203143D01*
X19320667Y-13212667D01*
X19396857Y-13412667D02*
X19406381Y-13403143D01*
X19425429Y-13374571D01*
X19434952Y-13355524D01*
X19444476Y-13326952D01*
X19454000Y-13279333D01*
X19454000Y-13241238D01*
X19444476Y-13193619D01*
X19434952Y-13165048D01*
X19425429Y-13146000D01*
X19406381Y-13117428D01*
X19396857Y-13107905D01*
D12*
X12644000Y-13510000D02*
G75*
G03*
X12644000Y-13510000I-52500J0D01*
G01*
D10*
X13006381Y-13600476D02*
X12892095Y-13600476D01*
X12949238Y-13600476D02*
X12949238Y-13400476D01*
X12930190Y-13429048D01*
X12911143Y-13448095D01*
X12892095Y-13457619D01*
X13092095Y-13581428D02*
X13101619Y-13590952D01*
X13092095Y-13600476D01*
X13082571Y-13590952D01*
X13092095Y-13581428D01*
X13092095Y-13600476D01*
X13225428Y-13400476D02*
X13244476Y-13400476D01*
X13263524Y-13410000D01*
X13273048Y-13419524D01*
X13282571Y-13438571D01*
X13292095Y-13476667D01*
X13292095Y-13524286D01*
X13282571Y-13562381D01*
X13273048Y-13581428D01*
X13263524Y-13590952D01*
X13244476Y-13600476D01*
X13225428Y-13600476D01*
X13206381Y-13590952D01*
X13196857Y-13581428D01*
X13187333Y-13562381D01*
X13177809Y-13524286D01*
X13177809Y-13476667D01*
X13187333Y-13438571D01*
X13196857Y-13419524D01*
X13206381Y-13410000D01*
X13225428Y-13400476D01*
X13473048Y-13400476D02*
X13377809Y-13400476D01*
X13368286Y-13495714D01*
X13377809Y-13486190D01*
X13396857Y-13476667D01*
X13444476Y-13476667D01*
X13463524Y-13486190D01*
X13473048Y-13495714D01*
X13482571Y-13514762D01*
X13482571Y-13562381D01*
X13473048Y-13581428D01*
X13463524Y-13590952D01*
X13444476Y-13600476D01*
X13396857Y-13600476D01*
X13377809Y-13590952D01*
X13368286Y-13581428D01*
X13606381Y-13400476D02*
X13625428Y-13400476D01*
X13644476Y-13410000D01*
X13654000Y-13419524D01*
X13663524Y-13438571D01*
X13673048Y-13476667D01*
X13673048Y-13524286D01*
X13663524Y-13562381D01*
X13654000Y-13581428D01*
X13644476Y-13590952D01*
X13625428Y-13600476D01*
X13606381Y-13600476D01*
X13587333Y-13590952D01*
X13577809Y-13581428D01*
X13568286Y-13562381D01*
X13558762Y-13524286D01*
X13558762Y-13476667D01*
X13568286Y-13438571D01*
X13577809Y-13419524D01*
X13587333Y-13410000D01*
X13606381Y-13400476D01*
X13758762Y-13600476D02*
X13758762Y-13467143D01*
X13758762Y-13486190D02*
X13768286Y-13476667D01*
X13787333Y-13467143D01*
X13815905Y-13467143D01*
X13834952Y-13476667D01*
X13844476Y-13495714D01*
X13844476Y-13600476D01*
X13844476Y-13495714D02*
X13854000Y-13476667D01*
X13873048Y-13467143D01*
X13901619Y-13467143D01*
X13920667Y-13476667D01*
X13930190Y-13495714D01*
X13930190Y-13600476D01*
X14025428Y-13600476D02*
X14025428Y-13467143D01*
X14025428Y-13486190D02*
X14034952Y-13476667D01*
X14054000Y-13467143D01*
X14082571Y-13467143D01*
X14101619Y-13476667D01*
X14111143Y-13495714D01*
X14111143Y-13600476D01*
X14111143Y-13495714D02*
X14120667Y-13476667D01*
X14139714Y-13467143D01*
X14168286Y-13467143D01*
X14187333Y-13476667D01*
X14196857Y-13495714D01*
X14196857Y-13600476D01*
X14587333Y-13390952D02*
X14415905Y-13648095D01*
X14844476Y-13400476D02*
X14863524Y-13400476D01*
X14882571Y-13410000D01*
X14892095Y-13419524D01*
X14901619Y-13438571D01*
X14911143Y-13476667D01*
X14911143Y-13524286D01*
X14901619Y-13562381D01*
X14892095Y-13581428D01*
X14882571Y-13590952D01*
X14863524Y-13600476D01*
X14844476Y-13600476D01*
X14825428Y-13590952D01*
X14815905Y-13581428D01*
X14806381Y-13562381D01*
X14796857Y-13524286D01*
X14796857Y-13476667D01*
X14806381Y-13438571D01*
X14815905Y-13419524D01*
X14825428Y-13410000D01*
X14844476Y-13400476D01*
X14996857Y-13581428D02*
X15006381Y-13590952D01*
X14996857Y-13600476D01*
X14987333Y-13590952D01*
X14996857Y-13581428D01*
X14996857Y-13600476D01*
X15130190Y-13400476D02*
X15149238Y-13400476D01*
X15168286Y-13410000D01*
X15177809Y-13419524D01*
X15187333Y-13438571D01*
X15196857Y-13476667D01*
X15196857Y-13524286D01*
X15187333Y-13562381D01*
X15177809Y-13581428D01*
X15168286Y-13590952D01*
X15149238Y-13600476D01*
X15130190Y-13600476D01*
X15111143Y-13590952D01*
X15101619Y-13581428D01*
X15092095Y-13562381D01*
X15082571Y-13524286D01*
X15082571Y-13476667D01*
X15092095Y-13438571D01*
X15101619Y-13419524D01*
X15111143Y-13410000D01*
X15130190Y-13400476D01*
X15368286Y-13467143D02*
X15368286Y-13600476D01*
X15320667Y-13390952D02*
X15273048Y-13533809D01*
X15396857Y-13533809D01*
X15577809Y-13600476D02*
X15463524Y-13600476D01*
X15520667Y-13600476D02*
X15520667Y-13400476D01*
X15501619Y-13429048D01*
X15482571Y-13448095D01*
X15463524Y-13457619D01*
X15644476Y-13400476D02*
X15768286Y-13400476D01*
X15701619Y-13476667D01*
X15730190Y-13476667D01*
X15749238Y-13486190D01*
X15758762Y-13495714D01*
X15768286Y-13514762D01*
X15768286Y-13562381D01*
X15758762Y-13581428D01*
X15749238Y-13590952D01*
X15730190Y-13600476D01*
X15673048Y-13600476D01*
X15654000Y-13590952D01*
X15644476Y-13581428D01*
X15844476Y-13400476D02*
X15844476Y-13438571D01*
X15920667Y-13400476D02*
X15920667Y-13438571D01*
X16215905Y-13676667D02*
X16206381Y-13667143D01*
X16187333Y-13638571D01*
X16177809Y-13619524D01*
X16168286Y-13590952D01*
X16158762Y-13543333D01*
X16158762Y-13505238D01*
X16168286Y-13457619D01*
X16177809Y-13429048D01*
X16187333Y-13410000D01*
X16206381Y-13381428D01*
X16215905Y-13371905D01*
X16396857Y-13600476D02*
X16282571Y-13600476D01*
X16339714Y-13600476D02*
X16339714Y-13400476D01*
X16320667Y-13429048D01*
X16301619Y-13448095D01*
X16282571Y-13457619D01*
X16568286Y-13400476D02*
X16530190Y-13400476D01*
X16511143Y-13410000D01*
X16501619Y-13419524D01*
X16482571Y-13448095D01*
X16473048Y-13486190D01*
X16473048Y-13562381D01*
X16482571Y-13581428D01*
X16492095Y-13590952D01*
X16511143Y-13600476D01*
X16549238Y-13600476D01*
X16568286Y-13590952D01*
X16577809Y-13581428D01*
X16587333Y-13562381D01*
X16587333Y-13514762D01*
X16577809Y-13495714D01*
X16568286Y-13486190D01*
X16549238Y-13476667D01*
X16511143Y-13476667D01*
X16492095Y-13486190D01*
X16482571Y-13495714D01*
X16473048Y-13514762D01*
X16825429Y-13600476D02*
X16825429Y-13400476D01*
X16911143Y-13600476D02*
X16911143Y-13495714D01*
X16901619Y-13476667D01*
X16882571Y-13467143D01*
X16854000Y-13467143D01*
X16834952Y-13476667D01*
X16825429Y-13486190D01*
X17034952Y-13600476D02*
X17015905Y-13590952D01*
X17006381Y-13581428D01*
X16996857Y-13562381D01*
X16996857Y-13505238D01*
X17006381Y-13486190D01*
X17015905Y-13476667D01*
X17034952Y-13467143D01*
X17063524Y-13467143D01*
X17082571Y-13476667D01*
X17092095Y-13486190D01*
X17101619Y-13505238D01*
X17101619Y-13562381D01*
X17092095Y-13581428D01*
X17082571Y-13590952D01*
X17063524Y-13600476D01*
X17034952Y-13600476D01*
X17215905Y-13600476D02*
X17196857Y-13590952D01*
X17187333Y-13571905D01*
X17187333Y-13400476D01*
X17368286Y-13590952D02*
X17349238Y-13600476D01*
X17311143Y-13600476D01*
X17292095Y-13590952D01*
X17282571Y-13571905D01*
X17282571Y-13495714D01*
X17292095Y-13476667D01*
X17311143Y-13467143D01*
X17349238Y-13467143D01*
X17368286Y-13476667D01*
X17377810Y-13495714D01*
X17377810Y-13514762D01*
X17282571Y-13533809D01*
X17454000Y-13590952D02*
X17473048Y-13600476D01*
X17511143Y-13600476D01*
X17530190Y-13590952D01*
X17539714Y-13571905D01*
X17539714Y-13562381D01*
X17530190Y-13543333D01*
X17511143Y-13533809D01*
X17482571Y-13533809D01*
X17463524Y-13524286D01*
X17454000Y-13505238D01*
X17454000Y-13495714D01*
X17463524Y-13476667D01*
X17482571Y-13467143D01*
X17511143Y-13467143D01*
X17530190Y-13476667D01*
X17606381Y-13676667D02*
X17615905Y-13667143D01*
X17634952Y-13638571D01*
X17644476Y-13619524D01*
X17654000Y-13590952D01*
X17663524Y-13543333D01*
X17663524Y-13505238D01*
X17654000Y-13457619D01*
X17644476Y-13429048D01*
X17634952Y-13410000D01*
X17615905Y-13381428D01*
X17606381Y-13371905D01*
X17968286Y-13676667D02*
X17958762Y-13667143D01*
X17939714Y-13638571D01*
X17930190Y-13619524D01*
X17920667Y-13590952D01*
X17911143Y-13543333D01*
X17911143Y-13505238D01*
X17920667Y-13457619D01*
X17930190Y-13429048D01*
X17939714Y-13410000D01*
X17958762Y-13381428D01*
X17968286Y-13371905D01*
X18044476Y-13467143D02*
X18044476Y-13600476D01*
X18044476Y-13486190D02*
X18054000Y-13476667D01*
X18073048Y-13467143D01*
X18101619Y-13467143D01*
X18120667Y-13476667D01*
X18130190Y-13495714D01*
X18130190Y-13600476D01*
X18254000Y-13600476D02*
X18234952Y-13590952D01*
X18225429Y-13581428D01*
X18215905Y-13562381D01*
X18215905Y-13505238D01*
X18225429Y-13486190D01*
X18234952Y-13476667D01*
X18254000Y-13467143D01*
X18282571Y-13467143D01*
X18301619Y-13476667D01*
X18311143Y-13486190D01*
X18320667Y-13505238D01*
X18320667Y-13562381D01*
X18311143Y-13581428D01*
X18301619Y-13590952D01*
X18282571Y-13600476D01*
X18254000Y-13600476D01*
X18377810Y-13467143D02*
X18454000Y-13467143D01*
X18406381Y-13400476D02*
X18406381Y-13571905D01*
X18415905Y-13590952D01*
X18434952Y-13600476D01*
X18454000Y-13600476D01*
X18673048Y-13467143D02*
X18673048Y-13667143D01*
X18673048Y-13476667D02*
X18692095Y-13467143D01*
X18730190Y-13467143D01*
X18749238Y-13476667D01*
X18758762Y-13486190D01*
X18768286Y-13505238D01*
X18768286Y-13562381D01*
X18758762Y-13581428D01*
X18749238Y-13590952D01*
X18730190Y-13600476D01*
X18692095Y-13600476D01*
X18673048Y-13590952D01*
X18882571Y-13600476D02*
X18863524Y-13590952D01*
X18854000Y-13571905D01*
X18854000Y-13400476D01*
X19044476Y-13600476D02*
X19044476Y-13495714D01*
X19034952Y-13476667D01*
X19015905Y-13467143D01*
X18977810Y-13467143D01*
X18958762Y-13476667D01*
X19044476Y-13590952D02*
X19025429Y-13600476D01*
X18977810Y-13600476D01*
X18958762Y-13590952D01*
X18949238Y-13571905D01*
X18949238Y-13552857D01*
X18958762Y-13533809D01*
X18977810Y-13524286D01*
X19025429Y-13524286D01*
X19044476Y-13514762D01*
X19111143Y-13467143D02*
X19187333Y-13467143D01*
X19139714Y-13400476D02*
X19139714Y-13571905D01*
X19149238Y-13590952D01*
X19168286Y-13600476D01*
X19187333Y-13600476D01*
X19330190Y-13590952D02*
X19311143Y-13600476D01*
X19273048Y-13600476D01*
X19254000Y-13590952D01*
X19244476Y-13571905D01*
X19244476Y-13495714D01*
X19254000Y-13476667D01*
X19273048Y-13467143D01*
X19311143Y-13467143D01*
X19330190Y-13476667D01*
X19339714Y-13495714D01*
X19339714Y-13514762D01*
X19244476Y-13533809D01*
X19511143Y-13600476D02*
X19511143Y-13400476D01*
X19511143Y-13590952D02*
X19492095Y-13600476D01*
X19454000Y-13600476D01*
X19434952Y-13590952D01*
X19425429Y-13581428D01*
X19415905Y-13562381D01*
X19415905Y-13505238D01*
X19425429Y-13486190D01*
X19434952Y-13476667D01*
X19454000Y-13467143D01*
X19492095Y-13467143D01*
X19511143Y-13476667D01*
X19587333Y-13676667D02*
X19596857Y-13667143D01*
X19615905Y-13638571D01*
X19625429Y-13619524D01*
X19634952Y-13590952D01*
X19644476Y-13543333D01*
X19644476Y-13505238D01*
X19634952Y-13457619D01*
X19625429Y-13429048D01*
X19615905Y-13410000D01*
X19596857Y-13381428D01*
X19587333Y-13371905D01*
M02*
