G04 #@! TF.GenerationSoftware,KiCad,Pcbnew,6.0.10+dfsg-1~bpo11+1*
G04 #@! TF.ProjectId,bot,626f742e-6b69-4636-9164-5f7063625858,rev?*
G04 #@! TF.SameCoordinates,Original*
G04 #@! TF.FileFunction,Soldermask,Bot*
G04 #@! TF.FilePolarity,Negative*
%FSLAX46Y46*%
G04 Gerber Fmt 4.6, Leading zero omitted, Abs format (unit mm)*
%MOMM*%
%LPD*%
G01*
G04 APERTURE LIST*
G04 #@! TA.AperFunction,Profile*
%ADD10C,0.120000*%
G04 #@! TD*
%ADD11C,0.900000*%
%ADD12C,2.500000*%
%ADD13C,1.050000*%
G04 APERTURE END LIST*
D10*
X126500000Y-100000000D02*
X144500000Y-100000000D01*
X144500000Y-100000000D02*
X144500000Y-126000000D01*
X144500000Y-126000000D02*
X126500000Y-126000000D01*
X126500000Y-126000000D02*
X126500000Y-100000000D01*
X129350000Y-108650000D02*
X129350000Y-123950000D01*
X140650000Y-108650000D02*
X130350000Y-108650000D01*
X141650000Y-123950000D02*
X141650000Y-108650000D01*
X130350000Y-123950000D02*
X140650000Y-123950000D01*
X141650000Y-108650000D02*
G75*
G03*
X140650000Y-108650000I-500000J0D01*
G01*
X140650000Y-123950000D02*
G75*
G03*
X141650000Y-123950000I500000J0D01*
G01*
X129350000Y-123950000D02*
G75*
G03*
X130350000Y-123950000I500000J0D01*
G01*
X130350000Y-108650000D02*
G75*
G03*
X129350000Y-108650000I-500000J0D01*
G01*
D11*
X131500000Y-125000000D03*
X128500000Y-106000000D03*
X142500000Y-103000000D03*
D12*
X128000000Y-100000000D03*
X143000000Y-100000000D03*
X143000000Y-126000000D03*
X128000000Y-126000000D03*
D13*
X128500000Y-111600000D03*
X142500000Y-123600000D03*
X142500000Y-121600000D03*
X128500000Y-113600000D03*
X128500000Y-115600000D03*
X142500000Y-111600000D03*
X142500000Y-119600000D03*
X128500000Y-109600000D03*
X142500000Y-109600000D03*
X142500000Y-115600000D03*
X128500000Y-121600000D03*
X142500000Y-113600000D03*
X142500000Y-117600000D03*
X128500000Y-119600000D03*
X128500000Y-123600000D03*
X128500000Y-117600000D03*
M02*
